<?xml version="1.0" encoding="UTF-8" standalone="no"?>
<!DOCTYPE svg PUBLIC "-//W3C//DTD SVG 1.1//EN" "http://www.w3.org/Graphics/SVG/1.1/DTD/svg11.dtd">
<svg width="100%" height="100%" viewBox="0 0 1344 256" version="1.1" xmlns="http://www.w3.org/2000/svg" xmlns:xlink="http://www.w3.org/1999/xlink" xml:space="preserve" style="fill-rule:evenodd;clip-rule:evenodd;stroke-linejoin:round;stroke-miterlimit:1.41421;">
    <g transform="matrix(0.823197,0,0,0.823197,-9.30213,23.0012)">
        <g>
            <g>
                <path d="M11.301,249.089L190.046,249.089L190.046,216.709L11.301,232.814L11.301,249.089Z" style="fill:white;fill-rule:nonzero;"/>
                <path d="M190.045,194.259L74.172,194.259L74.172,152.955L187.487,152.955L187.487,98.125L74.172,98.125L74.172,60.11L190.045,60.11L190.045,5.28L11.3,5.28L11.3,217.045L190.045,202.375L190.045,194.259L190.045,194.259Z" style="fill:white;fill-rule:nonzero;"/>
                <path d="M288.366,194.259L288.366,5.28L225.494,5.28L225.494,199.467L288.958,194.259L288.366,194.259Z" style="fill:white;fill-rule:nonzero;"/>
                <path d="M225.494,249.089L386.328,249.089L386.328,199.024L225.494,213.515L225.494,249.089Z" style="fill:white;fill-rule:nonzero;"/>
                <path d="M392.537,249.089L463.816,249.089L475.879,213.998L572.012,213.998L584.074,249.089L655.354,249.089L628.308,177.221L412.257,196.688L392.537,249.089L392.537,249.089Z" style="fill:white;fill-rule:nonzero;"/>
                <path d="M493.058,159.169L524.129,67.419L554.834,159.169L493.058,159.169L493.058,159.169ZM563.605,5.281L484.284,5.281L417.129,183.741L624.362,166.736L563.605,5.281L563.605,5.281Z" style="fill:white;fill-rule:nonzero;"/>
                <path d="M705.061,249.089L767.931,249.089L767.931,164.641L705.061,170.306L705.061,249.089Z" style="fill:white;fill-rule:nonzero;"/>
                <path d="M767.932,60.11L835.921,60.11L835.921,5.28L636.707,5.28L636.707,60.11L705.062,60.11L705.062,160.113L767.932,154.955L767.932,60.11L767.932,60.11Z" style="fill:white;fill-rule:nonzero;"/>
                <path d="M929.854,5.28L865.887,5.28L865.887,146.916L929.854,141.667L929.854,5.28L929.854,5.28Z" style="fill:white;fill-rule:nonzero;"/>
                <path d="M1032.57,148.202C1032.57,177.08 1015.03,197.914 981.395,197.914C948.135,197.914 930.63,177.962 929.893,150.049L865.997,155.806C868.193,212.919 905.548,253.475 981.395,253.475C1059.62,253.475 1096.17,210.708 1096.17,150.029L1096.17,135.068L1032.57,140.799L1032.57,148.202Z" style="fill:white;fill-rule:nonzero;"/>
                <path d="M1096.17,5.28L1032.57,5.28L1032.57,133.237L1096.17,128.019L1096.17,5.28L1096.17,5.28Z" style="fill:white;fill-rule:nonzero;"/>
                <path d="M1194.5,74C1194.5,63.401 1202.54,57.186 1220.82,57.186C1244.94,57.186 1271.63,65.594 1292.1,82.773L1326.46,35.62C1300.5,13.321 1266.51,1.625 1227.4,1.625C1164.89,1.625 1130.53,38.177 1130.53,79.117C1130.53,98.8 1136.6,113.174 1146.16,123.916L1294.35,111.755C1253.56,90.689 1194.5,93.623 1194.5,74" style="fill:white;fill-rule:nonzero;"/>
                <path d="M1302.5,116.478L1152.36,130.005C1191.21,163.345 1268.34,154.477 1268.34,178.542C1268.34,190.604 1255.18,197.914 1233.98,197.914C1200.35,197.914 1173.3,183.293 1155.75,165.748L1122.49,214.728C1146.98,237.757 1181.34,253.475 1230.69,253.475C1296.12,253.475 1332.3,220.943 1332.3,171.963C1332.3,144.75 1319.88,127.756 1302.5,116.478" style="fill:white;fill-rule:nonzero;"/>
            </g>
        </g>
    </g>
</svg>
