<?xml version="1.0" encoding="UTF-8" standalone="no"?><!DOCTYPE svg PUBLIC "-//W3C//DTD SVG 1.1//EN" "http://www.w3.org/Graphics/SVG/1.1/DTD/svg11.dtd"><svg width="100%" height="100%" viewBox="0 0 1344 256" version="1.1" xmlns="http://www.w3.org/2000/svg" xmlns:xlink="http://www.w3.org/1999/xlink" xml:space="preserve" style="fill-rule:evenodd;clip-rule:evenodd;stroke-linejoin:round;stroke-miterlimit:1.41421;"><g><clipPath id="_clip1"><rect x="0" y="0" width="1343.6" height="255.114"/></clipPath><g clip-path="url(#_clip1)"><path d="M427.717,60.463c-11.188,0 -21.652,1.979 -31.389,5.93c-9.741,3.956 -18.274,9.308 -25.601,16.055c-7.332,6.754 -13.118,14.754 -17.358,24.012c-4.244,9.257 -6.364,19.093 -6.364,29.508l0,72.322l24.879,0l0,-72.322c0,-6.943 1.447,-13.497 4.34,-19.671c2.892,-6.171 6.893,-11.573 12.004,-16.202c5.108,-4.628 11.038,-8.244 17.792,-10.848c6.749,-2.603 13.981,-3.905 21.697,-3.905l0,-24.879Z" style="fill:#fff;fill-rule:nonzero;"/><path d="M453.753,124.107c1.347,-5.398 3.566,-10.459 6.654,-15.188c3.083,-4.724 6.749,-8.774 10.993,-12.15c4.24,-3.373 9.012,-6.026 14.319,-7.955c5.303,-1.926 10.944,-2.894 16.924,-2.894c5.976,0 11.617,0.968 16.924,2.894c5.302,1.929 10.075,4.582 14.32,7.955c4.239,3.376 7.855,7.426 10.847,12.15c2.988,4.729 5.253,9.79 6.799,15.188l-97.78,0Zm102.119,-41.08c-6.753,-6.748 -14.709,-12.1 -23.866,-16.056c-9.162,-3.95 -18.949,-5.93 -29.363,-5.93c-10.415,0 -20.206,1.98 -29.363,5.93c-9.162,3.956 -17.167,9.308 -24.011,16.056c-6.848,6.753 -12.25,14.754 -16.2,24.012c-3.956,9.257 -5.931,19.092 -5.931,29.506c0,10.415 1.975,20.157 5.931,29.22c3.95,9.068 9.352,17.022 16.2,23.865c6.844,6.849 14.849,12.25 24.011,16.201c9.157,3.951 18.948,5.931 29.363,5.931c8.1,0 15.956,-1.882 23.578,-5.641c7.616,-3.762 14.608,-8.724 20.972,-14.899l-17.356,-17.356c-4.245,4.048 -8.679,7.281 -13.308,9.69c-4.629,2.414 -9.256,3.615 -13.886,3.615c-5.98,0 -11.621,-0.962 -16.924,-2.892c-5.307,-1.925 -10.079,-4.629 -14.319,-8.1c-4.244,-3.471 -7.91,-7.521 -10.993,-12.15c-3.088,-4.628 -5.307,-9.736 -6.654,-15.333l123.527,0c0.384,-3.661 0.578,-6.265 0.578,-7.811l0,-4.34c0,-10.414 -1.979,-20.249 -5.93,-29.506c-3.955,-9.258 -9.307,-17.259 -16.056,-24.012" style="fill:#fff;fill-rule:nonzero;"/><path d="M727.854,82.448c-6.848,-6.748 -14.854,-12.1 -24.011,-16.055c-9.163,-3.95 -18.949,-5.931 -29.363,-5.931c-10.415,0 -20.156,1.981 -29.219,5.931c-9.067,3.955 -17.023,9.307 -23.864,16.055c-6.85,6.754 -12.25,14.754 -16.202,24.012c-3.955,9.258 -5.93,19.093 -5.93,29.508l0,72.322l24.59,0l0,-72.322c0,-6.943 1.345,-13.497 4.049,-19.672c2.699,-6.17 6.314,-11.572 10.848,-16.201c4.529,-4.628 9.881,-8.244 16.056,-10.848c6.171,-2.604 12.73,-3.905 19.672,-3.905c7.134,0 13.786,1.301 19.96,3.905c6.172,2.604 11.523,6.22 16.058,10.848c4.529,4.629 8.099,10.031 10.703,16.201c2.603,6.175 3.905,12.729 3.905,19.672l0,72.322l24.879,0l0,-72.322c0,-10.415 -1.981,-20.25 -5.932,-29.508c-3.954,-9.258 -9.355,-17.258 -16.199,-24.012" style="fill:#fff;fill-rule:nonzero;"/><path d="M821.584,179.361c-2.993,4.05 -6.704,6.075 -11.138,6.075c-4.439,0 -8.15,-1.491 -11.137,-4.484c-2.994,-2.988 -4.485,-6.605 -4.485,-10.848l0,-81.291l50.625,0l0,-24.59l-50.625,0l0,-35.293l-24.878,0l0,141.174c0,5.596 1.057,10.802 3.181,15.621c2.12,4.824 5.014,9.069 8.68,12.729c3.661,3.666 7.955,6.559 12.874,8.679c4.917,2.12 10.17,3.182 15.765,3.182c5.592,0 10.848,-1.207 15.766,-3.615c4.919,-2.409 9.157,-5.687 12.729,-9.837c3.567,-4.145 6.41,-8.969 8.535,-14.465c2.119,-5.496 3.18,-11.427 3.18,-17.791l-24.588,0c0,5.785 -1.496,10.704 -4.484,14.754" style="fill:#fff;fill-rule:nonzero;"/><path d="M882.187,124.107c1.347,-5.398 3.566,-10.459 6.653,-15.188c3.083,-4.724 6.749,-8.774 10.993,-12.15c4.241,-3.373 9.014,-6.026 14.32,-7.955c5.302,-1.926 10.943,-2.894 16.924,-2.894c5.976,0 11.617,0.968 16.923,2.894c5.303,1.929 10.076,4.582 14.321,7.955c4.24,3.376 7.854,7.426 10.846,12.15c2.989,4.729 5.253,9.79 6.799,15.188l-97.779,0Zm102.119,-41.08c-6.754,-6.748 -14.707,-12.1 -23.865,-16.056c-9.163,-3.95 -18.949,-5.93 -29.364,-5.93c-10.415,0 -20.204,1.98 -29.363,5.93c-9.163,3.956 -17.168,9.308 -24.011,16.056c-6.848,6.753 -12.25,14.754 -16.201,24.012c-3.955,9.257 -5.93,19.092 -5.93,29.506c0,10.415 1.975,20.157 5.93,29.22c3.951,9.068 9.353,17.022 16.201,23.865c6.843,6.849 14.848,12.25 24.011,16.201c9.159,3.951 18.948,5.931 29.363,5.931c8.099,0 15.957,-1.882 23.578,-5.641c7.616,-3.762 14.609,-8.724 20.971,-14.899l-17.355,-17.356c-4.245,4.048 -8.68,7.281 -13.308,9.69c-4.63,2.414 -9.257,3.615 -13.886,3.615c-5.981,0 -11.622,-0.962 -16.924,-2.892c-5.306,-1.925 -10.079,-4.629 -14.32,-8.1c-4.244,-3.471 -7.91,-7.521 -10.993,-12.15c-3.087,-4.628 -5.306,-9.736 -6.653,-15.333l123.526,0c0.386,-3.661 0.579,-6.265 0.579,-7.811l0,-4.34c0,-10.414 -1.979,-20.249 -5.93,-29.506c-3.956,-9.258 -9.308,-17.259 -16.056,-24.012" style="fill:#fff;fill-rule:nonzero;"/><path d="M1144.43,155.639c-2.604,6.176 -6.22,11.526 -10.849,16.057c-4.63,4.533 -10.031,8.148 -16.2,10.848c-6.176,2.702 -12.729,4.05 -19.672,4.05c-6.942,0 -13.502,-1.348 -19.673,-4.05c-6.173,-2.7 -11.57,-6.315 -16.198,-10.848c-4.631,-4.531 -8.246,-9.881 -10.849,-16.057c-2.604,-6.17 -3.906,-12.729 -3.906,-19.672c0,-6.941 1.302,-13.496 3.906,-19.671c2.603,-6.171 6.218,-11.573 10.849,-16.201c4.628,-4.628 10.025,-8.244 16.198,-10.848c6.171,-2.604 12.731,-3.906 19.673,-3.906c6.943,0 13.496,1.302 19.672,3.906c6.169,2.604 11.57,6.22 16.2,10.848c4.629,4.628 8.245,10.03 10.849,16.201c2.603,6.175 3.905,12.73 3.905,19.671c0,6.943 -1.302,13.502 -3.905,19.672m6.653,-73.19c-6.848,-6.748 -14.853,-12.101 -24.011,-16.056c-9.163,-3.949 -18.95,-5.931 -29.363,-5.931c-10.414,0 -20.155,1.982 -29.218,5.931c-9.067,3.955 -17.024,9.308 -23.868,16.056c-6.846,6.753 -12.249,14.753 -16.198,24.01c-3.955,9.258 -5.931,19.094 -5.931,29.508c0,10.415 1.976,20.206 5.931,29.363c3.949,9.163 9.352,17.119 16.198,23.868c6.844,6.753 14.801,12.104 23.868,16.054c9.063,3.951 18.804,5.931 29.218,5.931c10.413,0 20.2,-1.98 29.363,-5.931c9.158,-3.95 17.163,-9.301 24.011,-16.054c6.843,-6.749 12.243,-14.705 16.199,-23.868c3.952,-9.157 5.931,-18.948 5.931,-29.363c0,-10.414 -1.979,-20.25 -5.931,-29.508c-3.956,-9.257 -9.356,-17.257 -16.199,-24.01" style="fill:#fff;fill-rule:nonzero;"/><path d="M1337.67,106.459c-3.955,-9.258 -9.356,-17.257 -16.199,-24.011c-6.849,-6.748 -14.854,-12.099 -24.012,-16.054c-9.162,-3.951 -18.948,-5.932 -29.363,-5.932c-10.414,0 -20.155,1.981 -29.218,5.932c-9.068,3.955 -17.024,9.306 -23.866,16.054c-6.848,6.754 -12.25,14.753 -16.2,24.011c-3.955,9.259 -5.931,19.095 -5.931,29.509l0,72.322l24.59,0l0,-72.322c0,-6.943 1.347,-13.496 4.049,-19.672c2.699,-6.171 6.315,-11.572 10.848,-16.201c4.53,-4.629 9.882,-8.243 16.056,-10.848c6.171,-2.603 12.728,-3.905 19.672,-3.905c7.133,0 13.786,1.302 19.961,3.905c6.17,2.605 11.521,6.219 16.055,10.848c4.53,4.629 8.101,10.03 10.704,16.201c2.604,6.176 3.906,12.729 3.906,19.672l0,72.322l24.878,0l0,-72.322c0,-10.414 -1.979,-20.25 -5.93,-29.509" style="fill:#fff;fill-rule:nonzero;"/><path d="M127.347,244.569c-0.379,0 -0.755,-0.011 -1.132,-0.014l0,-114.628c0,-11.039 2.286,-21.458 6.859,-31.275c3.635,-7.8 8.396,-14.813 14.247,-21.064c1.509,-1.612 3.072,-3.185 4.729,-4.693c8.072,-7.359 17.445,-13.108 28.119,-17.248c7.915,-3.071 16.259,-4.984 25.017,-5.771c2.702,-0.243 5.441,-0.387 8.223,-0.414c18.651,20.715 30.013,48.196 30.013,78.346c0,64.487 -51.968,116.761 -116.075,116.761m-116.075,-116.761c0,-64.485 51.969,-116.759 116.075,-116.759c14.135,0 27.676,2.547 40.203,7.201c-0.148,0.056 -0.295,0.117 -0.443,0.175c-0.754,0.29 -1.507,0.582 -2.256,0.886c-9.08,3.709 -17.479,8.212 -25.232,13.466c-1.15,0.778 -2.282,1.579 -3.402,2.393c-4.136,3 -8.094,6.206 -11.831,9.669c-1.158,1.073 -2.284,2.171 -3.392,3.283c-9.992,10.02 -18.009,21.643 -24.042,34.891c-2.516,5.52 -4.559,11.168 -6.13,16.946c-0.202,0.741 -0.389,1.485 -0.575,2.23c-0.055,0.224 -0.118,0.446 -0.172,0.67c-2.122,8.733 -3.182,17.754 -3.182,27.067l0,107.344c-44.159,-16.515 -75.621,-59.29 -75.621,-109.462m116.284,-127.808c-70.447,0 -127.556,57.109 -127.556,127.557c0,70.449 57.109,127.557 127.556,127.557c70.448,0 127.557,-57.108 127.557,-127.557c0,-70.448 -57.109,-127.557 -127.557,-127.557" style="fill:#fff;fill-rule:nonzero;"/></g></g></svg>