<svg xmlns="http://www.w3.org/2000/svg" width="34" height="36.001" viewBox="0 0 34 36.001">
  <path id="Color_Overlay" data-name="Color Overlay" d="M1877.128,810.927c-.956-.3-.9-1.755-.9-1.755v-3.631c-8.4-2.386-8.3-11.147-8.21-15.811.1-4.684,1-8.464,3.569-11.029,3.459-3.185,9.641-3.659,12.515-3.7.958-.013,1.55.024,1.55.024,8.015.03,11.6,2.655,12.494,3.48l.015,0c2.956,2.58,4.6,8.28,3.493,17.327-1.075,8.761-7.645,9.6-8.809,9.978a32.261,32.261,0,0,1-10.658.793l-2.09,2.371c-.97,1.04-1.6,2.022-2.523,2.022A1.471,1.471,0,0,1,1877.128,810.927Zm-3.54-30.349c-2.164,2.16-2.9,5.359-2.985,9.258-.075,3.9-.492,11.373,6.629,13.353l-.03,6.028c-.015.33.044.571.238.616a.593.593,0,0,0,.522-.225c1.135-1.14,4.775-5.552,4.775-5.552a30.062,30.062,0,0,0,9.184-.779c.985-.315,6.314-.78,7.21-8.1.937-7.555-.344-12.7-2.837-14.838-.76-.69-4-2.745-10.778-2.76,0,0-.5-.034-1.314-.03h0C1881.761,777.563,1876.51,777.923,1873.589,780.578Zm16.1,19.907v-.015a21.685,21.685,0,0,1-3.884-1.8,23.243,23.243,0,0,1-4.747-3.495l-.045-.045-.045-.045-.059-.045-.045-.06a23.039,23.039,0,0,1-3.463-4.756,20.544,20.544,0,0,1-1.791-3.9l-.03-.015a1.833,1.833,0,0,1-.075-.811,2.8,2.8,0,0,1,.688-1.424,7.087,7.087,0,0,1,1.715-1.41h.017a1.421,1.421,0,0,1,.918-.18,1.254,1.254,0,0,1,.752.45,20.284,20.284,0,0,1,2.3,3.226,1.5,1.5,0,0,1-.253,1.875l-.836.675a1.2,1.2,0,0,0-.374.975s1.239,4.739,5.9,5.939l.017-.015a1.214,1.214,0,0,0,.97-.36l.672-.853a1.452,1.452,0,0,1,1.85-.256,20.292,20.292,0,0,1,3.209,2.31,1.282,1.282,0,0,1,.269,1.681v.015a6.775,6.775,0,0,1-1.389,1.722,2.743,2.743,0,0,1-1.644.708A2.1,2.1,0,0,1,1889.685,800.485Zm3.521-9.243a8.742,8.742,0,0,0-2.45-6.511,8.386,8.386,0,0,0-6.016-2.385.449.449,0,0,1,0-.9h0a9.2,9.2,0,0,1,6.66,2.64,9.707,9.707,0,0,1,2.7,7.141.451.451,0,0,1-.447.45v.013A.45.45,0,0,1,1893.206,791.242Zm-1.94-.5a.45.45,0,0,1-.448-.448,5.274,5.274,0,0,0-1.343-3.856,5.635,5.635,0,0,0-3.956-1.725h0a.45.45,0,0,1,0-.9h.063a6.491,6.491,0,0,1,4.552,2.011,6.2,6.2,0,0,1,1.6,4.485v0a.451.451,0,0,1-.447.45Zm-2.314-.779a.45.45,0,0,1-.447-.435,2.167,2.167,0,0,0-2.284-2.371.458.458,0,0,1,.013-.916h.031a3.058,3.058,0,0,1,3.135,3.242v.03a.451.451,0,0,1-.433.45Z" transform="translate(-1868.001 -775)" fill="#7d519f"/>
</svg>
