<?xml version="1.0" encoding="UTF-8" standalone="no"?>
<!DOCTYPE svg PUBLIC "-//W3C//DTD SVG 1.1//EN" "http://www.w3.org/Graphics/SVG/1.1/DTD/svg11.dtd">
<svg width="100%" height="100%" viewBox="0 0 480 320" version="1.1" xmlns="http://www.w3.org/2000/svg" xmlns:xlink="http://www.w3.org/1999/xlink" xml:space="preserve" xmlns:serif="http://www.serif.com/" style="fill-rule:evenodd;clip-rule:evenodd;stroke-linecap:round;stroke-linejoin:round;stroke-miterlimit:10;">
    <g transform="matrix(1,0,0,1,0,-16)">
        <path d="M453.707,154.6C446.377,144.87 419.147,138.17 407.627,120.66C396.107,103.15 386.677,65.23 357.357,50.66C328.037,36.09 271.997,32 239.997,32C207.997,32 151.997,36 122.637,50.63C93.278,65.26 83.888,103.15 72.368,120.63C60.847,138.11 33.618,144.87 26.287,154.6C18.958,164.33 13.798,225.84 16.938,256C20.078,286.16 25.938,304 25.938,304L111.937,304C126.017,304 130.597,298.71 159.397,296C190.997,293 221.997,292 239.997,292C257.997,292 289.997,293 321.577,296C350.377,298.73 355.107,304 369.037,304L454.037,304C454.037,304 459.897,286.16 463.037,256C466.177,225.84 460.997,164.33 453.707,154.6Z" style="fill:none;fill-rule:nonzero;stroke:black;stroke-width:32px;"/>
    </g>
    <g transform="matrix(1,0,0,1,0,272)">
        <rect x="383.997" y="16" width="56" height="16" style="fill:none;stroke:black;stroke-width:32px;"/>
    </g>
    <g transform="matrix(1,0,0,1,0,272)">
        <rect x="39.998" y="16" width="56" height="16" style="fill:none;stroke:black;stroke-width:32px;"/>
    </g>
    <g transform="matrix(1,0,0,1,0,112.5)">
        <path d="M348.467,100.66C342.557,93.83 323.297,88.13 297.797,84.31C272.297,80.49 262.997,79.5 240.197,79.5C217.397,79.5 207.027,81.14 182.587,84.31C158.147,87.48 139.797,93.12 131.927,100.66C120.117,112.1 137.417,124.94 150.997,126.5C164.157,128 190.467,127.45 240.307,127.45C290.147,127.45 316.457,128 329.617,126.5C343.177,124.85 359.237,112.9 348.467,100.66Z" style="fill-rule:nonzero;"/>
    </g>
    <g transform="matrix(1,0,0,1,0,-0.37)">
        <path d="M415.567,147.42C415.452,145.784 414.107,144.482 412.467,144.42C400.657,144 388.667,144.84 367.397,151.11C356.546,154.278 346.356,159.38 337.317,166.17C335.037,167.95 335.847,172.76 338.707,173.27C356.239,175.326 373.876,176.361 391.527,176.37C402.117,176.37 413.047,173.37 415.077,163.93C416.112,158.487 416.278,152.915 415.567,147.42Z" style="fill-rule:nonzero;"/>
    </g>
    <g transform="matrix(1,0,0,1,0,-0.37)">
        <path d="M64.428,147.42C64.543,145.784 65.888,144.482 67.528,144.42C79.338,144 91.328,144.84 112.597,151.11C123.449,154.278 133.639,159.38 142.677,166.17C144.957,167.95 144.147,172.76 141.287,173.27C123.756,175.326 106.119,176.361 88.468,176.37C77.878,176.37 66.948,173.37 64.918,163.93C63.883,158.487 63.717,152.915 64.428,147.42Z" style="fill-rule:nonzero;"/>
    </g>
    <g transform="matrix(1,0,0,1,0,-128)">
        <path d="M415.997,224L431.997,224" style="fill:none;fill-rule:nonzero;stroke:black;stroke-width:32px;"/>
    </g>
    <g transform="matrix(1,0,0,1,0,-128)">
        <path d="M47.998,224L63.998,224" style="fill:none;fill-rule:nonzero;stroke:black;stroke-width:32px;"/>
    </g>
    <g transform="matrix(1,0,0,1,0,-102)">
        <path d="M61.998,217C61.998,217 108.347,205 239.997,205C371.647,205 417.997,217 417.997,217" style="fill:none;fill-rule:nonzero;stroke:black;stroke-width:32px;"/>
    </g>
</svg>
