<svg xmlns="http://www.w3.org/2000/svg" width="51.001" height="55" viewBox="0 0 51.001 55"><g transform="translate(-753 -1536)"><g transform="translate(753 1536)"><path d="M33.4,33.513a12.6,12.6,0,0,0-4.1,6.82H21.693a12.863,12.863,0,0,0-4.007-6.8,11.794,11.794,0,0,1-3.115-7.865,11.539,11.539,0,0,1,10.929-11A10.222,10.222,0,0,1,33.022,17.6a11.336,11.336,0,0,1,3.406,8.067,10.914,10.914,0,0,1-3.078,7.847ZM25.5,11A15.337,15.337,0,0,0,10.929,25.667,15.457,15.457,0,0,0,15.1,36.117a8.381,8.381,0,0,1,3.115,6.05A1.835,1.835,0,0,0,20.036,44H30.964a1.835,1.835,0,0,0,1.821-1.833,8.2,8.2,0,0,1,3.078-6.013,14.475,14.475,0,0,0,4.207-10.487,15.03,15.03,0,0,0-4.444-10.688A13.926,13.926,0,0,0,25.5,11Z" fill="#4d4d4d"/><path d="M30.964,45.833H20.036a1.833,1.833,0,0,0,0,3.667H30.964a1.833,1.833,0,0,0,0-3.667Z" fill="#4d4d4d"/><path d="M29.143,51.333H21.857a1.833,1.833,0,0,0,0,3.667h7.286a1.833,1.833,0,0,0,0-3.667Z" fill="#4d4d4d"/><path d="M25.5,7.333A1.835,1.835,0,0,0,27.321,5.5V1.833a1.821,1.821,0,1,0-3.643,0V5.5A1.835,1.835,0,0,0,25.5,7.333Z" fill="#4d4d4d"/><path d="M5.464,23.833H1.821a1.833,1.833,0,0,0,0,3.667H5.464a1.833,1.833,0,0,0,0-3.667Z" fill="#4d4d4d"/><path d="M49.179,23.833H45.536a1.833,1.833,0,0,0,0,3.667h3.643a1.833,1.833,0,0,0,0-3.667Z" fill="#4d4d4d"/><path d="M43.532,7.517a1.822,1.822,0,0,0-2.568,0L38.377,10.1a1.841,1.841,0,0,0,0,2.6,1.839,1.839,0,0,0,2.586,0l2.568-2.6A1.851,1.851,0,0,0,43.532,7.517Z" fill="#4d4d4d"/><path d="M12.622,12.7a1.841,1.841,0,0,0,0-2.6L10.036,7.517a1.816,1.816,0,0,0-1.186-.44A1.834,1.834,0,0,0,7.468,10.1l2.568,2.6a1.839,1.839,0,0,0,2.586,0Z" fill="#4d4d4d"/></g><path d="M774.858,1591a1.833,1.833,0,0,1,0-3.667h7.286a1.833,1.833,0,0,1,0,3.667Zm-1.822-5.5a1.833,1.833,0,0,1,0-3.667h10.929a1.833,1.833,0,0,1,0,3.667Zm0-5.5a1.836,1.836,0,0,1-1.822-1.833,8.382,8.382,0,0,0-3.115-6.05A14.814,14.814,0,0,1,778.5,1547a13.927,13.927,0,0,1,10.128,3.979,15.031,15.031,0,0,1,4.444,10.688,14.474,14.474,0,0,1-4.207,10.486,8.2,8.2,0,0,0-3.078,6.014,1.836,1.836,0,0,1-1.822,1.833Zm5.464-29.334a11.541,11.541,0,0,0-10.929,11,11.8,11.8,0,0,0,3.115,7.864,12.869,12.869,0,0,1,4.008,6.8h7.613a12.606,12.606,0,0,1,4.1-6.82h-.055a10.911,10.911,0,0,0,3.078-7.846,11.335,11.335,0,0,0-3.406-8.067,10.226,10.226,0,0,0-7.169-2.94C778.736,1550.66,778.618,1550.662,778.5,1550.667Zm20.036,12.834a1.834,1.834,0,0,1,0-3.667h3.643a1.834,1.834,0,0,1,0,3.667Zm-43.714,0a1.834,1.834,0,0,1,0-3.667h3.642a1.834,1.834,0,0,1,0,3.667Zm36.556-14.8a1.841,1.841,0,0,1,0-2.6l2.586-2.585a1.823,1.823,0,0,1,2.569,0,1.851,1.851,0,0,1,0,2.585l-2.569,2.6a1.814,1.814,0,0,1-1.279.531h-.027A1.811,1.811,0,0,1,791.378,1548.706Zm-28.342,0-2.568-2.6a1.834,1.834,0,0,1,1.382-3.025,1.814,1.814,0,0,1,1.185.44l2.587,2.585a1.841,1.841,0,0,1,0,2.6,1.818,1.818,0,0,1-1.28.531h-.027A1.815,1.815,0,0,1,763.036,1548.706Zm13.643-7.205v-3.667a1.821,1.821,0,1,1,3.642,0v3.667a1.821,1.821,0,1,1-3.642,0Z" fill="#00409b"/></g></svg>