<?xml version="1.0" encoding="UTF-8" standalone="no"?>
<!DOCTYPE svg PUBLIC "-//W3C//DTD SVG 1.1//EN" "http://www.w3.org/Graphics/SVG/1.1/DTD/svg11.dtd">
<svg width="100%" height="100%" viewBox="0 0 15 16" version="1.1" xmlns="http://www.w3.org/2000/svg" xmlns:xlink="http://www.w3.org/1999/xlink" xml:space="preserve" xmlns:serif="http://www.serif.com/" style="fill-rule:evenodd;clip-rule:evenodd;stroke-linejoin:round;stroke-miterlimit:2;">
    <g id="Vector_Smart_Object" transform="matrix(1,0,0,1,-633,-960)">
        <path id="Color_Overlay" d="M642.256,974L642.256,971.043L638.743,971.043L638.743,974C638.743,974.01 638.743,974.021 638.743,974.031C638.743,974.559 638.309,974.994 637.781,974.994C637.252,974.994 636.818,974.559 636.818,974.031C636.818,974.021 636.818,974.01 636.818,974L636.818,971.044L633.961,971.044C633.443,971.004 633.038,970.566 633.038,970.047C633.038,969.528 633.443,969.09 633.961,969.05L636.818,969.05L636.818,965.95L633.961,965.95C633.446,965.907 633.045,965.471 633.045,964.953C633.045,964.436 633.446,964 633.961,963.957L636.818,963.957L636.818,961C636.818,960.99 636.818,960.979 636.818,960.969C636.818,960.441 637.252,960.006 637.781,960.006C638.309,960.006 638.743,960.441 638.743,960.969C638.743,960.979 638.743,960.99 638.743,961L638.743,963.967L642.256,963.967L642.256,961C642.256,960.99 642.256,960.979 642.256,960.969C642.256,960.441 642.69,960.006 643.218,960.006C643.747,960.006 644.181,960.441 644.181,960.969C644.181,960.979 644.181,960.99 644.181,961L644.181,963.967L647.038,963.967C647.553,964.01 647.954,964.446 647.954,964.964C647.954,965.481 647.553,965.917 647.038,965.96L644.181,965.96L644.181,969.06L647.038,969.06C647.556,969.1 647.961,969.538 647.961,970.057C647.961,970.576 647.556,971.014 647.038,971.054L644.181,971.054L644.181,974C644.181,974.01 644.181,974.021 644.181,974.031C644.181,974.559 643.747,974.994 643.218,974.994C642.69,974.994 642.256,974.559 642.256,974.031C642.256,974.021 642.256,974.01 642.256,974ZM638.743,969.05L642.256,969.05L642.256,965.95L638.743,965.95L638.743,969.05Z" style="fill:rgb(240,106,8);fill-rule:nonzero;"/>
    </g>
</svg>
