<?xml version="1.0" encoding="UTF-8" standalone="no"?>
<!DOCTYPE svg PUBLIC "-//W3C//DTD SVG 1.1//EN" "http://www.w3.org/Graphics/SVG/1.1/DTD/svg11.dtd">
<svg width="100%" height="100%" viewBox="0 0 45 53" version="1.1" xmlns="http://www.w3.org/2000/svg" xmlns:xlink="http://www.w3.org/1999/xlink" xml:space="preserve" xmlns:serif="http://www.serif.com/" style="fill-rule:evenodd;clip-rule:evenodd;stroke-linejoin:round;stroke-miterlimit:2;">
    <g id="Vector_Smart_Object" transform="matrix(1,0,0,1,-1361,-485)">
        <path id="Color_Overlay" d="M1361.12,493.537C1369.48,494.609 1377.85,491.476 1383.45,485.178C1389.08,491.436 1397.42,494.561 1405.78,493.537C1405.95,493.537 1409.24,532.309 1383.62,538.001C1358,532.309 1361.12,493.537 1361.12,493.537ZM1383.62,533.376C1403.87,528.93 1401.27,496.561 1401.27,496.561C1390.54,497.806 1384.31,491.225 1383.62,490.161C1379.03,494.989 1372.41,497.366 1365.79,496.561C1359.18,495.756 1363.37,528.93 1383.62,533.376ZM1382.41,529.641L1397.64,512.389C1395.91,519.682 1392.27,528.04 1383.62,529.997C1383.21,529.902 1382.81,529.784 1382.41,529.641ZM1375.83,525.728L1398.33,500.651C1398.33,501.896 1398.33,503.851 1398.16,506.164L1378.95,528.039C1377.77,527.473 1376.71,526.689 1375.83,525.728ZM1368.73,499.407C1374.21,500.162 1379.72,498.162 1383.44,494.071C1386.34,497.295 1390.37,499.273 1394.69,499.584L1373.58,522.884C1367.7,513.635 1368.74,499.406 1368.74,499.406L1368.73,499.407Z" style="fill:rgb(1,58,151);fill-rule:nonzero;"/>
    </g>
</svg>
