<?xml version="1.0" encoding="UTF-8" standalone="no"?>
<!DOCTYPE svg PUBLIC "-//W3C//DTD SVG 1.1//EN" "http://www.w3.org/Graphics/SVG/1.1/DTD/svg11.dtd">
<svg width="100%" height="100%" viewBox="0 0 42 42" version="1.1" xmlns="http://www.w3.org/2000/svg" xmlns:xlink="http://www.w3.org/1999/xlink" xml:space="preserve" xmlns:serif="http://www.serif.com/" style="fill-rule:evenodd;clip-rule:evenodd;stroke-linejoin:round;stroke-miterlimit:2;">
    <g id="Vector_Smart_Object" transform="matrix(1,0,0,1,-378,-1439)">
        <path id="Color_Overlay" d="M381.326,1477.67C376.921,1473.26 376.921,1466 381.326,1461.58C382.911,1460.02 384.926,1458.96 387.114,1458.55C384.608,1454.8 383.177,1451.25 383.247,1448.6C383.243,1448.53 383.241,1448.46 383.241,1448.38C383.241,1446.11 385.109,1444.25 387.379,1444.25C387.452,1444.25 387.526,1444.25 387.599,1444.25C390.787,1444.23 395.512,1446.4 400.339,1450.2C400.574,1449.74 400.713,1449.23 400.748,1448.71C400.748,1448.68 400.748,1448.65 400.748,1448.62C400.748,1443.33 405.097,1438.98 410.383,1438.98C415.668,1438.98 420.018,1443.33 420.018,1448.62C420.018,1453.9 415.668,1458.25 410.383,1458.25C410.351,1458.25 410.319,1458.25 410.287,1458.25C409.767,1458.29 409.26,1458.43 408.796,1458.66C412.629,1463.52 414.835,1468.22 414.749,1471.4C414.753,1471.48 414.755,1471.55 414.755,1471.62C414.755,1473.89 412.889,1475.76 410.622,1475.76C410.548,1475.76 410.474,1475.76 410.4,1475.75L410.206,1475.75C407.585,1475.75 404.117,1474.32 400.452,1471.88C400.037,1474.07 398.98,1476.08 397.416,1477.67C393,1482.08 385.742,1482.08 381.326,1477.67L381.326,1477.67ZM389.242,1463.49C385.926,1463.55 383.236,1466.3 383.236,1469.62C383.236,1472.98 386.004,1475.75 389.368,1475.75C392.729,1475.75 395.495,1472.99 395.5,1469.62C395.496,1468.99 395.387,1468.35 395.179,1467.75C394.501,1467.13 393.825,1466.51 393.159,1465.84C392.493,1465.17 391.866,1464.5 391.259,1463.82C390.613,1463.6 389.936,1463.49 389.254,1463.49L389.242,1463.49ZM406.512,1467.51C406.184,1467.84 405.999,1468.29 405.999,1468.75C405.999,1469.71 406.789,1470.5 407.749,1470.5C408.709,1470.5 409.499,1469.71 409.499,1468.75C409.499,1467.79 408.709,1467 407.749,1467C407.286,1467 406.841,1467.18 406.513,1467.51L406.512,1467.51ZM408.312,1441.01C404.862,1442 402.473,1445.19 402.493,1448.78C402.387,1451.83 399.004,1454.75 397.97,1455.57C397.658,1455.82 397.563,1456.26 397.741,1456.62C398.64,1458.7 400.298,1460.36 402.376,1461.26C402.738,1461.44 403.178,1461.34 403.434,1461.03C404.255,1460 407.172,1456.61 410.222,1456.51C413.811,1456.53 416.999,1454.14 417.988,1450.69C418.707,1447.97 417.927,1445.06 415.941,1443.06C414.461,1441.58 412.45,1440.75 410.357,1440.76C409.669,1440.76 408.983,1440.84 408.316,1441.01L408.312,1441.01ZM389.012,1450.01C388.682,1450.34 388.496,1450.79 388.496,1451.26C388.496,1452.22 389.287,1453.01 390.249,1453.01C391.211,1453.01 392.002,1452.22 392.002,1451.26C392.002,1450.29 391.211,1449.5 390.249,1449.5C390.249,1449.5 390.249,1449.5 390.249,1449.5C389.785,1449.5 389.34,1449.69 389.012,1450.01ZM404.25,1448.63C404.254,1445.27 407.016,1442.51 410.375,1442.5C410.855,1442.5 411.25,1442.9 411.25,1443.38C411.25,1443.86 410.855,1444.25 410.375,1444.25C407.976,1444.25 406.002,1446.23 406,1448.63C406,1449.11 405.605,1449.5 405.125,1449.5C404.645,1449.5 404.25,1449.11 404.25,1448.63L404.25,1448.63Z" style="fill:rgb(1,58,151);fill-rule:nonzero;"/>
    </g>
</svg>
