<svg xmlns="http://www.w3.org/2000/svg" width="46" height="53" viewBox="0 0 46 53">
  <path id="Color_Overlay" data-name="Color Overlay" d="M937.122,493.537a26.355,26.355,0,0,0,22.823-8.359v0a26.647,26.647,0,0,0,22.824,8.359c.177,0,3.539,38.772-22.647,44.464C933.937,532.309,937.122,493.537,937.122,493.537Zm23,39.839c20.7-4.446,18.047-36.815,18.047-36.815-10.97,1.245-17.339-5.336-18.047-6.4a21.793,21.793,0,0,1-18.223,6.4S939.422,528.93,960.123,533.376Zm-1.238-3.735,15.57-17.252c-1.769,7.293-5.486,15.651-14.332,17.608A11.011,11.011,0,0,1,958.884,529.641Zm-6.723-3.913,23-25.077c0,1.245,0,3.2-.177,5.513L955.346,528.04A10.492,10.492,0,0,1,952.161,525.728Z" transform="translate(-937 -485)" fill="#013a97"/>
</svg>
