<?xml version="1.0" encoding="UTF-8" standalone="no"?>
<!DOCTYPE svg PUBLIC "-//W3C//DTD SVG 1.1//EN" "http://www.w3.org/Graphics/SVG/1.1/DTD/svg11.dtd">
<svg width="100%" height="100%" viewBox="0 0 38 39" version="1.1" xmlns="http://www.w3.org/2000/svg" xmlns:xlink="http://www.w3.org/1999/xlink" xml:space="preserve" xmlns:serif="http://www.serif.com/" style="fill-rule:evenodd;clip-rule:evenodd;stroke-linejoin:round;stroke-miterlimit:2;">
    <g id="Vector_Smart_Object" transform="matrix(1,0,0,1,-1193,-3163)">
        <path id="Color_Overlay" d="M1218.33,3201L1218.33,3196.78L1226.78,3196.78L1226.78,3188.33L1231,3188.33L1231,3196.78C1231,3199.09 1229.09,3201 1226.78,3201L1218.33,3201ZM1205.67,3201L1197.22,3201C1194.91,3201 1193,3199.1 1193,3196.78C1193,3196.78 1193,3196.78 1193,3196.78L1193,3188.33L1197.22,3188.33L1197.22,3196.78L1205.67,3196.78L1205.67,3201ZM1205.67,3182C1205.67,3178.53 1208.53,3175.67 1212,3175.67C1215.48,3175.67 1218.33,3178.53 1218.33,3182C1218.33,3185.47 1215.48,3188.33 1212,3188.33C1208.53,3188.33 1205.67,3185.47 1205.67,3182L1205.67,3182ZM1226.78,3175.67L1226.78,3167.22L1218.33,3167.22L1218.33,3163L1226.78,3163C1229.1,3163 1231,3164.91 1231,3167.22L1231,3175.67L1226.78,3175.67ZM1193,3175.67L1193,3167.22C1193,3167.22 1193,3167.22 1193,3167.22C1193,3164.91 1194.91,3163 1197.22,3163L1205.67,3163L1205.67,3167.22L1197.22,3167.22L1197.22,3175.67L1193,3175.67Z" style="fill:rgb(1,58,151);fill-rule:nonzero;"/>
    </g>
</svg>
