<svg xmlns="http://www.w3.org/2000/svg" width="31" height="31" viewBox="0 0 31 31">
  <g id="Vector_Smart_Object" data-name="Vector Smart Object" transform="translate(0)">
    <path id="Path_254" data-name="Path 254" d="M23.939,28.989a.583.583,0,0,1-.358.074c-1.93,0-7.077-3.1-12.814-8.832a49.675,49.675,0,0,1-7.251-8.9c-1.8-3-1.65-4.129-1.51-4.269L5.594,3.475a10.58,10.58,0,0,1,2.83,2.169,10.606,10.606,0,0,1,2.17,2.83l-1.669,1.67c-1.788,1.789.491,5.695,3.363,8.565,2.458,2.459,5.107,3.986,6.911,3.986a2.252,2.252,0,0,0,1.656-.623L22.525,20.4a10.6,10.6,0,0,1,2.832,2.17,10.6,10.6,0,0,1,2.169,2.83Zm-1.584-10.58a1.306,1.306,0,0,0-.953.376L19.486,20.7a.5.5,0,0,1-.287.056c-1.055,0-3.3-1.174-5.541-3.418-3.015-3.013-3.68-5.51-3.364-5.827L12.213,9.6c1.263-1.265-.973-3.878-2.418-5.323C9.139,3.618,6.887,1.48,5.426,1.48a1.3,1.3,0,0,0-.953.376L.637,5.69C-.514,6.841-.1,9.074,1.858,12.329A51.723,51.723,0,0,0,9.4,21.6c4.679,4.678,10.88,9.4,14.184,9.4h0a2.338,2.338,0,0,0,1.727-.641l3.835-3.835c1.265-1.262-.973-3.876-2.418-5.322C26.069,20.547,23.818,18.409,22.355,18.409Z" fill="#1d1d1b"/>
    <path id="Path_255" data-name="Path 255" d="M27.727,3.272A11.1,11.1,0,0,0,19.821,0h0a.969.969,0,1,0,0,1.938h0a9.235,9.235,0,0,1,9.242,9.242.969.969,0,0,0,1.938,0A11.1,11.1,0,0,0,27.727,3.272Z" fill="#1d1d1b"/>
    <path id="Path_256" data-name="Path 256" d="M18.541,5.769h0a6.679,6.679,0,0,1,6.688,6.688.969.969,0,0,0,1.938,0,8.618,8.618,0,0,0-8.626-8.626h0a.969.969,0,1,0,0,1.938Z" fill="#1d1d1b"/>
    <path id="Path_257" data-name="Path 257" d="M17.263,9.6h0A4.128,4.128,0,0,1,21.4,13.736a.969.969,0,0,0,1.938,0,6.069,6.069,0,0,0-6.072-6.073h0a.969.969,0,1,0,0,1.938Z" fill="#1d1d1b"/>
  </g>
</svg>
