<svg xmlns="http://www.w3.org/2000/svg" xmlns:xlink="http://www.w3.org/1999/xlink" width="30" height="30" viewBox="0 0 30 30">
  <defs>
    <clipPath id="clip-path">
      <rect id="Rectangle_717" data-name="Rectangle 717" width="30" height="30" fill="rgba(0,0,0,0)"/>
    </clipPath>
  </defs>
  <g id="Group_366" data-name="Group 366" clip-path="url(#clip-path)">
    <path id="Path_2040" data-name="Path 2040" d="M35.638,15A15,15,0,0,0,15.211,1.016V28.984A15,15,0,0,0,35.638,15" transform="translate(-5.638 0)" fill="#e0001a"/>
    <path id="Path_2041" data-name="Path 2041" d="M0,15.6A15,15,0,0,0,9.573,29.583V1.615A15,15,0,0,0,0,15.6" transform="translate(0 -0.599)" fill="#2c5725"/>
    <path id="Path_2042" data-name="Path 2042" d="M17.128,25.7c-2.375-.071-13.262-6.872-13.337-7.955l.6-1c1.08,1.57,12.21,8.184,13.3,7.95Z" transform="translate(-1.405 -6.207)" fill="#fee616"/>
    <path id="Path_2043" data-name="Path 2043" d="M4.2,16.419c-.213.574,2.842,2.465,6.515,4.7s6.843,3.618,7.078,3.42a1.9,1.9,0,0,0,.105-.2c-.043.067-.15.087-.318.039A36.888,36.888,0,0,1,10.8,20.959c-3.206-1.947-6-3.74-6.429-4.5a.472.472,0,0,1-.048-.224H4.31l-.092.162L4.2,16.42Zm12.918,9.126c-.04.074-.115.076-.257.061-.889-.1-3.584-1.411-6.773-3.321-3.71-2.224-6.774-4.248-6.442-4.778l.09-.16.018.005c-.3.9,6.048,4.528,6.421,4.76,3.672,2.277,6.768,3.607,7.042,3.261Z" transform="translate(-1.344 -6.017)" fill="#fee616"/>
    <path id="Path_2044" data-name="Path 2044" d="M16.963,25.629c-.032,0-.07,0-.113-.008-.905-.1-3.63-1.436-6.781-3.323-4.21-2.523-6.326-4.041-6.47-4.642a.214.214,0,0,1,.02-.167l.089-.159a.232.232,0,0,0,0,.052l-.05.13a.167.167,0,0,0-.016.135c.141.588,2.251,2.1,6.449,4.613,3.146,1.884,5.864,3.217,6.763,3.317.134.014.2.01.235-.048l.06-.1a.282.282,0,0,1-.119.02c-.749,0-3.525-1.242-6.876-3.319l-.252-.15c-4.1-2.417-6.181-3.951-6.19-4.56.084.4,1.046,1.476,6.212,4.521l.254.15c3.343,2.073,6.109,3.312,6.851,3.312a.206.206,0,0,0,.16-.046l0,.006a.068.068,0,0,1-.014.047l-.047.145a.17.17,0,0,1-.166.078m.743-1.055c-.552,0-3.558-1.341-7.01-3.442C6.741,18.725,3.959,16.977,4.171,16.4l.106-.189.008.011-.06.172c-.227.6,3.344,2.777,6.494,4.7,3.446,2.1,6.44,3.436,6.987,3.436a.1.1,0,0,0,.065-.014l.06-.111a.413.413,0,0,1-.265-.009,37.423,37.423,0,0,1-6.794-3.424C7.848,19.2,4.8,17.272,4.336,16.462a.5.5,0,0,1-.051-.235c.043.078.063.164.09.212.458.806,3.672,2.825,6.421,4.494a37.518,37.518,0,0,0,6.784,3.419c.146.042.253.029.293-.03.047.016.048.018-.043.179-.048.065-.079.074-.123.074" transform="translate(-1.331 -6.01)" fill="#050605"/>
    <path id="Path_2045" data-name="Path 2045" d="M11.135,18.376a22.384,22.384,0,0,0,7-1l-.363-.592c-1,.552-3.946.916-6.653.97-3.2-.029-5.46-.328-6.594-1.088l-.343.629a17.281,17.281,0,0,0,6.957,1.077" transform="translate(-1.549 -6.178)" fill="#fee616"/>
    <path id="Path_2046" data-name="Path 2046" d="M18.173,17.351a10.222,10.222,0,0,1-2.779.752,28.621,28.621,0,0,1-4.323.313,30.352,30.352,0,0,1-4.141-.262,12.026,12.026,0,0,1-2.9-.77c.03-.061.05-.105.081-.162a12.594,12.594,0,0,0,2.85.756,30.351,30.351,0,0,0,4.109.263,28.971,28.971,0,0,0,4.291-.319,6.955,6.955,0,0,0,2.7-.775Zm-.319-.6a8.4,8.4,0,0,1-2.658.717,28.577,28.577,0,0,1-4.108.287A27.351,27.351,0,0,1,7.121,17.5a10.941,10.941,0,0,1-2.767-.7c.031-.053.062-.105.1-.158a9.446,9.446,0,0,0,2.689.686,28.381,28.381,0,0,0,3.95.246,28.127,28.127,0,0,0,4.077-.29,7.128,7.128,0,0,0,2.573-.727Z" transform="translate(-1.492 -6.137)" fill="#fee616"/>
    <path id="Path_2047" data-name="Path 2047" d="M11.023,18.429a30.566,30.566,0,0,1-4.092-.262,12.215,12.215,0,0,1-2.881-.759l-.013-.1.053-.1a13.847,13.847,0,0,0,2.874.744,30.512,30.512,0,0,0,4.08.263,29.317,29.317,0,0,0,4.314-.318,7,7,0,0,0,2.684-.767l.155.206a8.8,8.8,0,0,1-2.8.786,28.836,28.836,0,0,1-4.327.313ZM4.1,17.233l-.053.151a14.469,14.469,0,0,0,2.889.738,30.461,30.461,0,0,0,4.085.262v.023l.052-.023a28.818,28.818,0,0,0,4.32-.313,10.539,10.539,0,0,0,2.764-.742l-.118-.18a6.105,6.105,0,0,1-2.675.785,29.163,29.163,0,0,1-4.295.32,30.638,30.638,0,0,1-4.113-.264A12.635,12.635,0,0,1,4.1,17.233m6.963.534a27.817,27.817,0,0,1-3.943-.256,10.819,10.819,0,0,1-2.64-.65l-.13-.049.056-.147c.006-.01.043-.05.055-.052a9.252,9.252,0,0,0,2.683.684,28.191,28.191,0,0,0,3.917.245,28.241,28.241,0,0,0,4.1-.29,7.246,7.246,0,0,0,2.562-.723l.149.2a7.325,7.325,0,0,1-2.674.751,28.489,28.489,0,0,1-4.112.288ZM4.443,16.654l-.064.149.12.017a10.727,10.727,0,0,0,2.629.647,27.824,27.824,0,0,0,3.937.256v.022l.028-.022a28.483,28.483,0,0,0,4.1-.288,8.31,8.31,0,0,0,2.647-.712l-.121-.163a6.284,6.284,0,0,1-2.55.738,28.042,28.042,0,0,1-4.081.29,28.433,28.433,0,0,1-3.952-.245,9.272,9.272,0,0,1-2.7-.689" transform="translate(-1.496 -6.127)" fill="#050605"/>
    <path id="Path_2048" data-name="Path 2048" d="M2.829,23.5c1.461.786,4.708,1.183,7.781,1.21,2.8,0,6.442-.433,7.8-1.156l-.038-.788c-.426.667-4.331,1.307-7.8,1.28S3.9,23.489,2.823,22.8Z" transform="translate(-1.046 -8.44)" fill="#fee616"/>
    <path id="Path_2049" data-name="Path 2049" d="M18.437,23.347v.189a8.578,8.578,0,0,1-3.1.876,32.024,32.024,0,0,1-4.815.33,30.249,30.249,0,0,1-4.57-.314,11.376,11.376,0,0,1-3.268-.883v-.219a11.619,11.619,0,0,0,3.295.928,29.993,29.993,0,0,0,4.543.313,31.866,31.866,0,0,0,4.789-.328,9.93,9.93,0,0,0,3.125-.892m0-.667v.188a8.551,8.551,0,0,1-3.1.876,31.858,31.858,0,0,1-4.815.33,30.142,30.142,0,0,1-4.57-.315,11.37,11.37,0,0,1-3.27-.882v-.219a11.632,11.632,0,0,0,3.293.928,30.081,30.081,0,0,0,4.545.313,31.656,31.656,0,0,0,4.788-.329,9.954,9.954,0,0,0,3.127-.89" transform="translate(-0.995 -8.398)" fill="#fee616"/>
    <path id="Path_2050" data-name="Path 2050" d="M10.509,24.764a30.368,30.368,0,0,1-4.574-.315,11.537,11.537,0,0,1-3.278-.885l-.01-.239a12.934,12.934,0,0,0,3.321.906,30.237,30.237,0,0,0,4.54.312,32.035,32.035,0,0,0,4.786-.327,9.928,9.928,0,0,0,3.113-.886l.038.206a8.254,8.254,0,0,1-3.119.9,32.162,32.162,0,0,1-4.818.33m-7.851-1.42.034.2a12.222,12.222,0,0,0,3.251.86,30.441,30.441,0,0,0,4.567.313,32.242,32.242,0,0,0,4.811-.329,8.8,8.8,0,0,0,3.086-.869l-.006-.174a8.893,8.893,0,0,1-3.1.914,32.039,32.039,0,0,1-4.792.327,30.236,30.236,0,0,1-4.547-.312,11.428,11.428,0,0,1-3.3-.932m7.853.752a30.377,30.377,0,0,1-4.574-.315A11.436,11.436,0,0,1,2.66,22.9l-.01-.239a12.956,12.956,0,0,0,3.319.906,30.26,30.26,0,0,0,4.542.312,31.83,31.83,0,0,0,4.784-.327,9.956,9.956,0,0,0,3.113-.885l.04.2a8.242,8.242,0,0,1-3.12.9,31.978,31.978,0,0,1-4.817.33M2.66,22.676l.033.2a12.131,12.131,0,0,0,3.251.861,30.383,30.383,0,0,0,4.567.315,31.882,31.882,0,0,0,4.81-.33,8.73,8.73,0,0,0,3.086-.869L18.4,22.68a8.945,8.945,0,0,1-3.1.912,31.812,31.812,0,0,1-4.79.329,30.254,30.254,0,0,1-4.548-.313,11.4,11.4,0,0,1-3.3-.931" transform="translate(-0.981 -8.398)" fill="#050605"/>
    <path id="Path_2051" data-name="Path 2051" d="M11.151,30.13A26.811,26.811,0,0,1,4.3,29.066l.444.694a18.38,18.38,0,0,0,6.438,1.052,16.468,16.468,0,0,0,6.361-1.039L18,29.053a24.2,24.2,0,0,1-6.847,1.077" transform="translate(-1.594 -10.768)" fill="#fee616"/>
    <path id="Path_2052" data-name="Path 2052" d="M17.632,29.557c-.067.1-.135.2-.2.3a18.157,18.157,0,0,1-2.4.617,21.813,21.813,0,0,1-3.951.362,18.984,18.984,0,0,1-6.562-1.124l-.094-.16.015-.024.157.061a21.137,21.137,0,0,0,6.5,1.074,22.078,22.078,0,0,0,3.874-.359,11.362,11.362,0,0,0,2.615-.718Zm.394-.651a.013.013,0,0,1,.005.006c-.049.084-.1.17-.153.256a16.716,16.716,0,0,1-3.039.677,23.957,23.957,0,0,1-3.731.317A25.535,25.535,0,0,1,4.17,29.124l-.089-.169a29.276,29.276,0,0,0,7.027,1.032,25.971,25.971,0,0,0,3.705-.319A19.224,19.224,0,0,0,17.84,29l-.011-.016Z" transform="translate(-1.513 -10.714)" fill="#fee616"/>
    <path id="Path_2053" data-name="Path 2053" d="M11.063,30.846h0A18.819,18.819,0,0,1,4.492,29.72l-.1-.168c.005-.009.03-.055.041-.055h0l.157.06A20.859,20.859,0,0,0,11.08,30.63h0a22.3,22.3,0,0,0,3.867-.358,10.806,10.806,0,0,0,2.609-.716.15.15,0,0,1,.04-.012l.008-.011.018.012,0,0c.011,0,.026,0,.021.008-.067.1-.135.2-.2.3a17.66,17.66,0,0,1-2.419.626,21.7,21.7,0,0,1-3.954.362M4.415,29.537l.1.152A19.317,19.317,0,0,0,11.063,30.8a21.994,21.994,0,0,0,3.945-.362,18.056,18.056,0,0,0,2.4-.616c.043-.069.093-.143.144-.22a11.565,11.565,0,0,1-2.6.708,22.249,22.249,0,0,1-3.816.359A21.026,21.026,0,0,1,4.571,29.6Zm6.683.633h0a25.937,25.937,0,0,1-6.945-1.038l-.1-.179a31.082,31.082,0,0,0,7.048,1,24.659,24.659,0,0,0,3.366-.273l.335-.047a19.555,19.555,0,0,0,2.986-.66l.222-.1L18,28.89l-.176.1a16.482,16.482,0,0,1-3.02.69l-.335.047A24.754,24.754,0,0,1,11.1,30a29.23,29.23,0,0,1-7.034-1.032l.113.137a26.24,26.24,0,0,0,6.92,1.026,22.251,22.251,0,0,0,3.287-.255l.44-.062a17.035,17.035,0,0,0,3.035-.675l.14-.244-.115.275a16.5,16.5,0,0,1-3.054.687l-.441.062a22.337,22.337,0,0,1-3.292.254Z" transform="translate(-1.501 -10.702)" fill="#050605"/>
    <path id="Path_2054" data-name="Path 2054" d="M10.669,11.7A6.994,6.994,0,1,1,3.682,18.7,6.989,6.989,0,0,1,10.669,11.7m0-.693A7.686,7.686,0,1,1,2.99,18.7a7.7,7.7,0,0,1,7.679-7.686" transform="translate(-1.108 -4.081)" fill="#fee616"/>
    <path id="Path_2055" data-name="Path 2055" d="M10.616,10.864a7.788,7.788,0,1,1-7.781,7.788,7.8,7.8,0,0,1,7.781-7.788m0,.172a7.616,7.616,0,1,1-7.61,7.615,7.642,7.642,0,0,1,7.61-7.615" transform="translate(-1.051 -4.027)" fill="#fee616"/>
    <path id="Path_2056" data-name="Path 2056" d="M10.6,26.45a7.811,7.811,0,1,1,7.8-7.81,7.816,7.816,0,0,1-7.8,7.81m0-15.577a7.766,7.766,0,1,0,7.759,7.766A7.771,7.771,0,0,0,10.6,10.874m0,15.4a7.638,7.638,0,1,1,7.633-7.638A7.644,7.644,0,0,1,10.6,26.278m0-15.232a7.594,7.594,0,1,0,7.588,7.594A7.6,7.6,0,0,0,10.6,11.046" transform="translate(-1.037 -4.014)" fill="#050605"/>
    <path id="Path_2057" data-name="Path 2057" d="M11.013,11.894a7.134,7.134,0,1,1-7.128,7.133,7.159,7.159,0,0,1,7.128-7.133m0,.171a6.962,6.962,0,1,1-6.957,6.962,6.987,6.987,0,0,1,6.957-6.962" transform="translate(-1.44 -4.409)" fill="#fee616"/>
    <path id="Path_2058" data-name="Path 2058" d="M11,26.171a7.157,7.157,0,1,1,7.15-7.157A7.162,7.162,0,0,1,11,26.171M11,11.9a7.112,7.112,0,1,0,7.1,7.112A7.117,7.117,0,0,0,11,11.9M11,26a6.984,6.984,0,1,1,6.978-6.985A6.99,6.99,0,0,1,11,26m0-13.924a6.94,6.94,0,1,0,6.933,6.939A6.945,6.945,0,0,0,11,12.074" transform="translate(-1.427 -4.395)" fill="#050605"/>
    <rect id="Rectangle_716" data-name="Rectangle 716" width="0.677" height="15.671" transform="translate(9.25 6.801)" fill="#fee616"/>
    <path id="Path_2059" data-name="Path 2059" d="M15.211,10.673h.17V26.5h-.17Zm-.662,0h.171V26.5h-.172Z" transform="translate(-5.392 -3.956)" fill="#fee616"/>
    <path id="Path_2060" data-name="Path 2060" d="M15.369,26.511H15.2L15.176,10.66l.193-.023.024,15.851a.02.02,0,0,1-.007.016.023.023,0,0,1-.016.007M15.345,10.66l-.147.023.024,15.806.124-.019Zm-.637,15.851h-.172L14.513,10.66l.194-.023.024,15.851a.02.02,0,0,1-.007.016.023.023,0,0,1-.016.007M14.684,10.66l-.148.023.023,15.806.127-.019Z" transform="translate(-5.379 -3.943)" fill="#050605"/>
    <path id="Path_2061" data-name="Path 2061" d="M2.791,21.849c.976-.9,4.576-1.483,7.771-1.468s6.977.673,7.8,1.449l.009.67c-.689-.648-3.628-1.422-7.8-1.431s-7.206.786-7.778,1.448Z" transform="translate(-1.034 -7.554)" fill="#fee616"/>
    <path id="Path_2062" data-name="Path 2062" d="M27.583,23.367l-.045-.579c0-.025.045-.025.045,0Z" transform="translate(-10.207 -8.439)" fill="#050605"/>
    <path id="Path_2063" data-name="Path 2063" d="M10.564,20.93a27.088,27.088,0,0,1,5.035.45,5.849,5.849,0,0,1,2.838,1.067v.2a6.232,6.232,0,0,0-2.871-1.1,26.776,26.776,0,0,0-5-.446,27.887,27.887,0,0,0-5.107.456c-1.11.22-2.59.659-2.775,1.091v-.211c.1-.3,1.2-.746,2.749-1.055a27.911,27.911,0,0,1,5.132-.456m0-.667a26.931,26.931,0,0,1,5.035.449,5.867,5.867,0,0,1,2.838,1.067v.2a6.227,6.227,0,0,0-2.869-1.1,26.845,26.845,0,0,0-5-.447,27.734,27.734,0,0,0-5.1.457c-1.071.2-2.611.658-2.784,1.089v-.211c.1-.295,1.226-.757,2.75-1.055a27.971,27.971,0,0,1,5.132-.454" transform="translate(-0.994 -7.51)" fill="#fee616"/>
    <path id="Path_2064" data-name="Path 2064" d="M2.669,22.661h0a.023.023,0,0,1-.018-.022v-.211c.11-.329,1.274-.779,2.767-1.077a28.042,28.042,0,0,1,5.137-.456,27.289,27.289,0,0,1,5.039.449,5.809,5.809,0,0,1,2.85,1.076l.006.218a6.95,6.95,0,0,0-2.9-1.077,26.651,26.651,0,0,0-4.939-.446,28,28,0,0,0-5.161.456c-1.21.24-2.589.679-2.759,1.077a.023.023,0,0,1-.021.013M10.55,21.07a26.922,26.922,0,0,1,5.006.446,6.415,6.415,0,0,1,2.884,1.107l-.04-.189a5.922,5.922,0,0,0-2.82-1.045,27.074,27.074,0,0,0-4.992-.449,28.177,28.177,0,0,0-5.166.456c-1.658.331-2.645.783-2.732,1.04v.122a6.407,6.407,0,0,1,2.748-1.03,27.971,27.971,0,0,1,5.111-.456m-7.88.924h0a.024.024,0,0,1-.018-.023v-.213c.113-.331,1.3-.79,2.767-1.077a28.122,28.122,0,0,1,5.137-.455,27.078,27.078,0,0,1,5.039.45,5.828,5.828,0,0,1,2.85,1.075l0,.217a6.963,6.963,0,0,0-2.9-1.076,26.774,26.774,0,0,0-4.958-.447,28.034,28.034,0,0,0-5.134.457c-1.227.232-2.612.689-2.766,1.076a.022.022,0,0,1-.021.014M10.551,20.4a26.947,26.947,0,0,1,5.007.447,6.418,6.418,0,0,1,2.882,1.106l-.039-.189a5.926,5.926,0,0,0-2.819-1.045,26.8,26.8,0,0,0-4.972-.449,28.162,28.162,0,0,0-5.187.454c-1.594.311-2.641.773-2.732,1.04v.121A6.253,6.253,0,0,1,5.448,20.86a27.905,27.905,0,0,1,5.1-.458" transform="translate(-0.981 -7.497)" fill="#050605"/>
    <path id="Path_2065" data-name="Path 2065" d="M11.068,14.85a16.748,16.748,0,0,1,6.577,1l.422.731a16.876,16.876,0,0,0-6.995-1.02c-2.66.016-5.5.292-6.931,1.055l.5-.843c1.17-.607,3.93-.916,6.423-.918" transform="translate(-1.535 -5.504)" fill="#fee616"/>
    <path id="Path_2066" data-name="Path 2066" d="M11.078,15.415a26.2,26.2,0,0,1,4.517.318,8.169,8.169,0,0,1,2.47.728l.125.22a9.081,9.081,0,0,0-2.619-.779,25.263,25.263,0,0,0-4.5-.31,25.945,25.945,0,0,0-4.555.309,8.035,8.035,0,0,0-2.453.765l.123-.234a8.181,8.181,0,0,1,2.3-.7,26.571,26.571,0,0,1,4.592-.315m0-.667a25.526,25.526,0,0,1,4.358.3,7.036,7.036,0,0,1,2.256.738l.183.29a5.962,5.962,0,0,0-2.513-.857,27.678,27.678,0,0,0-4.284-.3,25.988,25.988,0,0,0-4.382.323,7.122,7.122,0,0,0-2.176.672l.16-.243a7.744,7.744,0,0,1,1.988-.6,26.2,26.2,0,0,1,4.409-.322" transform="translate(-1.507 -5.466)" fill="#fee616"/>
    <path id="Path_2067" data-name="Path 2067" d="M18.2,16.691a.026.026,0,0,1-.012,0,9.006,9.006,0,0,0-2.612-.776,24.526,24.526,0,0,0-4.345-.31h-.316a25.385,25.385,0,0,0-4.383.309,7.957,7.957,0,0,0-2.442.761l.087-.263A8.251,8.251,0,0,1,6.491,15.7a26.076,26.076,0,0,1,4.6-.317h.1a26.028,26.028,0,0,1,4.424.32,8.055,8.055,0,0,1,2.483.735l.129.225a.023.023,0,0,1,0,.028.022.022,0,0,1-.016.006m-7.016-1.268h-.1A26.05,26.05,0,0,0,6.5,15.74a8.313,8.313,0,0,0-2.29.7l-.111.225a6.472,6.472,0,0,1,2.427-.8,25.422,25.422,0,0,1,4.391-.31h.316a24.571,24.571,0,0,1,4.353.311,9.916,9.916,0,0,1,2.553.737l-.083-.145a8.361,8.361,0,0,0-2.455-.717,25.94,25.94,0,0,0-4.417-.319m6.7.665a.023.023,0,0,1-.016-.007,6.048,6.048,0,0,0-2.5-.849,27.109,27.109,0,0,0-4.28-.3,25.989,25.989,0,0,0-4.378.323,7.316,7.316,0,0,0-2.168.669l.13-.274a7.61,7.61,0,0,1,2-.611,26.115,26.115,0,0,1,4.414-.322h.128a24.954,24.954,0,0,1,4.234.3,7,7,0,0,1,2.265.742l.189.3a.022.022,0,0,1-.005.03.023.023,0,0,1-.014,0m-6.8-1.2a27.209,27.209,0,0,1,4.288.3,7.356,7.356,0,0,1,2.407.76l-.1-.159a7.058,7.058,0,0,0-2.241-.728,24.991,24.991,0,0,0-4.226-.3h-.128a26.092,26.092,0,0,0-4.406.321,7.683,7.683,0,0,0-1.981.6l-.152.235A5.912,5.912,0,0,1,6.7,15.207a25.949,25.949,0,0,1,4.386-.323" transform="translate(-1.516 -5.453)" fill="#050605"/>
    <path id="Path_2068" data-name="Path 2068" d="M14.985,27.822a20.217,20.217,0,0,0-3.867-.294c-4.825.056-6.384.992-6.576,1.274l-.361-.587c1.23-.892,3.857-1.392,6.963-1.341a24.542,24.542,0,0,1,4.175.361Z" transform="translate(-1.55 -9.959)" fill="#fee616"/>
    <path id="Path_2069" data-name="Path 2069" d="M11.051,27.385a23.527,23.527,0,0,1,3.932.313l-.093.164a20.357,20.357,0,0,0-3.834-.3,18.521,18.521,0,0,0-5.151.6c-.5.138-1.315.456-1.4.719l-.091-.152c.027-.154.522-.477,1.448-.738a18.689,18.689,0,0,1,5.188-.613m.061-.676a24.09,24.09,0,0,1,4.223.367l-.1.17a21.987,21.987,0,0,0-4.119-.359,19.72,19.72,0,0,0-5.406.632c-.556.162-1.517.513-1.549.79l-.091-.162c.02-.252.852-.582,1.6-.8a19.861,19.861,0,0,1,5.438-.638" transform="translate(-1.51 -9.899)" fill="#fee616"/>
    <path id="Path_2070" data-name="Path 2070" d="M4.5,28.9a.02.02,0,0,1-.018-.011l-.091-.152c.028-.19.551-.514,1.46-.77a18.522,18.522,0,0,1,5.194-.614,23.6,23.6,0,0,1,3.936.313l-.077.2a21.541,21.541,0,0,0-3.682-.284h-.376a18.057,18.057,0,0,0-4.941.6c-.528.147-1.307.463-1.383.7A.025.025,0,0,1,4.5,28.9Zm6.544-1.5a18.506,18.506,0,0,0-5.182.612c-.938.264-1.409.587-1.431.721l.065.1c.16-.294,1.051-.6,1.4-.694a18.111,18.111,0,0,1,4.952-.6h.376a20.088,20.088,0,0,1,3.667.3l.07-.153a27.141,27.141,0,0,0-3.914-.281m-6.884.923a.021.021,0,0,1-.019-.011l-.091-.162c.024-.343,1.24-.722,1.612-.83a19.514,19.514,0,0,1,5.444-.639,24.1,24.1,0,0,1,4.227.368l-.081.2a23.633,23.633,0,0,0-4.139-.349,19.306,19.306,0,0,0-5.4.631c-.721.21-1.507.541-1.534.772a.022.022,0,0,1-.017.019h0m6.945-1.6a19.491,19.491,0,0,0-5.431.638c-.946.275-1.568.582-1.584.78l.063.106c.154-.341,1.4-.714,1.549-.757a19.382,19.382,0,0,1,5.412-.633,22.237,22.237,0,0,1,4.124.36l.072-.159a27.255,27.255,0,0,0-4.2-.335" transform="translate(-1.499 -9.887)" fill="#050605"/>
    <path id="Path_2071" data-name="Path 2071" d="M12.966,27.38a.1.1,0,0,1,.024-.059.076.076,0,0,1,.051-.024.061.061,0,0,1,.034.006.047.047,0,0,1,.021.025.073.073,0,0,1,.005.038.1.1,0,0,1-.011.039.077.077,0,0,1-.028.029.071.071,0,0,1-.035.011.054.054,0,0,1-.035-.006.053.053,0,0,1-.021-.025.065.065,0,0,1-.005-.035m.019,0a.057.057,0,0,0,.01.04.04.04,0,0,0,.034.011.048.048,0,0,0,.036-.018.07.07,0,0,0,.018-.044.062.062,0,0,0,0-.031.032.032,0,0,0-.015-.019.048.048,0,0,0-.024-.005A.054.054,0,0,0,13,27.33a.082.082,0,0,0-.019.048m.184.023.018,0a.022.022,0,0,0,.006.016.025.025,0,0,0,.018.005.042.042,0,0,0,.019-.006.017.017,0,0,0,.006-.011.008.008,0,0,0,0-.01l-.016-.005-.026-.006a.022.022,0,0,1-.009-.01.017.017,0,0,1,0-.014.018.018,0,0,1,.005-.013c0-.005.005-.008.009-.011l.011-.005.015,0a.039.039,0,0,1,.021,0,.017.017,0,0,1,.012.009.046.046,0,0,1,.005.016l-.018,0a.019.019,0,0,0-.006-.013.027.027,0,0,0-.015,0,.049.049,0,0,0-.018.005.021.021,0,0,0-.006.011v.006l.006,0,.015,0a.1.1,0,0,1,.025.008.02.02,0,0,1,.011.009.025.025,0,0,1,0,.014.03.03,0,0,1-.006.018.041.041,0,0,1-.017.013.059.059,0,0,1-.021.005.038.038,0,0,1-.029-.006.039.039,0,0,1-.011-.025m.177-.013.018,0a.051.051,0,0,1-.02.025.046.046,0,0,1-.03.01.038.038,0,0,1-.034-.013.047.047,0,0,1-.008-.039.065.065,0,0,1,.018-.042.054.054,0,0,1,.035-.016.042.042,0,0,1,.033.013.053.053,0,0,1,.008.041v.005l-.077,0a.038.038,0,0,0,.008.025.019.019,0,0,0,.02.008.025.025,0,0,0,.016-.005.058.058,0,0,0,.013-.018m-.053-.025.057,0a.031.031,0,0,0-.005-.021.022.022,0,0,0-.02-.009.03.03,0,0,0-.02.009.043.043,0,0,0-.011.023m.086.064h.016a.015.015,0,0,0,0,.011.033.033,0,0,0,.018,0,.042.042,0,0,0,.019-.005.032.032,0,0,0,.01-.015.112.112,0,0,0,0-.023.039.039,0,0,1-.03.015.03.03,0,0,1-.03-.014.056.056,0,0,1-.008-.036.114.114,0,0,1,.009-.028.055.055,0,0,1,.018-.02.041.041,0,0,1,.024-.008.033.033,0,0,1,.03.013V27.31h.015l-.01.09a.094.094,0,0,1-.009.035.053.053,0,0,1-.018.017.047.047,0,0,1-.026.008.038.038,0,0,1-.028-.008.024.024,0,0,1-.009-.025Zm.021-.064a.043.043,0,0,0,0,.03.023.023,0,0,0,.019.009.04.04,0,0,0,.021-.011.047.047,0,0,0,.012-.029.041.041,0,0,0-.005-.03.025.025,0,0,0-.02-.009.028.028,0,0,0-.02.01.052.052,0,0,0-.011.03m.09.049.014-.105h.016l0,.015a.033.033,0,0,1,.014-.013.037.037,0,0,1,.019-.006.025.025,0,0,1,.018.005.018.018,0,0,1,.009.013.043.043,0,0,1,.034-.019.026.026,0,0,1,.023.008.039.039,0,0,1,0,.026l-.009.072h-.018l.009-.066a.029.029,0,0,0,0-.015.008.008,0,0,0-.005-.008l-.006,0a.033.033,0,0,0-.023.008.042.042,0,0,0-.01.025l-.008.06H13.55l.009-.069a.026.026,0,0,0,0-.018.013.013,0,0,0-.013-.005.025.025,0,0,0-.014,0,.025.025,0,0,0-.011.011.081.081,0,0,0-.005.023l-.008.054Zm.239-.043h.018a.044.044,0,0,1-.019.025.046.046,0,0,1-.03.01.038.038,0,0,1-.033-.013.051.051,0,0,1-.009-.039.072.072,0,0,1,.02-.042.057.057,0,0,1,.037-.016.039.039,0,0,1,.031.014.051.051,0,0,1,.008.041v0l-.076,0a.041.041,0,0,0,.006.026.02.02,0,0,0,.02.008.025.025,0,0,0,.016-.005.043.043,0,0,0,.013-.016m-.052-.027.057,0a.026.026,0,0,0-.005-.019.021.021,0,0,0-.019-.01.035.035,0,0,0-.033.03Zm.087.06.014-.106H13.8l0,.015a.042.042,0,0,1,.034-.018.028.028,0,0,1,.018,0,.03.03,0,0,1,.01.008l0,.014s0,.009,0,.016l-.009.065H13.83l.009-.065a.035.035,0,0,0,0-.016.017.017,0,0,0-.006-.008s-.006,0-.011,0a.031.031,0,0,0-.02.008.038.038,0,0,0-.011.028l-.008.057Zm.15-.02V27.4H13.9a.016.016,0,0,1-.014,0,.019.019,0,0,1-.006-.008.175.175,0,0,1,0-.021l.009-.06h-.013l0-.014h.013l0-.026.019-.01-.005.037h.016v.014h-.018l-.009.061v.013h.015Zm.016-.038a.064.064,0,0,1,.021-.043.05.05,0,0,1,.035-.013.036.036,0,0,1,.031.014.047.047,0,0,1,.008.039.072.072,0,0,1-.01.032.054.054,0,0,1-.02.018.059.059,0,0,1-.026.008.042.042,0,0,1-.033-.014.046.046,0,0,1-.006-.04m.018,0a.035.035,0,0,0,0,.029.02.02,0,0,0,.019.01.033.033,0,0,0,.023-.01.053.053,0,0,0,.014-.032.051.051,0,0,0,0-.029.023.023,0,0,0-.02-.009.032.032,0,0,0-.023.01.048.048,0,0,0-.013.031m.219.016h.018a.064.064,0,0,1-.021.025.045.045,0,0,1-.03.009.035.035,0,0,1-.033-.014.048.048,0,0,1-.008-.04.065.065,0,0,1,.02-.04.05.05,0,0,1,.037-.015.033.033,0,0,1,.03.014.046.046,0,0,1,.008.039v.006h-.076a.042.042,0,0,0,.005.026.023.023,0,0,0,.02.009.041.041,0,0,0,.018-.005.093.093,0,0,0,.013-.016m-.052-.03h.055a.033.033,0,0,0,0-.02.024.024,0,0,0-.02-.01.036.036,0,0,0-.021.009.033.033,0,0,0-.011.021m.085.06.024-.144h.016l-.024.144Zm.064-.124,0-.02h.016l0,.02Zm-.02.124.016-.105h.018l-.018.105Zm.043,0,.018-.105h.015l0,.015a.037.037,0,0,1,.015-.013.03.03,0,0,1,.019-.005.023.023,0,0,1,.016.005.021.021,0,0,1,.009.014.043.043,0,0,1,.035-.019.026.026,0,0,1,.021.009.03.03,0,0,1,0,.026l-.011.072h-.018l.011-.066a.029.029,0,0,0,0-.015.008.008,0,0,0,0-.008.014.014,0,0,0-.01,0,.027.027,0,0,0-.02.008.039.039,0,0,0-.011.024l-.01.061H14.35l.01-.069a.027.027,0,0,0,0-.018.016.016,0,0,0-.014-.006.033.033,0,0,0-.014,0,.026.026,0,0,0-.01.013.054.054,0,0,0-.006.021l-.009.055Zm.184-.124,0-.02h.018l0,.02Zm-.02.124.018-.105h.016l-.016.105Zm.044,0,.02-.105h.015l0,.015a.04.04,0,0,1,.035-.016.035.035,0,0,1,.016,0,.02.02,0,0,1,.009.009.021.021,0,0,1,0,.013.144.144,0,0,1,0,.018l-.011.065h-.018l.011-.065a.039.039,0,0,0,0-.016.016.016,0,0,0-.005-.009l-.008,0a.042.042,0,0,0-.024.006.044.044,0,0,0-.014.028l-.01.057Zm.176-.01a.041.041,0,0,1-.02.011.05.05,0,0,1-.019,0,.035.035,0,0,1-.025-.009.026.026,0,0,1-.005-.021.035.035,0,0,1,.005-.014.071.071,0,0,1,.012-.012l.014-.005.015,0a.135.135,0,0,0,.031-.005v-.005a.02.02,0,0,0,0-.015.025.025,0,0,0-.018-.006.035.035,0,0,0-.019,0,.03.03,0,0,0-.011.015l-.016,0a.043.043,0,0,1,.011-.018.03.03,0,0,1,.016-.01.073.073,0,0,1,.024,0l.02,0c.005,0,.009.005.01.009s0,.008,0,.011a.132.132,0,0,1,0,.016l0,.025a.177.177,0,0,0-.005.031.043.043,0,0,0,0,.013h-.018a.047.047,0,0,1,0-.014m.006-.04a.108.108,0,0,1-.029.007l-.015,0a.013.013,0,0,0-.008.006l-.005.008a.021.021,0,0,0,0,.013.02.02,0,0,0,.014.005.051.051,0,0,0,.019,0,.04.04,0,0,0,.013-.013.047.047,0,0,0,.006-.018Zm.1.053,0-.014a.031.031,0,0,1-.03.015.032.032,0,0,1-.021-.008.033.033,0,0,1-.013-.019.23.23,0,0,1,0-.03.283.283,0,0,1,.011-.028.045.045,0,0,1,.019-.019.033.033,0,0,1,.024-.006.027.027,0,0,1,.015,0,.026.026,0,0,1,.01.01l.01-.052h.016l-.026.144Zm-.044-.053a.048.048,0,0,0,0,.031.022.022,0,0,0,.018.01.036.036,0,0,0,.021-.009.056.056,0,0,0,.013-.03.047.047,0,0,0,0-.031.019.019,0,0,0-.018-.011.028.028,0,0,0-.02.01.052.052,0,0,0-.014.029Zm.091,0a.063.063,0,0,1,.024-.042.055.055,0,0,1,.034-.011.033.033,0,0,1,.03.015.044.044,0,0,1,.006.039.082.082,0,0,1-.011.032.054.054,0,0,1-.02.018.062.062,0,0,1-.025.006.04.04,0,0,1-.031-.015.056.056,0,0,1-.006-.042m.018,0a.048.048,0,0,0,0,.031.024.024,0,0,0,.02.01.029.029,0,0,0,.023-.01.049.049,0,0,0,.014-.031.042.042,0,0,0,0-.029.021.021,0,0,0-.019-.01.03.03,0,0,0-.024.009.056.056,0,0,0-.014.03m.142.057L15,27.292h.015l0,.016a.055.055,0,0,1,.014-.015l.008,0a.038.038,0,0,1,.02.006l-.009.016-.008,0a.025.025,0,0,0-.016,0,.018.018,0,0,0-.008.009.1.1,0,0,0-.008.02L15,27.4Zm.14-.03.018,0a.052.052,0,0,1-.021.024.05.05,0,0,1-.03.009.04.04,0,0,1-.033-.016.051.051,0,0,1-.005-.04.077.077,0,0,1,.021-.041.054.054,0,0,1,.037-.013.035.035,0,0,1,.031.015.056.056,0,0,1,.005.042v0l-.076,0a.035.035,0,0,0,.005.026.021.021,0,0,0,.019.01.025.025,0,0,0,.016-.005.033.033,0,0,0,.014-.015m-.049-.032.055,0a.033.033,0,0,0,0-.02.025.025,0,0,0-.019-.011.035.035,0,0,0-.034.029m.082.033h.018a.023.023,0,0,0,0,.016.032.032,0,0,0,.018.006.025.025,0,0,0,.018-.005.016.016,0,0,0,.009-.011s0-.006,0-.009-.008,0-.016-.008l-.024-.009a.022.022,0,0,1-.009-.012.047.047,0,0,1,0-.014l.006-.013a.034.034,0,0,1,.01-.009A.031.031,0,0,1,15.2,27.3l.015,0a.067.067,0,0,1,.02.005.02.02,0,0,1,.012.01.023.023,0,0,1,0,.016l-.017,0a.023.023,0,0,0,0-.014.027.027,0,0,0-.015-.005.033.033,0,0,0-.018,0s-.006.005-.006.009,0,.005,0,.006a.013.013,0,0,0,.006.005l.014.005.024.009s.008.006.009.01a.024.024,0,0,1,0,.015.036.036,0,0,1-.009.016.043.043,0,0,1-.016.013.04.04,0,0,1-.021,0,.044.044,0,0,1-.029-.009.041.041,0,0,1-.008-.026m.09.076.029-.145h.015l0,.014.015-.013a.066.066,0,0,1,.018,0,.037.037,0,0,1,.022.008.034.034,0,0,1,.01.02.107.107,0,0,1,0,.028.117.117,0,0,1-.012.029.072.072,0,0,1-.02.019.056.056,0,0,1-.024.006.045.045,0,0,1-.014-.005.038.038,0,0,1-.01-.01l-.01.05Zm.034-.091a.04.04,0,0,0,0,.03.02.02,0,0,0,.018.01.032.032,0,0,0,.021-.009.056.056,0,0,0,.014-.031.048.048,0,0,0,0-.031.018.018,0,0,0-.016-.01.028.028,0,0,0-.021.01.056.056,0,0,0-.014.031m.158.024.017,0a.055.055,0,0,1-.021.024.06.06,0,0,1-.03.008.043.043,0,0,1-.033-.015.059.059,0,0,1-.005-.04.073.073,0,0,1,.021-.041.057.057,0,0,1,.037-.014.039.039,0,0,1,.031.016.053.053,0,0,1,.005.041v.005l-.075,0a.033.033,0,0,0,0,.028.02.02,0,0,0,.019.009.019.019,0,0,0,.016,0,.048.048,0,0,0,.015-.016m-.05-.03.055,0a.033.033,0,0,0,0-.021.02.02,0,0,0-.019-.011.034.034,0,0,0-.021.008.04.04,0,0,0-.013.022m.108-.059,0-.02h.018l-.005.02Zm-.025.124.021-.105h.016l-.02.105Zm.083-.013v.016h-.01l-.018,0a.013.013,0,0,1-.005-.009.052.052,0,0,1,0-.021l.011-.06h-.013l0-.014h.013l.005-.026.021-.01-.008.037h.017l0,.014h-.017l-.013.062v.009l0,0h.005s.005,0,.008,0m.08.006a.088.088,0,0,1-.021.011.049.049,0,0,1-.019,0,.032.032,0,0,1-.024-.009.028.028,0,0,1,0-.023.034.034,0,0,1,.006-.014.022.022,0,0,1,.01-.009.046.046,0,0,1,.014-.006h.015l.031-.005v-.005c0-.008,0-.013,0-.016s-.01-.006-.019-.008a.033.033,0,0,0-.018,0,.046.046,0,0,0-.013.016l-.016,0a.071.071,0,0,1,.011-.018.059.059,0,0,1,.018-.01l.023,0a.05.05,0,0,1,.021,0,.034.034,0,0,1,.01.009.037.037,0,0,1,0,.013s0,.008,0,.017l-.005.023c0,.016-.005.028-.005.031a.045.045,0,0,0,0,.013h-.018a.047.047,0,0,1,0-.014m.006-.039a.122.122,0,0,1-.029.005l-.015,0a.02.02,0,0,0-.009.005l0,.008a.015.015,0,0,0,0,.013.017.017,0,0,0,.014.005.042.042,0,0,0,.019,0,.031.031,0,0,0,.014-.011.047.047,0,0,0,.006-.018Zm.091.005a.064.064,0,0,1,.024-.042.049.049,0,0,1,.035-.01.037.037,0,0,1,.031.015.058.058,0,0,1,.005.04.082.082,0,0,1-.013.031.054.054,0,0,1-.02.018.061.061,0,0,1-.026.005.034.034,0,0,1-.031-.015.049.049,0,0,1-.005-.042m.018,0a.038.038,0,0,0,0,.03.022.022,0,0,0,.02.011.027.027,0,0,0,.023-.01.049.049,0,0,0,.015-.029.044.044,0,0,0,0-.03.022.022,0,0,0-.019-.012.032.032,0,0,0-.025.011.052.052,0,0,0-.014.029m.132.1.031-.145h.015l0,.014a.039.039,0,0,1,.014-.011.043.043,0,0,1,.018,0,.03.03,0,0,1,.021.008.037.037,0,0,1,.011.022.062.062,0,0,1,0,.026.062.062,0,0,1-.013.029.042.042,0,0,1-.02.019.039.039,0,0,1-.024.005.025.025,0,0,1-.014,0l-.009-.01-.011.051Zm.035-.091a.039.039,0,0,0,0,.03.019.019,0,0,0,.016.011.029.029,0,0,0,.021-.009.049.049,0,0,0,.015-.03.046.046,0,0,0,0-.03.019.019,0,0,0-.016-.012.026.026,0,0,0-.021.009.057.057,0,0,0-.015.03m.081.058.023-.105h.015l0,.017a.044.044,0,0,1,.014-.014.013.013,0,0,1,.011,0,.026.026,0,0,1,.016.006l-.009.017a.022.022,0,0,0-.008-.005.041.041,0,0,0-.015,0,.034.034,0,0,0-.009.01.094.094,0,0,0-.006.02l-.013.054H16Zm.069-.048a.066.066,0,0,1,.025-.043.052.052,0,0,1,.034-.009.037.037,0,0,1,.031.016.053.053,0,0,1,0,.04.082.082,0,0,1-.013.031.05.05,0,0,1-.02.016.067.067,0,0,1-.026.006.04.04,0,0,1-.031-.017.047.047,0,0,1,0-.04m.018,0a.044.044,0,0,0,0,.031.023.023,0,0,0,.02.01.023.023,0,0,0,.023-.009.046.046,0,0,0,.015-.029.047.047,0,0,0,0-.03.022.022,0,0,0-.019-.011.035.035,0,0,0-.024.009.057.057,0,0,0-.014.029m.111-.064,0-.02h.018l-.005.021Zm-.057.164.006-.015.005,0c.005,0,.009,0,.01,0a.039.039,0,0,0,.008-.018l.023-.11h.018l-.025.11a.052.052,0,0,1-.011.026.023.023,0,0,1-.021.009.037.037,0,0,1-.013,0m.149-.067.017,0a.048.048,0,0,1-.021.025.042.042,0,0,1-.03.008.04.04,0,0,1-.033-.017.052.052,0,0,1,0-.04.069.069,0,0,1,.021-.039.048.048,0,0,1,.038-.013.033.033,0,0,1,.03.015.055.055,0,0,1,0,.042v0l-.076,0a.042.042,0,0,0,0,.026.024.024,0,0,0,.019.01.022.022,0,0,0,.018,0,.033.033,0,0,0,.014-.015m-.049-.033.055,0a.029.029,0,0,0,0-.02.025.025,0,0,0-.019-.011.034.034,0,0,0-.021.008.037.037,0,0,0-.013.02" transform="translate(-4.805 -10.099)" fill="#050605"/>
    <path id="Path_2072" data-name="Path 2072" d="M18.375,27.478l.016,0a.059.059,0,0,1-.02.028.051.051,0,0,1-.031.009.037.037,0,0,1-.03-.016.054.054,0,0,1,0-.041.081.081,0,0,1,.013-.03.046.046,0,0,1,.02-.018.059.059,0,0,1,.026-.005.038.038,0,0,1,.025.01.04.04,0,0,1,.008.025l-.018,0a.021.021,0,0,0-.005-.016.014.014,0,0,0-.013-.006.031.031,0,0,0-.023.008.057.057,0,0,0-.015.03.053.053,0,0,0,0,.032.02.02,0,0,0,.018.01.035.035,0,0,0,.02-.005.045.045,0,0,0,.013-.019m.063.029v.016h-.01a.024.024,0,0,1-.016,0,.015.015,0,0,1-.006-.009.125.125,0,0,1,0-.021l.014-.06h-.013l0-.014h.013l.005-.026.02-.009-.009.037h.017l0,.014h-.018l-.014.061v.01l0,0h.013Zm.02-.036a.064.064,0,0,1,.025-.042.047.047,0,0,1,.034-.009.037.037,0,0,1,.03.016.053.053,0,0,1,0,.041.075.075,0,0,1-.013.03.045.045,0,0,1-.021.016.045.045,0,0,1-.025.005.039.039,0,0,1-.031-.016.047.047,0,0,1,0-.042m.018,0a.04.04,0,0,0,0,.03.027.027,0,0,0,.019.013.035.035,0,0,0,.024-.009.057.057,0,0,0,.015-.03.038.038,0,0,0,0-.03.023.023,0,0,0-.019-.013.032.032,0,0,0-.023.009.046.046,0,0,0-.015.03m.2.07,0-.013a.042.042,0,0,1-.032.014.033.033,0,0,1-.02-.009.033.033,0,0,1-.011-.02.057.057,0,0,1,0-.029.1.1,0,0,1,.011-.028.045.045,0,0,1,.019-.019.059.059,0,0,1,.025-.005.027.027,0,0,1,.015.005.041.041,0,0,1,.01.011l.011-.052h.016l-.033.144Zm-.042-.055a.047.047,0,0,0,0,.03.019.019,0,0,0,.018.011.029.029,0,0,0,.021-.008.063.063,0,0,0,.014-.061.017.017,0,0,0-.016-.011.025.025,0,0,0-.022.008.067.067,0,0,0-.015.031m.161.033.018,0a.079.079,0,0,1-.021.024.055.055,0,0,1-.032.005.037.037,0,0,1-.03-.016.056.056,0,0,1,0-.042.073.073,0,0,1,.024-.04.048.048,0,0,1,.037-.011.036.036,0,0,1,.029.018.05.05,0,0,1,0,.041v.005l-.074-.008a.033.033,0,0,0,0,.028.024.024,0,0,0,.018.011.047.047,0,0,0,.018,0,.033.033,0,0,0,.014-.015m-.048-.034.056.005a.037.037,0,0,0,0-.021.023.023,0,0,0-.019-.013.038.038,0,0,0-.022.006.047.047,0,0,0-.014.022m.245.037.018.006a.077.077,0,0,1-.031.034.058.058,0,0,1-.039.009.052.052,0,0,1-.033-.013.058.058,0,0,1-.015-.029.148.148,0,0,1,0-.04.1.1,0,0,1,.019-.038.056.056,0,0,1,.029-.023.07.07,0,0,1,.035-.006.045.045,0,0,1,.032.015.046.046,0,0,1,.013.033l-.019,0a.038.038,0,0,0-.009-.024.026.026,0,0,0-.021-.01.054.054,0,0,0-.029.005.062.062,0,0,0-.02.02.111.111,0,0,0-.011.028.1.1,0,0,0,0,.031.038.038,0,0,0,.01.023.036.036,0,0,0,.023.009.045.045,0,0,0,.028-.006.079.079,0,0,0,.022-.026Zm.034,0a.067.067,0,0,1,.026-.042.054.054,0,0,1,.034-.008.038.038,0,0,1,.031.018.053.053,0,0,1,0,.04.082.082,0,0,1-.015.031.054.054,0,0,1-.047.02.033.033,0,0,1-.029-.018.051.051,0,0,1,0-.042m.018,0a.044.044,0,0,0,0,.031.023.023,0,0,0,.018.013.038.038,0,0,0,.025-.009.049.049,0,0,0,.016-.029.04.04,0,0,0,0-.03.021.021,0,0,0-.018-.013.033.033,0,0,0-.023.009.043.043,0,0,0-.016.028m.081.064.038-.143h.016l-.038.145Zm.108.014,0-.015a.044.044,0,0,1-.035.014.06.06,0,0,1-.017-.005l-.009-.01a.05.05,0,0,1,0-.014.057.057,0,0,1,0-.016l.016-.064h.018l-.016.058a.092.092,0,0,0,0,.019.02.02,0,0,0,0,.012.016.016,0,0,0,.011.005.022.022,0,0,0,.015,0,.017.017,0,0,0,.013-.011.044.044,0,0,0,.009-.019l.015-.057.016,0-.028.1Zm.039.005L19.3,27.5l.016,0,0,.014.015-.01a.033.033,0,0,1,.019,0,.025.025,0,0,1,.018.006.028.028,0,0,1,.006.015.043.043,0,0,1,.035-.015.025.025,0,0,1,.021.011.036.036,0,0,1,0,.026l-.02.072h-.017l.018-.066a.046.046,0,0,0,0-.016.011.011,0,0,0,0-.008l-.006,0a.034.034,0,0,0-.024.005.038.038,0,0,0-.013.023l-.016.061-.016,0,.018-.067a.034.034,0,0,0,0-.019.018.018,0,0,0-.013-.008l-.014,0a.025.025,0,0,0-.011.011.049.049,0,0,0-.009.021l-.014.053Zm.175.023-.015,0,.04-.143.016,0-.014.05a.038.038,0,0,1,.047,0,.02.02,0,0,1,.01.013.04.04,0,0,1,0,.018.131.131,0,0,1,0,.022.072.072,0,0,1-.026.039.045.045,0,0,1-.034.011.025.025,0,0,1-.023-.019Zm.015-.053a.045.045,0,0,0,0,.028.019.019,0,0,0,.016.016.028.028,0,0,0,.023-.008.063.063,0,0,0,.017-.029.042.042,0,0,0,0-.031.018.018,0,0,0-.016-.013.024.024,0,0,0-.021.008.054.054,0,0,0-.016.028m.144.062a.129.129,0,0,1-.021.009h-.02a.029.029,0,0,1-.021-.013.022.022,0,0,1,0-.021.049.049,0,0,1,.008-.014.035.035,0,0,1,.011-.009l.014-.005h.015a.109.109,0,0,0,.032,0v0a.019.019,0,0,0,0-.017.023.023,0,0,0-.018-.008.026.026,0,0,0-.018,0,.034.034,0,0,0-.013.014l-.016,0a.043.043,0,0,1,.013-.016.03.03,0,0,1,.018-.009.053.053,0,0,1,.025,0,.066.066,0,0,1,.019.006.019.019,0,0,1,.009.009.021.021,0,0,1,0,.013.06.06,0,0,1,0,.017l-.006.024c-.005.016-.008.026-.009.031a.043.043,0,0,0,0,.013l-.018,0v-.013Zm.009-.04a.148.148,0,0,1-.03,0,.048.048,0,0,0-.015,0,.02.02,0,0,0-.009.005.019.019,0,0,0,0,.02.016.016,0,0,0,.014.006.028.028,0,0,0,.018,0,.025.025,0,0,0,.015-.01.081.081,0,0,0,.008-.018Zm.028.06.031-.1.015,0,0,.014a.037.037,0,0,1,.035-.011.027.027,0,0,1,.016.005.022.022,0,0,1,.009.012.047.047,0,0,1,0,.014.1.1,0,0,1-.005.016l-.019.064-.017,0,.02-.063a.057.057,0,0,0,0-.016.02.02,0,0,0-.005-.009l-.006-.005a.036.036,0,0,0-.025,0,.039.039,0,0,0-.016.025l-.018.057Zm.114-.037a.065.065,0,0,1,.028-.04.053.053,0,0,1,.034-.006.04.04,0,0,1,.03.019.055.055,0,0,1,0,.04.081.081,0,0,1-.015.031.089.089,0,0,1-.023.016.056.056,0,0,1-.025,0,.041.041,0,0,1-.029-.02.062.062,0,0,1,0-.043m.016,0a.044.044,0,0,0,0,.031.019.019,0,0,0,.018.013.027.027,0,0,0,.023-.006.055.055,0,0,0,.018-.029.041.041,0,0,0,0-.03.021.021,0,0,0-.017-.014.029.029,0,0,0-.024.008.05.05,0,0,0-.018.028" transform="translate(-6.784 -10.148)" fill="#050605"/>
    <path id="Path_2073" data-name="Path 2073" d="M21.258,28.089a.032.032,0,0,1-.018-.005.037.037,0,0,1-.014-.05l.425-.753a.036.036,0,0,1,.05-.014.037.037,0,0,1,.014.05l-.425.753a.038.038,0,0,1-.032.019" transform="translate(-7.866 -10.104)" fill="#e0001a"/>
    <path id="Path_2074" data-name="Path 2074" d="M4.492,16.293c2.391-.03,13.433,6.752,13.465,8l-.684,1.049c-.307-1.45-11.512-8.05-13.36-7.926Z" transform="translate(-1.45 -6.039)" fill="#fee616"/>
    <path id="Path_2075" data-name="Path 2075" d="M25.257,30.047l.541-.925a.024.024,0,0,1,.031-.007.023.023,0,0,1,.008.031Z" transform="translate(-9.361 -10.79)" fill="#050605"/>
    <path id="Path_2076" data-name="Path 2076" d="M3.746,17.307c.445-.3,3.706,1.152,7.117,3.211s6.656,4.4,6.362,4.835l-.1.152-.044.036c.009-.006.058-.067-.005-.228-.144-.479-2.451-2.32-6.279-4.633-3.732-2.226-6.841-3.569-7.152-3.185ZM17.927,24.3c.281-.554-2.744-2.835-6.494-5.055-3.837-2.176-6.6-3.457-7.106-3.074l-.113.2c0,.011.005-.013.028-.032a.5.5,0,0,1,.313-.076c.87.013,3.353,1.156,6.838,3.156,1.527.89,6.45,4.049,6.431,4.939,0,.076.006.092-.023.13Z" transform="translate(-1.352 -5.969)" fill="#fee616"/>
    <path id="Path_2077" data-name="Path 2077" d="M17.11,25.543l-.024-.029c-.006,0-.01,0-.006-.005s.047-.05-.012-.2c-.149-.49-2.587-2.395-6.269-4.621C7.646,18.8,4.732,17.438,3.872,17.438a.249.249,0,0,0-.2.057l0-.01a.077.077,0,0,1,.009-.03l.048-.172a.33.33,0,0,1,.2-.052c.871,0,3.922,1.429,6.946,3.254,3.064,1.859,6.241,4.085,6.386,4.742a.155.155,0,0,1-.016.125l-.1.152a.152.152,0,0,1-.031.016.107.107,0,0,1-.017.024M3.872,17.393c.868,0,3.791,1.368,6.95,3.253,3.742,2.262,6.136,4.137,6.289,4.645a.411.411,0,0,1,.033.153l.072-.116a.112.112,0,0,0,.011-.09c-.14-.638-3.384-2.9-6.365-4.713C7.844,18.7,4.8,17.276,3.939,17.276a.313.313,0,0,0-.169.035l-.059.116a.276.276,0,0,1,.161-.035m13.954,7.087a.026.026,0,0,1-.011,0l0,0-.006-.027h0l-.013.02.013-.02a.137.137,0,0,0,.006-.069c.018-.913-5-4.119-6.421-4.947-3.472-1.991-5.961-3.14-6.827-3.152a.471.471,0,0,0-.3.07H4.262a.332.332,0,0,1,.286-.116c.892.012,3.389,1.164,6.867,3.158,1.006.586,6.464,3.99,6.443,4.959v.019l.061-.093c.258-.509-2.59-2.716-6.486-5.023-4.122-2.337-6.627-3.417-7.082-3.076l-.093.173c-.02.007-.055.023-.055.014l.116-.216a.454.454,0,0,1,.291-.079c1.074,0,4.316,1.71,6.846,3.144,3.385,2,6.815,4.468,6.5,5.085l-.113.172a.023.023,0,0,1-.019.01" transform="translate(-1.363 -5.956)" fill="#050605"/>
    <path id="Path_2078" data-name="Path 2078" d="M7.792,20.931a4.665,4.665,0,0,0,9.331,0V14.707L7.791,14.7Z" transform="translate(-2.888 -5.447)" fill="#fff"/>
    <path id="Path_2079" data-name="Path 2079" d="M12.434,25.614a4.73,4.73,0,0,1-4.684-4.691V14.687l9.359-.015.026,6.254a4.7,4.7,0,0,1-4.7,4.688M17.081,14.7l-9.306.015L7.8,20.922a4.639,4.639,0,0,0,9.278,0Z" transform="translate(-2.872 -5.438)" fill="#050605"/>
    <path id="Path_2080" data-name="Path 2080" d="M8.071,21.062v0a4.476,4.476,0,0,0,8.953,0V15.027H8.076Zm7.153-4.227V20.68l0,.407a2.913,2.913,0,0,1-.019.334,2.6,2.6,0,0,1-.767,1.549,2.676,2.676,0,0,1-4.551-1.9V16.825Z" transform="translate(-2.991 -5.569)" fill="#e0001a"/>
    <path id="Path_2081" data-name="Path 2081" d="M12.537,25.536a4.516,4.516,0,0,1-4.5-4.482l.005-6.04L17.011,15l.02,6.063a4.5,4.5,0,0,1-4.494,4.477m4.453-10.52-8.927.019.015,6.017a4.456,4.456,0,0,0,8.912.008Zm-4.456,8.745a2.669,2.669,0,0,1-1.887-.8,2.7,2.7,0,0,1-.795-1.9V16.794l5.36.01.021,3.864,0,.408a2.949,2.949,0,0,1-.02.334,2.629,2.629,0,0,1-.772,1.563,2.677,2.677,0,0,1-1.9.787M9.892,16.834v4.229a2.665,2.665,0,0,0,.782,1.87,2.621,2.621,0,0,0,3.735.013,2.6,2.6,0,0,0,.76-1.539,2.853,2.853,0,0,0,.018-.329l0-4.253Z" transform="translate(-2.979 -5.558)" fill="#050605"/>
    <path id="Path_2082" data-name="Path 2082" d="M14.292,23.028h0a.659.659,0,0,0,.174.447.558.558,0,0,0,.833,0,.653.653,0,0,0,.173-.448v-.846H14.295l0,.847Z" transform="translate(-5.297 -8.222)" fill="#0a2275"/>
    <path id="Path_2083" data-name="Path 2083" d="M15.69,22.508a.117.117,0,1,0,.118.118.117.117,0,0,0-.118-.118" transform="translate(-5.772 -8.342)" fill="#fff"/>
    <path id="Path_2084" data-name="Path 2084" d="M15.171,23.007a.117.117,0,1,0,0,.234.117.117,0,0,0,0-.234" transform="translate(-5.579 -8.527)" fill="#fff"/>
    <path id="Path_2085" data-name="Path 2085" d="M15.69,23.528a.117.117,0,1,0,.116.118.118.118,0,0,0-.116-.118" transform="translate(-5.772 -8.72)" fill="#fff"/>
    <path id="Path_2086" data-name="Path 2086" d="M14.676,23.53a.116.116,0,1,0,.116.116.116.116,0,0,0-.116-.116" transform="translate(-5.396 -8.721)" fill="#fff"/>
    <path id="Path_2087" data-name="Path 2087" d="M14.674,22.508a.116.116,0,1,0,.116.116.116.116,0,0,0-.116-.116" transform="translate(-5.396 -8.342)" fill="#fff"/>
    <path id="Path_2088" data-name="Path 2088" d="M14.282,26.25h0a.655.655,0,0,0,.175.448.559.559,0,0,0,.833,0,.653.653,0,0,0,.172-.447V25.4H14.285Z" transform="translate(-5.293 -9.415)" fill="#0a2275"/>
    <path id="Path_2089" data-name="Path 2089" d="M15.682,25.731a.116.116,0,1,0,.116.116.116.116,0,0,0-.116-.116" transform="translate(-5.769 -9.537)" fill="#fff"/>
    <path id="Path_2090" data-name="Path 2090" d="M15.16,26.23a.116.116,0,1,0,.116.116.116.116,0,0,0-.116-.116" transform="translate(-5.576 -9.722)" fill="#fff"/>
    <path id="Path_2091" data-name="Path 2091" d="M15.68,26.751a.116.116,0,1,0,.116.116.116.116,0,0,0-.116-.116" transform="translate(-5.769 -9.915)" fill="#fff"/>
    <path id="Path_2092" data-name="Path 2092" d="M14.668,26.751a.117.117,0,1,0,.116.118.117.117,0,0,0-.116-.118" transform="translate(-5.393 -9.915)" fill="#fff"/>
    <path id="Path_2093" data-name="Path 2093" d="M14.665,25.729a.117.117,0,1,0,.116.116.118.118,0,0,0-.116-.116" transform="translate(-5.392 -9.536)" fill="#fff"/>
    <path id="Path_2094" data-name="Path 2094" d="M11.694,23.035h0a.656.656,0,0,0,.174.447.558.558,0,0,0,.833,0,.65.65,0,0,0,.173-.447v-.847H11.7Z" transform="translate(-4.334 -8.224)" fill="#0a2275"/>
    <path id="Path_2095" data-name="Path 2095" d="M13.092,22.516a.116.116,0,1,0,.118.116.117.117,0,0,0-.118-.116" transform="translate(-4.809 -8.345)" fill="#fff"/>
    <path id="Path_2096" data-name="Path 2096" d="M12.573,23.015a.116.116,0,1,0,.116.116.116.116,0,0,0-.116-.116" transform="translate(-4.617 -8.53)" fill="#fff"/>
    <path id="Path_2097" data-name="Path 2097" d="M13.092,23.536a.116.116,0,1,0,.116.116.116.116,0,0,0-.116-.116" transform="translate(-4.809 -8.723)" fill="#fff"/>
    <path id="Path_2098" data-name="Path 2098" d="M12.078,23.536a.117.117,0,1,0,.118.116.118.118,0,0,0-.118-.116" transform="translate(-4.434 -8.723)" fill="#fff"/>
    <path id="Path_2099" data-name="Path 2099" d="M12.076,22.514a.117.117,0,1,0,.118.116.117.117,0,0,0-.118-.116" transform="translate(-4.433 -8.345)" fill="#fff"/>
    <path id="Path_2100" data-name="Path 2100" d="M16.882,23.033h0a.654.654,0,0,0,.174.448.559.559,0,0,0,.833,0,.654.654,0,0,0,.173-.447v-.847H16.884l0,.847Z" transform="translate(-6.257 -8.223)" fill="#0a2275"/>
    <path id="Path_2101" data-name="Path 2101" d="M18.281,22.514a.116.116,0,1,0,.116.116.116.116,0,0,0-.116-.116" transform="translate(-6.733 -8.345)" fill="#fff"/>
    <path id="Path_2102" data-name="Path 2102" d="M17.76,23.013a.116.116,0,1,0,.118.116.117.117,0,0,0-.118-.116" transform="translate(-6.539 -8.53)" fill="#fff"/>
    <path id="Path_2103" data-name="Path 2103" d="M18.279,23.534a.116.116,0,1,0,.118.116.116.116,0,0,0-.118-.116" transform="translate(-6.732 -8.723)" fill="#fff"/>
    <path id="Path_2104" data-name="Path 2104" d="M17.267,23.536a.116.116,0,1,0,.116.116.116.116,0,0,0-.116-.116" transform="translate(-6.357 -8.723)" fill="#fff"/>
    <path id="Path_2105" data-name="Path 2105" d="M17.265,22.512a.117.117,0,1,0,0,.234.117.117,0,0,0,0-.234" transform="translate(-6.355 -8.344)" fill="#fff"/>
    <path id="Path_2106" data-name="Path 2106" d="M14.292,19.778h0a.653.653,0,0,0,.174.447.558.558,0,0,0,.833,0,.659.659,0,0,0,.173-.448v-.846H14.293Z" transform="translate(-5.297 -7.017)" fill="#0a2275"/>
    <path id="Path_2107" data-name="Path 2107" d="M15.69,19.257a.117.117,0,1,0,.116.118.117.117,0,0,0-.116-.118" transform="translate(-5.772 -7.138)" fill="#fff"/>
    <path id="Path_2108" data-name="Path 2108" d="M15.169,19.758a.116.116,0,1,0,.116.116.116.116,0,0,0-.116-.116" transform="translate(-5.579 -7.323)" fill="#fff"/>
    <path id="Path_2109" data-name="Path 2109" d="M15.688,20.277a.117.117,0,1,0,.118.118.118.118,0,0,0-.118-.118" transform="translate(-5.772 -7.516)" fill="#fff"/>
    <path id="Path_2110" data-name="Path 2110" d="M14.676,20.279a.117.117,0,1,0,.116.116.117.117,0,0,0-.116-.116" transform="translate(-5.396 -7.516)" fill="#fff"/>
    <path id="Path_2111" data-name="Path 2111" d="M14.674,19.257a.117.117,0,1,0,.116.116.116.116,0,0,0-.116-.116" transform="translate(-5.396 -7.138)" fill="#fff"/>
    <path id="Path_2112" data-name="Path 2112" d="M8.992,17.215a.544.544,0,0,1,.32-.538.537.537,0,0,1,.332.542Z" transform="translate(-3.333 -6.181)" fill="#fee616"/>
    <path id="Path_2113" data-name="Path 2113" d="M8.538,16.688l-.055.5h.325a.444.444,0,0,1,.321-.48.479.479,0,0,1,.322.48h.327l-.06-.5Z" transform="translate(-3.144 -6.184)" fill="#fee616"/>
    <path id="Path_2114" data-name="Path 2114" d="M9.8,17.2H9.451a.506.506,0,0,0-.324-.48.427.427,0,0,0-.3.461l-.345.018.035-.52,1.2-.02Zm-.706-.509-.555.009-.035.481.306-.021a.432.432,0,0,1,.284-.47m.062,0a.5.5,0,0,1,.315.491l.284-.018L9.7,16.676Z" transform="translate(-3.144 -6.173)" fill="#050605"/>
    <path id="Path_2115" data-name="Path 2115" d="M8.419,17.486H9.751a.057.057,0,0,1,.05.062.057.057,0,0,1-.05.06H8.419a.057.057,0,0,1-.051-.06.058.058,0,0,1,.051-.062" transform="translate(-3.101 -6.481)" fill="#fee616"/>
    <path id="Path_2116" data-name="Path 2116" d="M9.74,17.617H8.407a.082.082,0,0,1,0-.162H9.74a.082.082,0,0,1,0,.162m-1.332-.123v.084H9.74c.016,0,.031-.02.031-.042Z" transform="translate(-3.09 -6.47)" fill="#050605"/>
    <path id="Path_2117" data-name="Path 2117" d="M9.22,17.285a.345.345,0,0,1,.177-.334.349.349,0,0,1,.186.334Z" transform="translate(-3.417 -6.283)" fill="#fee616"/>
    <path id="Path_2118" data-name="Path 2118" d="M9.6,17.295H9.218a.347.347,0,0,1,.17-.372.345.345,0,0,1,.213.352Zm-.213-.336a.362.362,0,0,0-.15.316l.323-.018a.325.325,0,0,0-.174-.3" transform="translate(-3.416 -6.272)" fill="#050605"/>
    <path id="Path_2119" data-name="Path 2119" d="M8.465,16.361H9.742a.052.052,0,0,1,.048.055.053.053,0,0,1-.048.055H8.465a.056.056,0,0,1,0-.11" transform="translate(-3.12 -6.064)" fill="#fee616"/>
    <path id="Path_2120" data-name="Path 2120" d="M9.731,16.48H8.453a.075.075,0,0,1,0-.149H9.731A.071.071,0,0,1,9.8,16.4a.072.072,0,0,1-.068.076m-1.278-.11v.071H9.731a.034.034,0,0,0,.028-.037Z" transform="translate(-3.108 -6.053)" fill="#050605"/>
    <path id="Path_2121" data-name="Path 2121" d="M8.511,16.536H9.732a.057.057,0,0,1,0,.111H8.511a.057.057,0,0,1,0-.111" transform="translate(-3.137 -6.129)" fill="#fee616"/>
    <path id="Path_2122" data-name="Path 2122" d="M9.72,16.656H8.5a.076.076,0,0,1,0-.15H9.72a.076.076,0,0,1,0,.15M8.5,16.545v.072H9.72c.014,0,.027-.017.027-.037Z" transform="translate(-3.125 -6.118)" fill="#050605"/>
    <path id="Path_2123" data-name="Path 2123" d="M9.163,15.214h.1v.069h.07v-.07h.1v.07H9.5v-.07h.1v.158a.041.041,0,0,1-.043.041H9.208a.045.045,0,0,1-.045-.042Z" transform="translate(-3.396 -5.639)" fill="#fee616"/>
    <path id="Path_2124" data-name="Path 2124" d="M9.544,15.42H9.177l-.045-.061V15.2l.117-.02.02.088.05-.02L9.3,15.2l.118-.02.02.089.051-.02-.02-.05.118-.02.02.2ZM9.23,15.2l-.078.02.02.137.373.042.023-.041V15.2l-.079.02.02.05-.091.02L9.4,15.2l-.079.02.02.05-.089.02Z" transform="translate(-3.385 -5.627)" fill="#050605"/>
    <path id="Path_2125" data-name="Path 2125" d="M9.554,15.55l.021.508H9.238l.023-.508Z" transform="translate(-3.424 -5.763)" fill="#fee616"/>
    <path id="Path_2126" data-name="Path 2126" d="M9.6,16.066H9.238l0-.528.313-.018Zm-.062-.526-.274.018,0,.489.3-.018Z" transform="translate(-3.424 -5.752)" fill="#050605"/>
    <path id="Path_2127" data-name="Path 2127" d="M9.831,15.608h.094v.069h.069v-.07h.1v.07h.069v-.07h.1v.159a.041.041,0,0,1-.043.04h-.34a.043.043,0,0,1-.043-.042Z" transform="translate(-3.644 -5.785)" fill="#fee616"/>
    <path id="Path_2128" data-name="Path 2128" d="M10.2,15.814H9.843L9.8,15.753V15.6l.113-.02.02.088.049-.02-.02-.05.117-.02.02.089.048-.02-.02-.05.117-.02.02.2ZM9.894,15.6l-.074.02.02.137.363.042.023-.04V15.6l-.078.02.02.05-.088.02-.02-.089-.078.02.02.05-.088.02Z" transform="translate(-3.632 -5.773)" fill="#050605"/>
    <path id="Path_2129" data-name="Path 2129" d="M10.224,15.923l.011.274H9.912l.009-.274Z" transform="translate(-3.674 -5.902)" fill="#fee616"/>
    <path id="Path_2130" data-name="Path 2130" d="M10.25,16.2H9.906L9.9,15.911l.325-.019Zm-.05-.293-.286.019.011.255.284-.02Z" transform="translate(-3.667 -5.89)" fill="#050605"/>
    <path id="Path_2131" data-name="Path 2131" d="M8.505,15.608h.1v.07h.068v-.071h.1v.07h.07v-.071h.1v.159a.04.04,0,0,1-.042.042h-.34a.044.044,0,0,1-.044-.042Z" transform="translate(-3.152 -5.785)" fill="#fee616"/>
    <path id="Path_2132" data-name="Path 2132" d="M8.877,15.815H8.518l-.044-.062V15.6l.115-.018.02.088.049-.02-.02-.051.116-.018.02.089.05-.02L8.8,15.6l.116-.02.02.2ZM8.569,15.6l-.076.018.02.137.364.042.022-.042V15.6l-.077.02.02.052-.089.02-.02-.089-.077.018.02.052-.088.02Z" transform="translate(-3.141 -5.773)" fill="#050605"/>
    <path id="Path_2133" data-name="Path 2133" d="M8.9,15.923l.01.275H8.586l.009-.275Z" transform="translate(-3.182 -5.902)" fill="#fee616"/>
    <path id="Path_2134" data-name="Path 2134" d="M8.924,16.206H8.58l-.011-.3.325-.019Zm-.05-.294-.286.019.011.256.284-.02Z" transform="translate(-3.176 -5.89)" fill="#050605"/>
    <path id="Path_2135" data-name="Path 2135" d="M9.455,15.784a.034.034,0,1,1,.067,0v.12H9.455Z" transform="translate(-3.504 -5.836)" fill="#050605"/>
    <path id="Path_2136" data-name="Path 2136" d="M10.117,16.063a.033.033,0,1,1,.065,0v.093h-.065Z" transform="translate(-3.75 -5.94)" fill="#050605"/>
    <path id="Path_2137" data-name="Path 2137" d="M8.789,16.063a.033.033,0,1,1,.065,0v.094H8.789Z" transform="translate(-3.258 -5.941)" fill="#050605"/>
    <path id="Path_2138" data-name="Path 2138" d="M14.871,15.214h.1v.07h.07v-.071h.1v.071h.07v-.071h.1v.158a.042.042,0,0,1-.043.042h-.347a.044.044,0,0,1-.045-.042Z" transform="translate(-5.512 -5.639)" fill="#fee616"/>
    <path id="Path_2139" data-name="Path 2139" d="M15.252,15.421h-.366l-.047-.06V15.2l.117-.02.02.089.05-.02-.02-.052.118-.02.02.091.051-.02-.02-.052.118-.02.02.2Zm-.315-.218-.078.02.02.137.373.042.023-.042V15.2l-.079.02.02.052-.091.02-.02-.091-.079.02.02.052-.089.02Z" transform="translate(-5.5 -5.627)" fill="#050605"/>
    <path id="Path_2140" data-name="Path 2140" d="M15.262,15.552l.021.507h-.338l.023-.507Z" transform="translate(-5.539 -5.764)" fill="#fee616"/>
    <path id="Path_2141" data-name="Path 2141" d="M15.3,16.067l-.359,0,0-.527.313-.018Zm-.062-.526-.274.018,0,.488.3-.018Z" transform="translate(-5.54 -5.753)" fill="#050605"/>
    <path id="Path_2142" data-name="Path 2142" d="M15.539,15.608h.094v.069h.07v-.07h.1v.07h.069v-.07h.1v.159a.04.04,0,0,1-.042.04h-.34a.044.044,0,0,1-.044-.042Z" transform="translate(-5.759 -5.785)" fill="#fee616"/>
    <path id="Path_2143" data-name="Path 2143" d="M15.91,15.814h-.359l-.043-.06V15.6l.113-.02.02.089.05-.02-.02-.052.116-.02.02.091.048-.02-.02-.052.117-.02.02.2ZM15.6,15.6l-.074.02.02.138.363.04.023-.04V15.6l-.078.02.02.052-.088.02-.02-.091-.077.02.02.052-.089.02Z" transform="translate(-5.748 -5.773)" fill="#050605"/>
    <path id="Path_2144" data-name="Path 2144" d="M15.934,15.923l.01.274H15.62l.009-.275Z" transform="translate(-5.789 -5.902)" fill="#fee616"/>
    <path id="Path_2145" data-name="Path 2145" d="M15.588,16.206l.009-.3.325-.019.03.293Zm.315-.294-.286.019.01.235h.305Z" transform="translate(-5.777 -5.89)" fill="#050605"/>
    <path id="Path_2146" data-name="Path 2146" d="M14.214,15.61h.094v.069h.068v-.07h.1v.07h.069v-.07h.1v.159a.04.04,0,0,1-.042.04h-.34a.044.044,0,0,1-.043-.042Z" transform="translate(-5.268 -5.785)" fill="#fee616"/>
    <path id="Path_2147" data-name="Path 2147" d="M14.585,15.816h-.359l-.045-.062V15.6l.115-.02.02.088.049-.02-.02-.05.116-.02.02.089.05-.02-.02-.05.116-.02.02.2Zm-.308-.217-.076.02.02.136.364.042.022-.04V15.6l-.077.02.02.05-.089.02-.02-.089-.077.02.02.05-.088.02Z" transform="translate(-5.256 -5.774)" fill="#050605"/>
    <path id="Path_2148" data-name="Path 2148" d="M14.608,15.925l.01.274h-.324l.009-.274Z" transform="translate(-5.298 -5.903)" fill="#fee616"/>
    <path id="Path_2149" data-name="Path 2149" d="M14.633,16.207h-.345l-.009-.294.323-.019Zm-.05-.293-.284.019.009.255.284-.02Z" transform="translate(-5.292 -5.891)" fill="#050605"/>
    <path id="Path_2150" data-name="Path 2150" d="M14.7,17.216a.546.546,0,0,1,.32-.539.54.54,0,0,1,.332.543Z" transform="translate(-5.448 -6.181)" fill="#fee616"/>
    <path id="Path_2151" data-name="Path 2151" d="M14.246,16.688l-.053.5h.326a.443.443,0,0,1,.319-.48.48.48,0,0,1,.322.48h.327l-.06-.5Z" transform="translate(-5.26 -6.184)" fill="#fee616"/>
    <path id="Path_2152" data-name="Path 2152" d="M15.508,17.2h-.349a.5.5,0,0,0-.325-.48.428.428,0,0,0-.3.461l-.345.02.035-.52,1.2-.021Zm-.709-.509-.553.01-.035.481.306-.021a.433.433,0,0,1,.282-.47m.066,0a.5.5,0,0,1,.313.49l.285-.018-.057-.482Z" transform="translate(-5.26 -6.173)" fill="#050605"/>
    <path id="Path_2153" data-name="Path 2153" d="M14.127,17.486H15.46a.063.063,0,0,1,0,.124H14.127a.063.063,0,0,1,0-.124" transform="translate(-5.217 -6.481)" fill="#fee616"/>
    <path id="Path_2154" data-name="Path 2154" d="M15.448,17.618H14.115a.082.082,0,0,1,0-.163h1.332a.082.082,0,0,1,0,.163m-1.332-.124v.085h1.332c.017,0,.031-.02.031-.043Z" transform="translate(-5.206 -6.47)" fill="#050605"/>
    <path id="Path_2155" data-name="Path 2155" d="M14.928,17.287a.345.345,0,0,1,.177-.334.35.35,0,0,1,.186.334Z" transform="translate(-5.533 -6.284)" fill="#fee616"/>
    <path id="Path_2156" data-name="Path 2156" d="M15.31,17.3h-.383a.347.347,0,0,1,.17-.372.345.345,0,0,1,.213.352Zm-.213-.336a.361.361,0,0,0-.15.316l.323-.018a.325.325,0,0,0-.174-.3" transform="translate(-5.532 -6.273)" fill="#050605"/>
    <path id="Path_2157" data-name="Path 2157" d="M14.174,16.361H15.45a.056.056,0,0,1,0,.111H14.174a.056.056,0,0,1,0-.111" transform="translate(-5.235 -6.064)" fill="#fee616"/>
    <path id="Path_2158" data-name="Path 2158" d="M15.439,16.481H14.161a.076.076,0,0,1,0-.15h1.278a.076.076,0,0,1,0,.15m-1.278-.111v.072h1.278a.034.034,0,0,0,.028-.037Z" transform="translate(-5.223 -6.053)" fill="#050605"/>
    <path id="Path_2159" data-name="Path 2159" d="M14.219,16.538H15.44a.051.051,0,0,1,.047.056.05.05,0,0,1-.047.054H14.219a.05.05,0,0,1-.047-.054.051.051,0,0,1,.047-.056" transform="translate(-5.253 -6.13)" fill="#fee616"/>
    <path id="Path_2160" data-name="Path 2160" d="M15.428,16.657H14.207a.075.075,0,0,1,0-.149h1.221a.075.075,0,0,1,0,.149m-1.221-.11v.071h1.221a.033.033,0,0,0,.027-.035Z" transform="translate(-5.241 -6.119)" fill="#050605"/>
    <path id="Path_2161" data-name="Path 2161" d="M15.163,15.784a.034.034,0,1,1,.067,0v.121h-.067Z" transform="translate(-5.62 -5.837)" fill="#050605"/>
    <path id="Path_2162" data-name="Path 2162" d="M15.825,16.063a.033.033,0,1,1,.066,0v.094h-.066Z" transform="translate(-5.865 -5.941)" fill="#050605"/>
    <path id="Path_2163" data-name="Path 2163" d="M14.5,16.065a.033.033,0,1,1,.065,0v.094H14.5Z" transform="translate(-5.373 -5.941)" fill="#050605"/>
    <path id="Path_2164" data-name="Path 2164" d="M20.517,15.218h.1v.069h.071v-.07h.1v.07h.069v-.07h.1v.158a.04.04,0,0,1-.043.041h-.346a.044.044,0,0,1-.045-.041Z" transform="translate(-7.604 -5.64)" fill="#fee616"/>
    <path id="Path_2165" data-name="Path 2165" d="M20.9,15.424H20.53l-.044-.06v-.157l.116-.02.02.088.052-.02-.02-.05.118-.02.02.089.05-.02-.02-.05.118-.02.02.2Zm-.315-.217-.077.02.02.137.372.041.023-.041v-.158l-.079.02.02.05-.089.02-.02-.089-.079.02.02.05-.091.02Z" transform="translate(-7.593 -5.629)" fill="#050605"/>
    <path id="Path_2166" data-name="Path 2166" d="M20.908,15.555l.021.508h-.338l.023-.507Z" transform="translate(-7.632 -5.765)" fill="#fee616"/>
    <path id="Path_2167" data-name="Path 2167" d="M20.95,16.07h-.359l0-.527.313-.019Zm-.062-.526-.274.019,0,.488.3-.018Z" transform="translate(-7.632 -5.754)" fill="#050605"/>
    <path id="Path_2168" data-name="Path 2168" d="M21.183,15.612h.1v.069h.069v-.07h.1v.07h.07v-.07h.1v.159a.039.039,0,0,1-.042.04h-.34a.042.042,0,0,1-.043-.04Z" transform="translate(-7.851 -5.786)" fill="#fee616"/>
    <path id="Path_2169" data-name="Path 2169" d="M21.555,15.818H21.2l-.045-.06V15.6l.115-.02.02.088.049-.02-.02-.05.116-.02.02.089.05-.02-.02-.05.116-.02.02.2Zm-.308-.217-.076.02.02.138.364.04.022-.04V15.6l-.077.02.02.05-.089.02-.02-.089-.077.02.02.05-.088.02Z" transform="translate(-7.84 -5.775)" fill="#050605"/>
    <path id="Path_2170" data-name="Path 2170" d="M21.578,15.927l.01.274h-.324l.009-.274Z" transform="translate(-7.881 -5.903)" fill="#fee616"/>
    <path id="Path_2171" data-name="Path 2171" d="M21.6,16.209h-.345l-.009-.294.323-.019Zm-.05-.293-.284.019.009.255.284-.02Z" transform="translate(-7.875 -5.892)" fill="#050605"/>
    <path id="Path_2172" data-name="Path 2172" d="M19.859,15.614h.094v.069h.07v-.07h.1v.07h.07v-.07h.1v.159a.041.041,0,0,1-.042.04H19.9a.044.044,0,0,1-.044-.042Z" transform="translate(-7.36 -5.787)" fill="#fee616"/>
    <path id="Path_2173" data-name="Path 2173" d="M20.231,15.82h-.359l-.044-.062V15.6l.113-.02.02.088.05-.02-.02-.05.116-.02.02.089.05-.02-.02-.05.116-.02.02.2Zm-.31-.217-.074.02.02.136.364.042.022-.04V15.6l-.077.02.02.05-.089.02-.02-.089-.077.02.02.05-.089.02Z" transform="translate(-7.349 -5.775)" fill="#050605"/>
    <path id="Path_2174" data-name="Path 2174" d="M20.254,15.929l.01.274H19.94l.009-.274Z" transform="translate(-7.39 -5.904)" fill="#fee616"/>
    <path id="Path_2175" data-name="Path 2175" d="M20.277,16.211h-.344l-.011-.294.325-.019Zm-.05-.293-.286.019.011.255.284-.02Z" transform="translate(-7.384 -5.893)" fill="#050605"/>
    <path id="Path_2176" data-name="Path 2176" d="M20.344,17.22a.548.548,0,0,1,.322-.539.541.541,0,0,1,.33.543Z" transform="translate(-7.54 -6.183)" fill="#fee616"/>
    <path id="Path_2177" data-name="Path 2177" d="M19.891,16.692l-.053.5h.325a.443.443,0,0,1,.32-.48.483.483,0,0,1,.322.48h.325l-.059-.5Z" transform="translate(-7.353 -6.186)" fill="#fee616"/>
    <path id="Path_2178" data-name="Path 2178" d="M21.152,17.2H20.8a.51.51,0,0,0-.325-.48.428.428,0,0,0-.3.461l-.345.018.033-.52,1.2-.02Zm-.706-.509-.556.009-.033.481.306-.021a.431.431,0,0,1,.284-.47m.062,0a.5.5,0,0,1,.315.491l.284-.018-.056-.482Z" transform="translate(-7.352 -6.174)" fill="#050605"/>
    <path id="Path_2179" data-name="Path 2179" d="M19.773,17.49h1.332a.063.063,0,0,1,0,.124H19.773a.063.063,0,0,1,0-.124" transform="translate(-7.31 -6.483)" fill="#fee616"/>
    <path id="Path_2180" data-name="Path 2180" d="M21.094,17.622H19.761a.082.082,0,0,1,0-.163h1.332a.082.082,0,0,1,0,.163M19.761,17.5v.085h1.332c.017,0,.031-.02.031-.043Z" transform="translate(-7.298 -6.471)" fill="#050605"/>
    <path id="Path_2181" data-name="Path 2181" d="M20.572,17.29a.345.345,0,0,1,.178-.333.347.347,0,0,1,.186.333Z" transform="translate(-7.625 -6.285)" fill="#fee616"/>
    <path id="Path_2182" data-name="Path 2182" d="M20.955,17.3H20.57a.348.348,0,0,1,.171-.371.346.346,0,0,1,.213.352Zm-.213-.336a.363.363,0,0,0-.151.315l.325-.018a.327.327,0,0,0-.174-.3" transform="translate(-7.624 -6.275)" fill="#050605"/>
    <path id="Path_2183" data-name="Path 2183" d="M19.819,16.365H21.1a.056.056,0,0,1,0,.111H19.819a.056.056,0,0,1,0-.111" transform="translate(-7.328 -6.066)" fill="#fee616"/>
    <path id="Path_2184" data-name="Path 2184" d="M21.083,16.485H19.806a.075.075,0,0,1,0-.15h1.276a.075.075,0,0,1,0,.15m-1.276-.111v.072h1.276a.034.034,0,0,0,.03-.037Z" transform="translate(-7.315 -6.055)" fill="#050605"/>
    <path id="Path_2185" data-name="Path 2185" d="M19.862,16.542h1.222a.056.056,0,0,1,0,.11H19.862a.056.056,0,0,1,0-.11" transform="translate(-7.344 -6.131)" fill="#fee616"/>
    <path id="Path_2186" data-name="Path 2186" d="M21.072,16.661H19.85a.072.072,0,0,1-.067-.076.071.071,0,0,1,.067-.074h1.222a.07.07,0,0,1,.066.074.071.071,0,0,1-.066.076m-1.222-.11v.071h1.222c.015,0,.027-.016.027-.037Z" transform="translate(-7.332 -6.12)" fill="#050605"/>
    <path id="Path_2187" data-name="Path 2187" d="M20.807,15.788a.034.034,0,1,1,.069,0v.121h-.069Z" transform="translate(-7.712 -5.838)" fill="#050605"/>
    <path id="Path_2188" data-name="Path 2188" d="M21.471,16.067a.033.033,0,1,1,.065,0v.094h-.065Z" transform="translate(-7.958 -5.942)" fill="#050605"/>
    <path id="Path_2189" data-name="Path 2189" d="M20.141,16.069a.033.033,0,1,1,.066,0v.094h-.066Z" transform="translate(-7.465 -5.942)" fill="#050605"/>
    <path id="Path_2190" data-name="Path 2190" d="M9.167,21h.1v.07h.07V21h.1v.071H9.5V21h.1v.159a.04.04,0,0,1-.043.04H9.211a.043.043,0,0,1-.044-.04Z" transform="translate(-3.398 -7.783)" fill="#fee616"/>
    <path id="Path_2191" data-name="Path 2191" d="M9.548,21.205H9.182l-.044-.059V20.99l.115-.018.018.088.052-.018L9.3,20.988l.117-.018.018.089.052-.018-.018-.053.117-.018.019.194Zm-.313-.216-.078.018.018.139.373.04.025-.04v-.159l-.081.018.019.053-.089.018L9.4,20.988l-.081.018.018.053-.088.018Z" transform="translate(-3.387 -7.772)" fill="#050605"/>
    <path id="Path_2192" data-name="Path 2192" d="M9.557,21.336l.023.508H9.242l.021-.508h.294Z" transform="translate(-3.425 -7.908)" fill="#fee616"/>
    <path id="Path_2193" data-name="Path 2193" d="M9.6,21.854H9.242l0-.527.313-.019Zm-.063-.527-.274.019,0,.488.3-.018Z" transform="translate(-3.425 -7.897)" fill="#050605"/>
    <path id="Path_2194" data-name="Path 2194" d="M9.833,21.394h.1v.069H10v-.07h.1v.07h.07v-.07h.1v.158a.039.039,0,0,1-.042.041h-.34a.043.043,0,0,1-.044-.041Z" transform="translate(-3.644 -7.929)" fill="#fee616"/>
    <path id="Path_2195" data-name="Path 2195" d="M10.206,21.6H9.849L9.8,21.54v-.157l.113-.019.018.087.05-.019-.018-.051.115-.019.018.089.051-.019-.018-.051.115-.019.018.2ZM9.9,21.383l-.077.019.018.138.366.041.023-.041v-.158l-.078.02.019.05-.088.018-.018-.088-.078.02.018.05-.087.018Z" transform="translate(-3.634 -7.918)" fill="#050605"/>
    <path id="Path_2196" data-name="Path 2196" d="M10.228,21.709l.01.274H9.914l.009-.274Z" transform="translate(-3.674 -8.046)" fill="#fee616"/>
    <path id="Path_2197" data-name="Path 2197" d="M10.251,21.99H9.908L9.9,21.7l.323-.018ZM10.2,21.7l-.287.018.009.256.287-.018Z" transform="translate(-3.669 -8.036)" fill="#050605"/>
    <path id="Path_2198" data-name="Path 2198" d="M8.509,21.4H8.6v.069h.07V21.4h.1v.07h.069V21.4h.1v.158a.041.041,0,0,1-.043.041H8.553a.043.043,0,0,1-.044-.042Z" transform="translate(-3.154 -7.93)" fill="#fee616"/>
    <path id="Path_2199" data-name="Path 2199" d="M8.882,21.6H8.525l-.045-.061v-.155l.112-.019.018.087.052-.019-.018-.051.115-.019.018.089.051-.019-.018-.051.115-.019.018.2Zm-.308-.217L8.5,21.4l.018.137.366.042.023-.041v-.158l-.078.019.019.051-.088.018-.018-.088-.078.019.018.051-.088.018Z" transform="translate(-3.143 -7.919)" fill="#050605"/>
    <path id="Path_2200" data-name="Path 2200" d="M8.9,21.711l.01.274H8.59l.009-.274Z" transform="translate(-3.184 -8.047)" fill="#fee616"/>
    <path id="Path_2201" data-name="Path 2201" d="M8.928,21.992H8.584L8.575,21.7l.323-.018ZM8.88,21.7l-.287.018.009.256.287-.018Z" transform="translate(-3.178 -8.036)" fill="#050605"/>
    <path id="Path_2202" data-name="Path 2202" d="M8.994,23a.546.546,0,0,1,.32-.539.54.54,0,0,1,.332.543Z" transform="translate(-3.333 -8.326)" fill="#fee616"/>
    <path id="Path_2203" data-name="Path 2203" d="M8.541,22.475l-.053.5h.325a.443.443,0,0,1,.319-.48.48.48,0,0,1,.322.48h.327l-.059-.5Z" transform="translate(-3.146 -8.329)" fill="#fee616"/>
    <path id="Path_2204" data-name="Path 2204" d="M9.8,22.983H9.455a.5.5,0,0,0-.326-.48.427.427,0,0,0-.3.461l-.345.02.033-.522,1.2-.02Zm-.706-.51-.556.009-.033.483.306-.021a.431.431,0,0,1,.283-.471m.062,0a.5.5,0,0,1,.317.491l.284-.018L9.7,22.462Z" transform="translate(-3.146 -8.318)" fill="#050605"/>
    <path id="Path_2205" data-name="Path 2205" d="M8.422,23.273H9.753a.063.063,0,0,1,0,.124H8.422a.063.063,0,0,1,0-.124" transform="translate(-3.102 -8.626)" fill="#fee616"/>
    <path id="Path_2206" data-name="Path 2206" d="M9.742,23.405H8.411a.082.082,0,0,1,0-.163H9.742a.082.082,0,0,1,0,.163m-1.331-.124v.085H9.742c.018,0,.032-.019.032-.043Z" transform="translate(-3.091 -8.614)" fill="#050605"/>
    <path id="Path_2207" data-name="Path 2207" d="M9.222,23.072a.347.347,0,0,1,.179-.334.351.351,0,0,1,.186.334Z" transform="translate(-3.418 -8.428)" fill="#fee616"/>
    <path id="Path_2208" data-name="Path 2208" d="M9.6,23.082H9.22c-.018-.287.162-.371.179-.371a.359.359,0,0,1,.205.354Zm-.213-.335a.362.362,0,0,0-.152.315l.326-.018a.33.33,0,0,0-.174-.3" transform="translate(-3.417 -8.417)" fill="#050605"/>
    <path id="Path_2209" data-name="Path 2209" d="M8.468,22.148H9.744a.054.054,0,0,1,.05.055.053.053,0,0,1-.05.055H8.468a.051.051,0,0,1-.049-.055.052.052,0,0,1,.049-.055" transform="translate(-3.12 -8.209)" fill="#fee616"/>
    <path id="Path_2210" data-name="Path 2210" d="M9.733,22.266H8.456a.071.071,0,0,1-.069-.074.072.072,0,0,1,.069-.075H9.733a.073.073,0,0,1,.069.075.072.072,0,0,1-.069.074m-1.276-.11v.071H9.733a.033.033,0,0,0,.03-.035Z" transform="translate(-3.109 -8.198)" fill="#050605"/>
    <path id="Path_2211" data-name="Path 2211" d="M8.513,22.325H9.734a.051.051,0,0,1,.048.055.052.052,0,0,1-.048.055H8.513a.056.056,0,0,1,0-.11" transform="translate(-3.138 -8.275)" fill="#fee616"/>
    <path id="Path_2212" data-name="Path 2212" d="M9.722,22.443H8.5a.072.072,0,0,1-.067-.076.071.071,0,0,1,.067-.074H9.722a.07.07,0,0,1,.066.074.071.071,0,0,1-.066.076M8.5,22.333V22.4H9.722c.015,0,.027-.016.027-.037Z" transform="translate(-3.126 -8.263)" fill="#050605"/>
    <path id="Path_2213" data-name="Path 2213" d="M9.457,21.571a.034.034,0,1,1,.069,0v.12H9.457Z" transform="translate(-3.505 -7.982)" fill="#050605"/>
    <path id="Path_2214" data-name="Path 2214" d="M10.121,21.849a.033.033,0,1,1,.065,0v.094h-.065Z" transform="translate(-3.751 -8.085)" fill="#050605"/>
    <path id="Path_2215" data-name="Path 2215" d="M8.791,21.851a.033.033,0,1,1,.065,0v.093H8.791Z" transform="translate(-3.258 -8.085)" fill="#050605"/>
    <path id="Path_2216" data-name="Path 2216" d="M20.113,27.108l.067.069-.048.048.05.05.049-.05.07.07-.05.049.051.051.049-.05.07.07-.111.111a.041.041,0,0,1-.06,0L20,27.279a.045.045,0,0,1,0-.061l.11-.11Z" transform="translate(-7.409 -10.047)" fill="#fee616"/>
    <path id="Path_2217" data-name="Path 2217" d="M20.273,27.549l-.045-.02-.259-.259.01-.075.112-.111.1.069-.048.076.05.021.021-.05.1.07-.048.077.049.024.021-.05.1.069Zm-.182-.436-.084.111.266.306.014-.026.111-.111-.07-.042-.021.049-.077-.051.048-.076-.07-.042-.021.049-.077-.049.048-.076Z" transform="translate(-7.401 -10.039)" fill="#050605"/>
    <path id="Path_2218" data-name="Path 2218" d="M20.012,27.63,19.669,28l-.239-.24.375-.343Z" transform="translate(-7.201 -10.164)" fill="#fee616"/>
    <path id="Path_2219" data-name="Path 2219" d="M19.661,28.025l-.253-.254.376-.371.233.21Zm.122-.6-.347.344.223.2.33-.359Z" transform="translate(-7.193 -10.155)" fill="#050605"/>
    <path id="Path_2220" data-name="Path 2220" d="M20.3,27.858l.067.066-.048.049.048.048.049-.05.069.069-.05.049.05.05.049-.05.069.069-.111.111a.041.041,0,0,1-.06,0l-.239-.239a.045.045,0,0,1,0-.061Z" transform="translate(-7.481 -10.325)" fill="#fee616"/>
    <path id="Path_2221" data-name="Path 2221" d="M20.46,28.294l-.045-.02-.252-.252.01-.075.111-.111.1.065-.048.077.048.02.021-.049.1.068-.049.077.049.021.021-.049.1.069Zm-.177-.43-.082.11.259.3.013-.025.113-.112-.069-.041-.021.05-.077-.05.05-.077-.069-.04-.021.05-.076-.048.048-.077Z" transform="translate(-7.473 -10.317)" fill="#050605"/>
    <path id="Path_2222" data-name="Path 2222" d="M20.321,28.362l-.186.2-.229-.229.2-.188Z" transform="translate(-7.378 -10.432)" fill="#fee616"/>
    <path id="Path_2223" data-name="Path 2223" d="M20.127,28.582l-.244-.244.2-.216.244.217Zm-.045-.431-.172.188.215.188.173-.186Z" transform="translate(-7.369 -10.424)" fill="#050605"/>
    <path id="Path_2224" data-name="Path 2224" d="M19.368,26.92l.067.067-.048.048.048.05.049-.05.069.069-.05.049.05.048.049-.05.069.069-.111.113a.044.044,0,0,1-.06,0l-.239-.24a.044.044,0,0,1,0-.06Z" transform="translate(-7.134 -9.978)" fill="#fee616"/>
    <path id="Path_2225" data-name="Path 2225" d="M19.529,27.357l-.045-.018-.24-.25,0-.079.11-.111.1.067-.048.076.048.022.021-.05.1.068-.05.077.05.02.021-.049.1.069Zm-.177-.43-.082.111.259.3.013-.025.113-.113-.069-.041-.021.05-.077-.048.05-.078-.069-.04-.021.05-.076-.05.048-.076Z" transform="translate(-7.132 -9.97)" fill="#050605"/>
    <path id="Path_2226" data-name="Path 2226" d="M19.382,27.426l-.185.2-.229-.229.2-.188Z" transform="translate(-7.03 -10.085)" fill="#fee616"/>
    <path id="Path_2227" data-name="Path 2227" d="M19.19,27.646l-.244-.244.2-.216.242.216Zm-.045-.431-.172.188.215.188.172-.187Z" transform="translate(-7.022 -10.077)" fill="#050605"/>
    <path id="Path_2228" data-name="Path 2228" d="M18.425,28.513a.545.545,0,0,1,.607-.154.541.541,0,0,1-.149.619Z" transform="translate(-6.829 -10.498)" fill="#fee616"/>
    <path id="Path_2229" data-name="Path 2229" d="M18.491,27.729l-.391.315.229.23a.444.444,0,0,1,.566-.113.481.481,0,0,1-.111.566l.23.232.313-.4Z" transform="translate(-6.708 -10.278)" fill="#fee616"/>
    <path id="Path_2230" data-name="Path 2230" d="M19.008,28.98l-.246-.247a.509.509,0,0,0,.11-.568.38.38,0,0,0-.188-.048.5.5,0,0,0-.348.162l-.257-.23.393-.344.862.835Zm-.091-.813a.471.471,0,0,1,.036.148.529.529,0,0,1-.163.417l.214.189.3-.381Zm-.447-.434-.365.317.231.2a.5.5,0,0,1,.532-.133Z" transform="translate(-6.7 -10.269)" fill="#050605"/>
    <path id="Path_2231" data-name="Path 2231" d="M18.015,28.2l.941.942a.062.062,0,0,1-.086.087l-.942-.942a.063.063,0,0,1,.087-.087" transform="translate(-6.64 -10.447)" fill="#fee616"/>
    <path id="Path_2232" data-name="Path 2232" d="M18.892,29.25l-.047-.018L17.9,28.29a.076.076,0,0,1,.008-.108l.06-.026.988.961a.078.078,0,0,1-.006.108Zm-.961-.988.961.969.033-.034L17.99,28.2l-.074.074Z" transform="translate(-6.628 -10.436)" fill="#050605"/>
    <path id="Path_2233" data-name="Path 2233" d="M18.62,28.676a.341.341,0,0,1,.364-.109.35.35,0,0,1-.105.367Z" transform="translate(-6.901 -10.582)" fill="#fee616"/>
    <path id="Path_2234" data-name="Path 2234" d="M18.87,28.946l-.271-.273c.2-.249.378-.143.383-.142a.346.346,0,0,1-.1.4Zm.014-.391a.362.362,0,0,0-.257.119l.242.217a.326.326,0,0,0,.089-.329s-.031-.007-.074-.007" transform="translate(-6.893 -10.566)" fill="#050605"/>
    <path id="Path_2235" data-name="Path 2235" d="M18.846,27.437l.9.9a.053.053,0,0,1,0,.074.052.052,0,0,1-.074,0l-.9-.9a.053.053,0,0,1,0-.074.054.054,0,0,1,.075-.005Z" transform="translate(-6.951 -10.164)" fill="#fee616"/>
    <path id="Path_2236" data-name="Path 2236" d="M19.693,28.45l-.047-.02-.9-.9a.072.072,0,0,1,0-.1l.1-.005.9.9a.081.081,0,0,1,0,.1Zm-.873-1-.049.05.922.93.026-.031Z" transform="translate(-6.94 -10.164)" fill="#050605"/>
    <path id="Path_2237" data-name="Path 2237" d="M18.753,27.591l.863.865a.053.053,0,0,1-.006.072.051.051,0,0,1-.072.005l-.863-.863a.051.051,0,0,1,.006-.072.053.053,0,0,1,.072-.006" transform="translate(-6.917 -10.222)" fill="#fee616"/>
    <path id="Path_2238" data-name="Path 2238" d="M19.558,28.565l-.046-.019-.863-.863a.071.071,0,0,1,.006-.1l.1-.006.863.865a.071.071,0,0,1-.006.1Zm-.83-.96-.05.05.88.891.027-.031Z" transform="translate(-6.906 -10.221)" fill="#050605"/>
    <path id="Path_2239" data-name="Path 2239" d="M19.922,27.706a.034.034,0,1,1,.048.048l-.084.086-.048-.048Z" transform="translate(-7.352 -10.264)" fill="#050605"/>
    <path id="Path_2240" data-name="Path 2240" d="M20.2,28.372a.033.033,0,1,1,.047.045l-.065.067-.047-.047Z" transform="translate(-7.464 -10.511)" fill="#050605"/>
    <path id="Path_2241" data-name="Path 2241" d="M19.265,27.433a.032.032,0,1,1,.045.045l-.065.067L19.2,27.5Z" transform="translate(-7.116 -10.163)" fill="#050605"/>
    <path id="Path_2242" data-name="Path 2242" d="M20.509,21h.1v.069h.07V21h.1v.07h.07V21h.1v.159a.041.041,0,0,1-.043.04h-.347a.044.044,0,0,1-.044-.042Z" transform="translate(-7.601 -7.784)" fill="#fee616"/>
    <path id="Path_2243" data-name="Path 2243" d="M20.889,21.208h-.367l-.044-.062v-.155l.116-.02.02.088.05-.02-.02-.05.118-.02.02.089.051-.02-.02-.05.118-.02.02.2Zm-.315-.217-.077.02.02.136.372.042.023-.04V20.99l-.079.02.02.05-.091.02-.02-.089-.079.02.02.05-.089.02Z" transform="translate(-7.59 -7.772)" fill="#050605"/>
    <path id="Path_2244" data-name="Path 2244" d="M20.9,21.338l.021.508h-.338l.021-.508Z" transform="translate(-7.629 -7.908)" fill="#fee616"/>
    <path id="Path_2245" data-name="Path 2245" d="M20.942,21.855h-.359l0-.529.313-.018Zm-.063-.526-.274.018,0,.489.3-.018Z" transform="translate(-7.629 -7.898)" fill="#050605"/>
    <path id="Path_2246" data-name="Path 2246" d="M21.175,21.4h.1v.069h.068V21.4h.1v.07h.07V21.4h.1v.158a.04.04,0,0,1-.042.041h-.34a.044.044,0,0,1-.044-.042Z" transform="translate(-7.848 -7.93)" fill="#fee616"/>
    <path id="Path_2247" data-name="Path 2247" d="M21.547,21.6h-.359l-.045-.062v-.155l.115-.02.02.088.049-.02-.02-.05.116-.02.02.089.05-.02-.02-.05.116-.02.02.2Zm-.308-.217-.076.02.02.136.364.042.022-.041v-.158l-.077.02.02.05-.089.02-.02-.089-.077.02.02.05-.088.02Z" transform="translate(-7.837 -7.918)" fill="#050605"/>
    <path id="Path_2248" data-name="Path 2248" d="M21.57,21.711l.01.274h-.324l.009-.274Z" transform="translate(-7.878 -8.047)" fill="#fee616"/>
    <path id="Path_2249" data-name="Path 2249" d="M21.594,21.993h-.345l-.011-.294.325-.019Zm-.05-.293-.286.019.011.255.284-.02Z" transform="translate(-7.872 -8.036)" fill="#050605"/>
    <path id="Path_2250" data-name="Path 2250" d="M19.851,21.4h.094v.069h.07V21.4h.1v.07h.07V21.4h.1v.158a.04.04,0,0,1-.043.041h-.34a.043.043,0,0,1-.043-.041Z" transform="translate(-7.357 -7.93)" fill="#fee616"/>
    <path id="Path_2251" data-name="Path 2251" d="M20.222,21.6h-.359l-.043-.06v-.157l.113-.02.02.088.049-.02-.02-.05.117-.02.02.089.05-.02-.02-.05.116-.02.02.2Zm-.308-.217-.074.02.02.137.363.041.023-.041v-.158l-.077.02.02.05-.089.02-.02-.089L20,21.4l.02.05-.088.02Z" transform="translate(-7.346 -7.918)" fill="#050605"/>
    <path id="Path_2252" data-name="Path 2252" d="M20.246,21.713l.01.273h-.324l.009-.275Z" transform="translate(-7.387 -8.047)" fill="#fee616"/>
    <path id="Path_2253" data-name="Path 2253" d="M19.9,21.995l.009-.3.325-.018.03.291Zm.315-.293-.286.018.01.235h.305Z" transform="translate(-7.375 -8.036)" fill="#050605"/>
    <path id="Path_2254" data-name="Path 2254" d="M20.336,23a.546.546,0,0,1,.32-.538.537.537,0,0,1,.332.542Z" transform="translate(-7.537 -8.327)" fill="#fee616"/>
    <path id="Path_2255" data-name="Path 2255" d="M19.881,22.477l-.053.5h.326a.446.446,0,0,1,.319-.481.484.484,0,0,1,.323.481h.325l-.059-.5Z" transform="translate(-7.349 -8.33)" fill="#fee616"/>
    <path id="Path_2256" data-name="Path 2256" d="M21.144,22.985H20.8a.5.5,0,0,0-.323-.48.424.424,0,0,0-.3.461l-.345.018.033-.521,1.2-.02Zm-.707-.51-.555.009-.033.481.306-.021a.432.432,0,0,1,.283-.47m.068,0a.507.507,0,0,1,.31.491l.285-.018-.057-.482Z" transform="translate(-7.349 -8.318)" fill="#050605"/>
    <path id="Path_2257" data-name="Path 2257" d="M19.765,23.275H21.1a.057.057,0,0,1,.052.062.057.057,0,0,1-.052.06H19.765a.058.058,0,0,1-.052-.06.058.058,0,0,1,.052-.062" transform="translate(-7.306 -8.627)" fill="#fee616"/>
    <path id="Path_2258" data-name="Path 2258" d="M21.084,23.406H19.753a.081.081,0,0,1,0-.162h1.331a.082.082,0,0,1,0,.162m-1.331-.123v.084h1.331a.038.038,0,0,0,.032-.042Z" transform="translate(-7.294 -8.615)" fill="#050605"/>
    <path id="Path_2259" data-name="Path 2259" d="M20.563,23.074a.345.345,0,0,1,.179-.334.349.349,0,0,1,.186.334Z" transform="translate(-7.621 -8.428)" fill="#fee616"/>
    <path id="Path_2260" data-name="Path 2260" d="M20.947,23.083h-.385a.348.348,0,0,1,.171-.372.346.346,0,0,1,.213.352Zm-.213-.336a.362.362,0,0,0-.151.317l.325-.019a.327.327,0,0,0-.174-.3" transform="translate(-7.621 -8.418)" fill="#050605"/>
    <path id="Path_2261" data-name="Path 2261" d="M19.81,22.15h1.276a.053.053,0,0,1,.05.055.054.054,0,0,1-.05.055H19.81a.054.054,0,0,1-.05-.055.053.053,0,0,1,.05-.055" transform="translate(-7.324 -8.21)" fill="#fee616"/>
    <path id="Path_2262" data-name="Path 2262" d="M21.075,22.268H19.8a.074.074,0,0,1-.069-.076.072.072,0,0,1,.069-.074h1.276a.071.071,0,0,1,.069.074.074.074,0,0,1-.069.076m-1.276-.11v.071h1.276a.034.034,0,0,0,.03-.037Z" transform="translate(-7.312 -8.198)" fill="#050605"/>
    <path id="Path_2263" data-name="Path 2263" d="M19.854,22.325h1.222a.057.057,0,0,1,0,.111H19.854a.057.057,0,0,1,0-.111" transform="translate(-7.341 -8.275)" fill="#fee616"/>
    <path id="Path_2264" data-name="Path 2264" d="M21.063,22.444H19.842a.076.076,0,0,1,0-.15h1.221a.076.076,0,0,1,0,.15m-1.221-.111v.072h1.221c.015,0,.027-.016.027-.037Z" transform="translate(-7.329 -8.263)" fill="#050605"/>
    <path id="Path_2265" data-name="Path 2265" d="M20.8,21.572a.034.034,0,1,1,.069,0v.121H20.8Z" transform="translate(-7.709 -7.982)" fill="#050605"/>
    <path id="Path_2266" data-name="Path 2266" d="M21.461,21.851a.033.033,0,1,1,.066,0v.093h-.066Z" transform="translate(-7.954 -8.085)" fill="#050605"/>
    <path id="Path_2267" data-name="Path 2267" d="M20.133,21.851a.033.033,0,1,1,.065,0v.094h-.065Z" transform="translate(-7.462 -8.086)" fill="#050605"/>
    <path id="Path_2268" data-name="Path 2268" d="M9.727,27.4l.069-.069.048.048.05-.049-.05-.05.071-.07.049.05.05-.05-.05-.05.07-.07.111.111a.041.041,0,0,1,0,.06l-.245.245a.044.044,0,0,1-.061,0Z" transform="translate(-3.605 -10.043)" fill="#fee616"/>
    <path id="Path_2269" data-name="Path 2269" d="M9.856,27.537l-.042-.016-.11-.11.069-.1.076.048.021-.049-.05-.021.071-.1.077.049.021-.05-.049-.022.069-.1.154.126-.015.073Zm-.084-.2-.04.069.124.107.019-.028.245-.245-.11-.143-.042.069.049.022-.049.078-.077-.049-.043.07.049.021-.049.077Z" transform="translate(-3.597 -10.034)" fill="#050605"/>
    <path id="Path_2270" data-name="Path 2270" d="M10.25,27.415l.373.343L10.384,28l-.343-.374Z" transform="translate(-3.721 -10.161)" fill="#fee616"/>
    <path id="Path_2271" data-name="Path 2271" d="M10.374,28.016l-.357-.388.21-.235.4.342Zm-.147-.595-.182.207.329.332.225-.224Z" transform="translate(-3.713 -10.153)" fill="#050605"/>
    <path id="Path_2272" data-name="Path 2272" d="M10.477,27.215l.066-.067.049.048.048-.048-.05-.049.069-.069.049.05.05-.05-.051-.049.07-.069.111.113a.04.04,0,0,1,0,.059l-.239.24a.045.045,0,0,1-.061,0Z" transform="translate(-3.883 -9.975)" fill="#fee616"/>
    <path id="Path_2273" data-name="Path 2273" d="M10.608,27.348l-.043-.017-.11-.11.066-.1.077.048.02-.048-.05-.022.069-.1.077.049.021-.049-.05-.022.069-.1.14.121v.077Zm-.087-.194-.038.067.125.108.019-.028.239-.24-.11-.143-.042.068.05.022-.049.077-.077-.049-.04.068.049.022L10.6,27.2Z" transform="translate(-3.875 -9.967)" fill="#050605"/>
    <path id="Path_2274" data-name="Path 2274" d="M10.981,27.206l.2.186-.229.229-.188-.2Z" transform="translate(-3.99 -10.084)" fill="#fee616"/>
    <path id="Path_2275" data-name="Path 2275" d="M10.943,27.642l-.2-.215.217-.243.227.185Zm.016-.429-.189.215.173.159.216-.216Z" transform="translate(-3.981 -10.076)" fill="#050605"/>
    <path id="Path_2276" data-name="Path 2276" d="M9.54,28.153l.067-.067.049.05.048-.05-.05-.049.069-.069.049.05.05-.048-.051-.049.069-.069.113.111a.042.042,0,0,1,0,.059l-.24.24a.043.043,0,0,1-.06,0Z" transform="translate(-3.536 -10.323)" fill="#fee616"/>
    <path id="Path_2277" data-name="Path 2277" d="M9.672,28.286l-.043-.017-.111-.11.067-.1.077.049.02-.049-.05-.022.069-.1L9.778,28l.021-.048-.05-.022.068-.1.141.12,0,.078Zm-.087-.194-.039.067.127.108.018-.027L9.929,28l-.111-.142-.04.068.05.022-.049.076L9.7,27.974l-.04.068.049.022-.048.077Z" transform="translate(-3.527 -10.315)" fill="#050605"/>
    <path id="Path_2278" data-name="Path 2278" d="M10.045,28.144l.2.186-.229.229-.188-.2Z" transform="translate(-3.643 -10.431)" fill="#fee616"/>
    <path id="Path_2279" data-name="Path 2279" d="M10.007,28.58l-.2-.215.216-.242.228.186Zm.015-.429-.188.215.173.159.216-.216Z" transform="translate(-3.634 -10.423)" fill="#050605"/>
    <path id="Path_2280" data-name="Path 2280" d="M11.132,28.965a.547.547,0,0,1-.154-.608.538.538,0,0,1,.617.15Z" transform="translate(-4.056 -10.495)" fill="#fee616"/>
    <path id="Path_2281" data-name="Path 2281" d="M10.348,28.556l.315.391.23-.23a.443.443,0,0,1-.114-.565.48.48,0,0,1,.567.111l.231-.23-.4-.314Z" transform="translate(-3.835 -10.274)" fill="#fee616"/>
    <path id="Path_2282" data-name="Path 2282" d="M10.653,28.968l-.329-.408.835-.863.422.312-.228.26a.622.622,0,0,0-.378-.154.42.42,0,0,0-.192.044.434.434,0,0,0,.116.535Zm.083-.8-.383.4.3.349.215-.216a.446.446,0,0,1-.172-.4.419.419,0,0,1,.037-.125m.238-.089a.537.537,0,0,1,.378.165l.2-.23-.395-.284-.375.387a.5.5,0,0,1,.189-.037" transform="translate(-3.826 -10.266)" fill="#050605"/>
    <path id="Path_2283" data-name="Path 2283" d="M10.819,29.135l.941-.942a.059.059,0,0,1,.08.008.057.057,0,0,1,.008.08l-.942.942a.056.056,0,0,1-.079-.008.057.057,0,0,1-.008-.08" transform="translate(-4.005 -10.445)" fill="#fee616"/>
    <path id="Path_2284" data-name="Path 2284" d="M10.863,29.248l-.06-.027a.085.085,0,0,1-.007-.107l.941-.942c.069-.018.091-.009.108.008a.087.087,0,0,1,.008.108Zm.921-1.055-.96.949-.006.066.046.02.018-.026.943-.943.006-.066Z" transform="translate(-3.995 -10.438)" fill="#050605"/>
    <path id="Path_2285" data-name="Path 2285" d="M11.295,28.928a.343.343,0,0,1-.11-.362.349.349,0,0,1,.367.105Z" transform="translate(-4.14 -10.582)" fill="#fee616"/>
    <path id="Path_2286" data-name="Path 2286" d="M11.284,28.94l-.014-.014a.358.358,0,0,1-.114-.383c.025-.023.2-.1.4.1Zm-.1-.371a.355.355,0,0,0,.1.317l.243-.244a.414.414,0,0,0-.346-.073" transform="translate(-4.129 -10.567)" fill="#050605"/>
    <path id="Path_2287" data-name="Path 2287" d="M10.056,28.33l.9-.9a.052.052,0,0,1,.073,0,.054.054,0,0,1,.005.075l-.9.9a.053.053,0,0,1-.074,0,.054.054,0,0,1-.005-.075" transform="translate(-3.722 -10.161)" fill="#fee616"/>
    <path id="Path_2288" data-name="Path 2288" d="M10.1,28.442l-.055-.033,0-.093.9-.9.1,0a.074.074,0,0,1,.005.1Zm0-.039v.02l.019-.027.9-.9.009-.06-.04,0-.922.911-.009.059Z" transform="translate(-3.721 -10.161)" fill="#050605"/>
    <path id="Path_2289" data-name="Path 2289" d="M10.211,28.449l.863-.863a.051.051,0,0,1,.072.005.053.053,0,0,1,.006.073l-.863.864a.056.056,0,0,1-.079-.079" transform="translate(-3.78 -10.22)" fill="#fee616"/>
    <path id="Path_2290" data-name="Path 2290" d="M10.247,28.557l-.055-.023a.072.072,0,0,1-.008-.1l.865-.865.1.006a.074.074,0,0,1,.006.1Zm0-.039v.02l.016-.026.863-.863.008-.059-.041,0-.88.87-.008.058Z" transform="translate(-3.768 -10.219)" fill="#050605"/>
    <path id="Path_2291" data-name="Path 2291" d="M10.342,27.747a.034.034,0,1,1,.048-.048l.085.086-.048.048Z" transform="translate(-3.828 -10.262)" fill="#050605"/>
    <path id="Path_2292" data-name="Path 2292" d="M11.007,27.475a.033.033,0,1,1,.045-.047l.067.065-.047.047Z" transform="translate(-4.075 -10.162)" fill="#050605"/>
    <path id="Path_2293" data-name="Path 2293" d="M10.07,28.416a.032.032,0,1,1,.045-.045l.066.065-.045.047Z" transform="translate(-3.728 -10.511)" fill="#050605"/>
  </g>
</svg>
