<?xml version="1.0" encoding="UTF-8" standalone="no"?>
<!DOCTYPE svg PUBLIC "-//W3C//DTD SVG 1.1//EN" "http://www.w3.org/Graphics/SVG/1.1/DTD/svg11.dtd">
<svg width="100%" height="100%" viewBox="0 0 41 41" version="1.1" xmlns="http://www.w3.org/2000/svg" xmlns:xlink="http://www.w3.org/1999/xlink" xml:space="preserve" xmlns:serif="http://www.serif.com/" style="fill-rule:evenodd;clip-rule:evenodd;stroke-linejoin:round;stroke-miterlimit:2;">
    <g id="Vector_Smart_Object" transform="matrix(0.975567,0,0,0.964223,-368.299,-1174.89)">
        <path id="Color_Overlay" d="M378,1239.5C378,1228.25 387.254,1219 398.5,1219C409.746,1219 419,1228.25 419,1239.5C419,1250.75 409.746,1260 398.5,1260C387.266,1259.97 378.033,1250.73 378,1239.5ZM400.208,1254.88L400.208,1256.41C408.248,1255.68 414.68,1249.25 415.408,1241.21L413.871,1241.21C412.934,1241.21 412.163,1240.44 412.163,1239.5C412.163,1238.57 412.934,1237.8 413.871,1237.8L415.408,1237.8C414.622,1229.78 408.222,1223.38 400.208,1222.6L400.208,1224.13C400.208,1225.07 399.437,1225.84 398.5,1225.84C397.563,1225.84 396.792,1225.07 396.792,1224.13L396.792,1222.6C388.752,1223.32 382.32,1229.76 381.592,1237.8L383.129,1237.8C384.066,1237.8 384.837,1238.57 384.837,1239.5C384.837,1240.44 384.066,1241.21 383.129,1241.21L381.592,1241.21C382.378,1249.23 388.778,1255.63 396.792,1256.41L396.792,1254.88C396.792,1253.94 397.563,1253.17 398.5,1253.17C399.437,1253.17 400.208,1253.94 400.208,1254.88ZM394.908,1243.09L387.562,1240.7L407.037,1230.96L397.299,1250.26L394.908,1243.09ZM391.833,1240.19L395.249,1241.39L396.103,1241.73L396.445,1242.58L397.645,1246L402.945,1234.73L391.833,1240.19Z" style="fill:rgb(1,58,151);fill-rule:nonzero;"/>
    </g>
</svg>
