<?xml version="1.0" encoding="UTF-8" standalone="no"?>
<!DOCTYPE svg PUBLIC "-//W3C//DTD SVG 1.1//EN" "http://www.w3.org/Graphics/SVG/1.1/DTD/svg11.dtd">
<svg width="100%" height="100%" viewBox="0 0 190 206" version="1.1" xmlns="http://www.w3.org/2000/svg" xmlns:xlink="http://www.w3.org/1999/xlink" xml:space="preserve" xmlns:serif="http://www.serif.com/" style="fill-rule:evenodd;clip-rule:evenodd;stroke-linejoin:round;stroke-miterlimit:2;">
    <path d="M147.513,114.545L147.513,83.962L176.711,113.161C178.176,114.626 180.095,115.358 182.015,115.358C183.934,115.358 185.854,114.626 187.319,113.161C190.248,110.232 190.248,105.483 187.319,102.555L147.513,62.748L147.513,22.35C147.513,10.026 136.746,0 123.513,0L66.003,0C52.77,0 42.003,10.026 42.003,22.35L42.003,62.748L2.197,102.555C-0.732,105.484 -0.732,110.233 2.197,113.161C3.662,114.625 5.582,115.358 7.501,115.358C9.42,115.358 11.34,114.626 12.805,113.161L42.003,83.962L42.003,114.546L2.197,154.354C-0.732,157.283 -0.732,162.032 2.198,164.961C3.662,166.426 5.582,167.158 7.501,167.158C9.42,167.158 11.34,166.426 12.805,164.961L42.003,135.761L42.003,182.884C42.003,195.208 52.77,205.234 66.003,205.234L123.513,205.234C136.746,205.234 147.513,195.208 147.513,182.884L147.513,135.76L176.711,164.96C178.176,166.425 180.095,167.157 182.015,167.157C183.934,167.157 185.854,166.425 187.318,164.96C190.248,162.031 190.248,157.283 187.319,154.353L147.513,114.545ZM132.513,65.729L132.513,153.24L57.003,153.24L57.003,65.729L132.513,65.729ZM66.003,15L123.513,15C128.392,15 132.513,18.366 132.513,22.35L132.513,50.729L57.003,50.729L57.003,22.35C57.003,18.366 61.124,15 66.003,15ZM123.513,190.232L66.003,190.232C61.124,190.232 57.003,186.866 57.003,182.882L57.003,168.24L132.513,168.24L132.513,182.883C132.513,186.867 128.392,190.232 123.513,190.232Z" style="fill-rule:nonzero;"/>
</svg>
