<?xml version="1.0" encoding="UTF-8" standalone="no"?>
<!DOCTYPE svg PUBLIC "-//W3C//DTD SVG 1.1//EN" "http://www.w3.org/Graphics/SVG/1.1/DTD/svg11.dtd">
<svg width="100%" height="100%" viewBox="0 0 17 17" version="1.1" xmlns="http://www.w3.org/2000/svg" xmlns:xlink="http://www.w3.org/1999/xlink" xml:space="preserve" xmlns:serif="http://www.serif.com/" style="fill-rule:evenodd;clip-rule:evenodd;stroke-linejoin:round;stroke-miterlimit:2;">
    <g id="Vector_Smart_Object" transform="matrix(1,0,0,1,-975,-615)">
        <path id="Color_Overlay" d="M976.7,632C975.767,632 975,631.233 975,630.3L975,618.4C975,617.467 975.767,616.7 976.7,616.7L978.4,616.7L978.4,615L980.1,615L980.1,616.7L986.9,616.7L986.9,615L988.6,615L988.6,616.7L990.3,616.7C991.233,616.7 992,617.467 992,618.4L992,630.3C992,631.233 991.233,632 990.3,632L976.7,632ZM976.7,630.3L990.3,630.3L990.3,621.8L976.7,621.8L976.7,630.3ZM976.7,620.1L990.3,620.1L990.3,618.4L976.7,618.4L976.7,620.1ZM983.5,628.6L983.5,626.9L985.2,626.9L985.2,628.6L983.5,628.6ZM980.1,628.6L980.1,626.9L981.8,626.9L981.8,628.6L980.1,628.6ZM986.9,625.2L986.9,623.5L988.6,623.5L988.6,625.2L986.9,625.2ZM983.5,625.2L983.5,623.5L985.2,623.5L985.2,625.2L983.5,625.2Z" style="fill:rgb(240,106,8);fill-rule:nonzero;"/>
    </g>
</svg>
