<?xml version="1.0" encoding="utf-8"?>
<!-- Generator: Adobe Illustrator 19.0.0, SVG Export Plug-In . SVG Version: 6.00 Build 0)  -->
<svg version="1.0" id="Isolation_Mode" xmlns="http://www.w3.org/2000/svg" xmlns:xlink="http://www.w3.org/1999/xlink" x="0px"
	 y="0px" viewBox="0 0 153 153.5" style="enable-background:new 0 0 153 153.5;" xml:space="preserve">
<style type="text/css">
	.st0{fill:url(#SVGID_1_);}
	.st1{fill:#E30613;}
	.st2{fill:url(#SVGID_2_);}
	.st3{fill:#FFFFFF;}
	.st4{fill:#0077A6;}
	.st5{fill:#FFED00;}
	.st6{fill:#FEC700;}
	.st7{fill:#DEB500;}
	.st8{fill:#2A317A;}
	.st9{fill:#A5502C;}
</style>
<g>
	<g>
		<linearGradient id="SVGID_1_" gradientUnits="userSpaceOnUse" x1="110.357" y1="139.8237" x2="59.9373" y2="94.9454">
			<stop  offset="0.1576" style="stop-color:#133070"/>
			<stop  offset="0.179" style="stop-color:#123171"/>
			<stop  offset="0.4541" style="stop-color:#003C7D"/>
			<stop  offset="0.7285" style="stop-color:#004384"/>
			<stop  offset="1" style="stop-color:#004687"/>
		</linearGradient>
		<path class="st0" d="M76.5,153.5c32.7,0,60.7-20.7,71.6-49.6H4.9C15.8,132.8,43.8,153.5,76.5,153.5z"/>
		<path class="st1" d="M76.5,0C43.8,0,15.8,20.7,4.9,49.6h143.3C137.2,20.7,109.2,0,76.5,0z"/>
		<linearGradient id="SVGID_2_" gradientUnits="userSpaceOnUse" x1="150.1065" y1="109.9642" x2="103.6662" y2="88.8556">
			<stop  offset="0.1945" style="stop-color:#CBCCCC"/>
			<stop  offset="0.1986" style="stop-color:#CCCCCD"/>
			<stop  offset="0.286" style="stop-color:#DADBDB"/>
			<stop  offset="0.3784" style="stop-color:#E3E3E3"/>
			<stop  offset="0.4836" style="stop-color:#E5E5E5"/>
			<stop  offset="0.6909" style="stop-color:#F4F4F4"/>
		</linearGradient>
		<path class="st2" d="M5.2,104.7h142.6c3.4-8.6,5.2-18,5.2-27.7c0-10.2-2-19.9-5.6-28.8H5.6C2,57.1,0,66.8,0,76.9
			C0,86.7,1.9,96.1,5.2,104.7z"/>
		<g>
			<path d="M147.5,48.4c0.1,0.4,0.3,0.7,0.4,1.1C147.8,49.1,147.6,48.7,147.5,48.4z"/>
			<path d="M149.4,53.6L149.4,53.6c-0.1-0.3-0.2-0.5-0.2-0.8C149.2,53.1,149.3,53.3,149.4,53.6z"/>
			<path d="M5.1,49.5c0.1-0.4,0.3-0.7,0.4-1.1C5.4,48.7,5.3,49.1,5.1,49.5z"/>
			<path d="M3.9,52.8c-0.1,0.3-0.2,0.5-0.3,0.8h0C3.8,53.3,3.8,53.1,3.9,52.8z"/>
		</g>
	</g>
	<g>
		<path class="st1" d="M46.4,60l-0.3-0.6l-0.3-0.6l-6.9-14.4l-0.2-0.4l-0.2-0.4l0.2-0.4l0.2-0.4l4.5-7.9l0.4-0.6l0.3-0.6l0.6,0.3
			l0.7,0.3l8.4,3.6l5.6-6.6l0.4-0.5l0.4-0.5l0.6,0.3l0.6,0.3l7.9,4.5l6.3-5.3l0.5-0.4l0.5-0.4l0.5,0.4l0.5,0.4l6.3,5.3l7.9-4.5
			l0.6-0.3l0.6-0.3l0.4,0.5l0.4,0.5l5.6,6.6l8.4-3.6l0.6-0.3l0.6-0.3l0.3,0.6l0.3,0.6l4.5,7.9l0.2,0.4l0.2,0.4l-0.2,0.4l-0.2,0.4
			l-6.9,14.4l-0.3,0.6l-0.3,0.6l-0.7-0.3l-0.7-0.3c-0.1,0-6.4-2.4-12.4-3.9c-5.4-1.4-14.4-1.4-16.1-1.4h-0.2h-0.3
			c-1.7,0-10.7,0.1-16.1,1.4c-6,1.5-12.3,3.9-12.4,3.9l-0.7,0.3L46.4,60L46.4,60z"/>
		<path class="st3" d="M106.2,59l-0.7-0.3c-0.1,0-6.4-2.4-12.5-3.9c-5.5-1.4-14.5-1.4-16.3-1.4h-0.2h-0.3c-1.8,0-10.8,0.1-16.3,1.4
			c-6.1,1.5-12.4,3.9-12.5,3.9L46.8,59l-0.3-0.6L39.6,44l-0.2-0.4l0.2-0.4l4.5-7.9l0.3-0.6l0.6,0.3l9,3.8l5.9-7l0.4-0.5l0.6,0.3
			l8.4,4.7l6.7-5.7l0.5-0.4l0.5,0.4l6.7,5.7l8.4-4.7l0.6-0.3l0.4,0.5l6,7L108,35l0.6-0.3l0.3,0.6l4.5,7.9l0.2,0.4l-0.2,0.4
			l-6.9,14.4L106.2,59L106.2,59z"/>
		<path class="st4" d="M108.3,35.8l-9.5,4l-6.3-7.5l-8.9,5l-7.1-6l-7.1,6l-8.9-5l-6.3,7.5l-9.5-4l-4.5,7.9L47.2,58
			c0,0,6.4-2.4,12.6-3.9c6.2-1.5,16.7-1.5,16.7-1.5s10.6-0.1,16.7,1.5c6.2,1.5,12.6,3.9,12.6,3.9l6.9-14.4L108.3,35.8z"/>
		<path class="st3" d="M97.5,44.1c0,0,5.3,1.2,7.9,2.2c2.6,1,5,2.2,5,2.2l-3.6,7.5c0,0-1.7-0.9-5.4-2.1c-3.7-1.2-6.1-1.8-6.1-1.8
			L97.5,44.1z"/>
		<path class="st1" d="M97.1,46l-1.3,4.4c0,0,4.8,1.2,7.4,2.3c2.6,1.1,4.3,1.7,4.3,1.7l2.2-4.4C109.7,49.9,101.4,46.8,97.1,46z"/>
		<polygon class="st5" points="45.9,41.2 46.1,39.5 47.5,40.6 49.2,40.1 49.1,41.7 50.2,43.1 48.8,43.9 48.6,45.5 47,44.4 
			45.4,45.2 45.6,43.2 44.3,42 		"/>
		<polygon class="st6" points="47.2,42.6 44.4,42 45.6,43.2 45.4,45.2 		"/>
		<polygon class="st6" points="47.3,42.7 47.1,44.3 48.6,45.5 		"/>
		<polygon class="st6" points="47.4,42.5 50.2,43.1 48.8,43.9 		"/>
		<polygon class="st6" points="47.5,40.7 47.3,42.5 49.2,40.1 		"/>
		<polygon class="st6" points="46.1,39.5 47.2,42.5 45.9,41.2 		"/>
		<polygon class="st5" points="105.8,40.2 107.1,39 107.4,40.9 109,41.6 107.8,42.7 107.6,44.5 106.1,44.1 104.8,45.2 104.5,43.2 
			102.7,42.6 104.2,41.4 104.1,39.6 		"/>
		<polygon class="st6" points="105.8,42 104.2,39.7 104.2,41.4 102.7,42.6 		"/>
		<polygon class="st6" points="105.8,42.2 104.5,43.2 104.8,45.2 		"/>
		<polygon class="st6" points="106,42.2 107.6,44.5 106.1,44.1 		"/>
		<polygon class="st6" points="107.4,40.9 106,42 109,41.6 		"/>
		<polygon class="st6" points="107.1,39 105.9,42 105.8,40.2 		"/>
		<path class="st3" d="M45.7,50.6c0,0,2.8,0.6,5-0.5c2.2-1.1,3.8-3.2,3.8-3.2s0.9,3.8-2.5,5.3C48.5,53.7,45.7,50.6,45.7,50.6z"/>
		<g>
			<path class="st7" d="M71.6,39.8c0,0-0.2,0.2-0.3,0.4c-0.1,0.3,0,0.6-0.4,0.6c-0.3,0.1-0.4,0-0.4,0.2c0,0.2,0.2,0.1,0,0.2
				c-0.1,0.1-0.3,0.4-0.2,0.4c0.1,0,0.3,0.2,0.3,0.2s-0.3,0.6-0.1,0.5c0.1-0.1,0.3,0,0.3,0.1c0,0.1,0,0.3,0,0.3
				c0.1,0,0.2,0.2,0.2,0.3c0,0.1,0.2,0.4,0.3,0.3c0.1-0.1,0.3,0.1,0.3,0.1c0,0.1,0.3,0.2,0.3,0.2s0.3,0,0.3,0.2
				c0,0.1,0.3,0.1,0.3,0.1l0.3-0.1l0.1,0c0,0,0.1-0.2,0.1-0.2c0,0.1,0.3,0.4,0.4,0.3c0-0.1,0.2-0.1,0.2-0.1l0.2,0.2
				c0,0,0.3-0.3,0.3-0.2c0,0.1,0.1,0.1,0.1,0.1l0.2-0.1l0.3-0.1c0,0,0-0.3,0.1-0.3c0.1,0,0.1,0.1,0.2,0c0.1-0.1,0-0.3,0.1-0.2
				c0.2,0,0.4,0,0.4-0.1c0-0.1,0-0.3,0.1-0.3c0.1,0,0.3-0.2,0.3-0.2s-0.2-0.2,0-0.2c0.1,0,0.3-0.2,0.2-0.2c-0.1,0,0-0.2,0.1-0.2
				c0.1,0,0.1,0,0-0.2c-0.1-0.2-0.1-0.3,0-0.4c0.1-0.1,0-0.2-0.2-0.3c-0.2-0.1-0.4-0.3-0.3-0.4c0.1,0-0.2-0.2-0.3-0.4
				c-0.1-0.2,0-0.3-0.1-0.4c-0.3-0.3-0.4-0.3-0.4-0.3s-0.2-0.3,0-0.7c0.2-0.4,0.5-0.6,0.5-0.6s-0.2-0.2-0.5-0.2
				c-0.3,0-0.4-0.1-0.4,0c0,0.1,0.2,0.1,0,0.3c-0.1,0.2-0.3,0.3-0.5,0.3c-0.2,0-0.2-0.5-0.4-0.6c-0.1-0.1-0.4-0.3-0.4-0.3
				S73,38,72.8,38.3c-0.1,0.3-0.1,0.6-0.4,0.6c-0.3,0-0.4-0.1-0.5-0.2c-0.1-0.1-0.2-0.2-0.1-0.3c0-0.1,0.2-0.3,0-0.2
				c-0.2,0-0.4,0-0.6,0.1c-0.2,0.1-0.4,0.2-0.4,0.2S71.7,39.2,71.6,39.8z"/>
			<path class="st5" d="M71.7,39.5c0,0-0.8-1-0.7-1c0,0.1,0.3-0.2,0.5-0.1c0.2,0.2,0.2,0.5,0.6,0.6c0.4,0.1,0.6-0.2,0.6-0.3
				c0-0.1,0.4-0.8,0.4-0.8s0.4,0.1,0.5,0.4c0.1,0.3,0.2,0.5,0.2,0.5s0.1,0.2,0.3,0c0.2-0.2,0.5-0.6,0.6-0.6c0.2,0,0.4,0.1,0.4,0.1
				s-0.3,0.3-0.4,0.7c-0.1,0.4-0.1,0.5-0.1,0.5S72.9,39.2,71.7,39.5z"/>
			<path class="st5" d="M71.9,39.8c0,0-0.1,0.5,0,0.6c0.2,0.2,0.3,0.2,0.9,0.2c0.5-0.1,0.5,0.1,0.5-0.1c0-0.2,0.1-0.3,0.1-0.3
				s0,0.2,0.2,0.3c0.2,0.1,1.2-0.1,1.2-0.1s0-0.4-0.2-0.7C74.3,39.6,72.6,39.3,71.9,39.8z"/>
			<path class="st5" d="M72,40.8c0,0,0.3,0.6,0.7,0.4c0.4-0.1,0.4-0.4,0.5-0.4c0.1,0,0.3-0.1,0.4,0c0.1,0.1,0.1,0.5,0.4,0.4
				c0.3-0.1,0.2-0.4,0.5-0.5c0.2,0,0.6,0.1,0.4,0.5c-0.2,0.4-0.4,0.4-0.6,0.8c-0.1,0.4,0.1,0.6-0.4,0.6c-0.4-0.1-0.6-0.3-0.5-0.3
				c0.1-0.1,0.5-0.2,0.2-0.3c-0.3-0.1-0.9,0-0.7,0.1c0.1,0.1,0.2,0.1,0.2,0.3c0,0.1-0.1,0.2-0.3,0.2c-0.2,0-0.2-0.3-0.6-0.6
				C72,41.4,71.7,41.1,72,40.8z"/>
			<path class="st5" d="M73.4,42.6c-0.2,0.1-0.4-0.1-0.3,0.2c0.1,0.3,0.2,0.6,0.5,0.4c0.3-0.2,0.4-0.4,0.3-0.5
				C73.8,42.7,73.7,42.5,73.4,42.6z"/>
			<path class="st5" d="M75.5,41.1c-0.3,0-0.2-0.1-0.5,0.4c-0.3,0.5-0.3,0.5-0.3,0.8c0,0.4,0,0.1,0.2,0.4c0.2,0.3,0,0.7,0.2,0.3
				c0.2-0.4,0.3-0.3,0.4-0.7c0.2-0.3,0.3-0.3,0.3-0.6C75.7,41.4,75.9,41.1,75.5,41.1z"/>
			<path class="st5" d="M71.2,41.4c0.6,0,0.4,0.7,0.6,1.1c0.2,0.3,0.7,0.3,0.5,0.6c-0.2,0.3-0.5,0.4-0.5,0.4s-0.4,0-0.6-0.4
				c-0.1-0.4-0.4-0.8-0.4-0.8S70.7,41.4,71.2,41.4z"/>
			<path class="st5" d="M72.4,43.6c0.2-0.1,0.2-0.4,0.3-0.2c0.1,0.2,0.3,0.3,0.1,0.3C72.4,43.7,72.4,43.6,72.4,43.6z"/>
			<path class="st5" d="M74.4,43.1c-0.1,0.1-0.2,0.1-0.2,0.3c0,0.2-0.2,0.4,0,0.2c0.3-0.2,0.3-0.3,0.4-0.4
				C74.7,43.1,74.6,42.9,74.4,43.1z"/>
			<path class="st5" d="M73.3,43.5c0.2,0.1,0.3,0.1,0.4,0c0.1,0,0.2-0.3,0.2-0.1c0,0.2,0,0.3-0.2,0.3c-0.2,0-0.3,0-0.4,0
				c-0.1,0-0.2-0.2-0.2-0.2L73.3,43.5z"/>
		</g>
		<g>
			<path class="st7" d="M78.4,39.5c0,0-0.2,0.2-0.3,0.4c-0.1,0.3,0,0.6-0.4,0.6c-0.3,0.1-0.4-0.1-0.4,0.2c0,0.2,0.2,0.2,0,0.2
				c-0.1,0.1-0.3,0.4-0.2,0.4c0.1,0,0.3,0.2,0.3,0.2s-0.3,0.6-0.1,0.5c0.2-0.1,0.3,0,0.3,0.1c0,0.1,0,0.3,0,0.3
				c0.1,0,0.2,0.2,0.2,0.3c0,0.1,0.2,0.4,0.3,0.3c0.1-0.1,0.3,0.1,0.3,0.1c0,0.1,0.3,0.2,0.3,0.2s0.3,0,0.3,0.1
				c0,0.1,0.3,0.1,0.3,0.1l0.3-0.1l0.2,0c0,0,0.1-0.2,0.1-0.1c0,0.1,0.3,0.4,0.4,0.3c0-0.1,0.2-0.2,0.2-0.2l0.2,0.2
				c0,0,0.3-0.3,0.3-0.3s0.1,0.1,0.1,0.1l0.2-0.1l0.3-0.1c0,0,0-0.3,0.1-0.3c0.1,0,0.1,0.1,0.2,0c0.1-0.1,0-0.3,0.1-0.2
				c0.1,0,0.4,0,0.4-0.1c0-0.1,0-0.3,0.1-0.3c0.1,0,0.3-0.2,0.3-0.2s-0.2-0.2,0-0.2c0.1,0,0.3-0.2,0.2-0.2c-0.1,0,0-0.2,0.1-0.2
				c0.1,0,0.1,0,0-0.2c-0.1-0.2-0.1-0.3,0-0.4c0.1-0.1,0-0.2-0.2-0.3c-0.2-0.1-0.4-0.3-0.3-0.4c0.1,0-0.1-0.2-0.3-0.4
				c-0.1-0.2,0-0.3-0.1-0.4c-0.3-0.3-0.4-0.3-0.4-0.3s-0.2-0.3,0-0.7c0.2-0.4,0.5-0.6,0.5-0.6s-0.2-0.2-0.5-0.2
				c-0.3,0-0.4-0.1-0.4,0c0,0.1,0.2,0.2,0,0.3c-0.1,0.2-0.3,0.3-0.5,0.3c-0.2,0-0.2-0.5-0.4-0.6c-0.2-0.1-0.4-0.3-0.4-0.3
				s-0.2,0.2-0.3,0.5c-0.1,0.3-0.1,0.6-0.4,0.6c-0.3,0-0.4-0.1-0.5-0.2c-0.1-0.1-0.2-0.2-0.2-0.3c0-0.1,0.2-0.3,0-0.2
				c-0.2,0-0.4,0-0.6,0.1c-0.2,0.1-0.4,0.2-0.4,0.2S78.5,38.9,78.4,39.5z"/>
			<path class="st5" d="M78.5,39.3c0,0-0.8-1.1-0.7-1c0,0.1,0.3-0.2,0.5-0.1c0.2,0.2,0.2,0.5,0.6,0.6c0.4,0.1,0.6-0.2,0.6-0.3
				c0-0.1,0.4-0.8,0.4-0.8s0.4,0.1,0.5,0.4c0.1,0.3,0.2,0.5,0.2,0.5s0.2,0.2,0.3,0c0.2-0.2,0.5-0.6,0.6-0.6c0.2,0,0.4,0.1,0.4,0.1
				s-0.3,0.3-0.4,0.7c-0.1,0.4-0.1,0.6-0.1,0.6S79.7,39,78.5,39.3z"/>
			<path class="st5" d="M78.6,39.5c0,0-0.1,0.5,0,0.6c0.2,0.1,0.3,0.2,0.9,0.2c0.6-0.1,0.6,0.1,0.6-0.1c0-0.2,0.1-0.3,0.1-0.3
				s0,0.2,0.2,0.3c0.2,0.1,1.2,0,1.2,0s0-0.4-0.2-0.7C81.1,39.3,79.3,39,78.6,39.5z"/>
			<path class="st5" d="M78.8,40.5c0,0,0.3,0.6,0.7,0.4c0.4-0.1,0.4-0.4,0.5-0.4c0.1,0,0.3-0.1,0.4,0c0.1,0.1,0.1,0.5,0.4,0.4
				c0.3-0.1,0.2-0.4,0.5-0.5c0.2,0,0.6,0.1,0.4,0.5c-0.2,0.4-0.4,0.4-0.6,0.8c-0.1,0.4,0.1,0.6-0.4,0.5c-0.4-0.1-0.6-0.3-0.5-0.3
				c0.2-0.1,0.5-0.2,0.2-0.3c-0.3-0.1-0.9,0-0.7,0.1c0.2,0.1,0.2,0.1,0.2,0.3c0,0.1-0.1,0.2-0.3,0.2c-0.2,0-0.2-0.3-0.6-0.6
				C78.8,41.2,78.5,40.8,78.8,40.5z"/>
			<path class="st5" d="M80.2,42.3c-0.2,0.1-0.4-0.1-0.3,0.2c0.1,0.3,0.2,0.6,0.5,0.4c0.3-0.2,0.4-0.4,0.3-0.5
				C80.6,42.4,80.5,42.2,80.2,42.3z"/>
			<path class="st5" d="M82.3,40.8c-0.3,0-0.2-0.1-0.5,0.4c-0.3,0.5-0.3,0.5-0.3,0.8c0,0.4,0,0.1,0.2,0.4c0.2,0.3,0,0.7,0.2,0.3
				c0.2-0.4,0.2-0.3,0.4-0.6c0.2-0.3,0.3-0.3,0.3-0.6C82.5,41.2,82.7,40.8,82.3,40.8z"/>
			<path class="st5" d="M78,41.1c0.6-0.1,0.4,0.7,0.6,1.1c0.2,0.3,0.7,0.3,0.5,0.6c-0.2,0.3-0.5,0.4-0.5,0.4s-0.4,0-0.6-0.4
				c-0.2-0.4-0.5-0.8-0.5-0.8S77.5,41.2,78,41.1z"/>
			<path class="st5" d="M79.1,43.3c0.2-0.1,0.2-0.4,0.3-0.2c0.1,0.2,0.3,0.3,0.1,0.3C79.2,43.5,79.1,43.3,79.1,43.3z"/>
			<path class="st5" d="M81.2,42.9C81,43,81,42.9,81,43.2c0,0.2-0.2,0.4,0,0.2c0.3-0.2,0.3-0.3,0.4-0.4
				C81.5,42.8,81.4,42.7,81.2,42.9z"/>
			<path class="st5" d="M80,43.3c0.2,0.1,0.3,0.1,0.4,0c0.1,0,0.2-0.3,0.2-0.1c0,0.2,0,0.3-0.1,0.3c-0.2,0-0.3,0-0.4,0
				c-0.1,0-0.2-0.2-0.2-0.2L80,43.3z"/>
		</g>
		<g>
			<path class="st7" d="M75.2,45.7c0,0-0.2,0.2-0.3,0.4c-0.1,0.2,0,0.6-0.4,0.6c-0.3,0.1-0.4,0-0.4,0.2c0,0.2,0.1,0.2,0,0.2
				c-0.1,0.1-0.3,0.4-0.2,0.4c0.1,0,0.3,0.2,0.3,0.2s-0.3,0.6-0.1,0.5c0.1-0.1,0.3,0,0.3,0.1c0,0.1,0,0.3,0,0.3
				c0.1,0,0.2,0.2,0.2,0.3c0,0.1,0.2,0.4,0.3,0.3c0.1-0.1,0.3,0.1,0.3,0.2c0,0.1,0.3,0.2,0.3,0.2s0.2,0,0.2,0.1
				c0,0.1,0.3,0.1,0.3,0.1l0.3-0.1l0.1,0c0,0,0.1-0.2,0.1-0.1c0,0.1,0.3,0.4,0.4,0.3c0.1-0.1,0.2-0.2,0.2-0.2l0.2,0.2
				c0,0,0.3-0.3,0.3-0.3c0,0.1,0.2,0.1,0.2,0.1l0.2-0.1l0.3-0.1c0,0,0-0.3,0.1-0.3c0.1,0,0.1,0.1,0.2,0c0.1-0.1,0-0.3,0.1-0.2
				c0.1,0,0.4,0,0.4-0.1c0-0.1,0-0.3,0.1-0.3c0.1,0,0.3-0.2,0.3-0.2s-0.2-0.2,0-0.2c0.1,0,0.3-0.2,0.2-0.2c-0.1,0,0-0.2,0.1-0.2
				c0.1,0,0.1,0,0-0.2c-0.1-0.2-0.1-0.3,0-0.4c0.1-0.2,0-0.2-0.2-0.3c-0.2-0.1-0.4-0.3-0.3-0.4c0.1,0-0.1-0.2-0.3-0.4
				c-0.2-0.2,0-0.3-0.2-0.4c-0.3-0.3-0.4-0.3-0.4-0.3s-0.2-0.3,0-0.7c0.2-0.4,0.5-0.6,0.5-0.6S78.7,44,78.5,44c-0.3,0-0.4-0.1-0.4,0
				c0,0.1,0.2,0.2,0,0.3c-0.1,0.2-0.3,0.3-0.5,0.3c-0.2,0-0.2-0.5-0.4-0.6c-0.1-0.1-0.4-0.3-0.4-0.3s-0.2,0.2-0.3,0.5
				c-0.1,0.3-0.1,0.6-0.4,0.6c-0.3,0-0.4-0.1-0.5-0.2c-0.1-0.1-0.2-0.2-0.2-0.3c0-0.1,0.2-0.3,0-0.2c-0.1,0-0.4,0-0.6,0.1
				c-0.2,0.1-0.4,0.2-0.4,0.2S75.3,45.1,75.2,45.7z"/>
			<path class="st5" d="M75.4,45.4c0,0-0.8-1.1-0.7-1c0,0.1,0.3-0.2,0.5-0.1c0.2,0.2,0.2,0.5,0.6,0.6c0.4,0.1,0.6-0.2,0.6-0.3
				c0-0.1,0.4-0.8,0.4-0.8s0.4,0.1,0.5,0.4c0.1,0.3,0.2,0.5,0.2,0.5s0.1,0.2,0.3,0c0.2-0.2,0.5-0.6,0.6-0.6c0.2,0,0.4,0.1,0.4,0.1
				s-0.3,0.3-0.4,0.7c-0.1,0.4-0.1,0.6-0.1,0.6S76.5,45.1,75.4,45.4z"/>
			<path class="st5" d="M75.5,45.7c0,0-0.1,0.5,0,0.6c0.2,0.1,0.3,0.2,0.9,0.2c0.5-0.1,0.5,0.1,0.5-0.1c0-0.2,0.1-0.3,0.1-0.3
				s-0.1,0.2,0.2,0.3c0.2,0.1,1.2,0,1.2,0s0-0.4-0.2-0.7C77.9,45.5,76.1,45.2,75.5,45.7z"/>
			<path class="st5" d="M75.6,46.7c0,0,0.3,0.6,0.7,0.4c0.4-0.1,0.4-0.4,0.5-0.4c0.1,0,0.3-0.1,0.4,0c0.1,0.1,0.1,0.5,0.4,0.4
				c0.3-0.1,0.2-0.4,0.5-0.5c0.2,0,0.6,0.1,0.4,0.5c-0.2,0.4-0.4,0.4-0.5,0.8c-0.1,0.4,0,0.6-0.4,0.5c-0.4-0.1-0.6-0.3-0.5-0.3
				c0.2-0.1,0.5-0.2,0.2-0.3c-0.3-0.1-0.9,0-0.7,0.1c0.1,0.1,0.2,0.1,0.2,0.3c0,0.1-0.1,0.2-0.3,0.2c-0.2,0-0.2-0.3-0.6-0.6
				C75.6,47.3,75.3,47,75.6,46.7z"/>
			<path class="st5" d="M77,48.5c-0.2,0.1-0.4-0.1-0.3,0.2c0.1,0.3,0.2,0.6,0.5,0.4c0.3-0.2,0.4-0.4,0.3-0.5
				C77.4,48.6,77.3,48.4,77,48.5z"/>
			<path class="st5" d="M79.1,47c-0.3,0-0.2-0.1-0.5,0.4c-0.3,0.5-0.3,0.5-0.3,0.8c0,0.4,0,0.1,0.2,0.4c0.2,0.3,0,0.7,0.2,0.3
				c0.2-0.4,0.3-0.3,0.4-0.6c0.2-0.3,0.3-0.3,0.3-0.6C79.3,47.4,79.5,47,79.1,47z"/>
			<path class="st5" d="M74.8,47.3c0.6-0.1,0.4,0.7,0.6,1.1c0.2,0.3,0.7,0.3,0.5,0.6c-0.2,0.3-0.5,0.4-0.5,0.4s-0.4,0-0.6-0.4
				c-0.1-0.4-0.4-0.8-0.4-0.8S74.3,47.3,74.8,47.3z"/>
			<path class="st5" d="M76,49.5c0.2-0.1,0.2-0.4,0.3-0.2c0.1,0.2,0.2,0.3,0.1,0.3C76,49.6,76,49.5,76,49.5z"/>
			<path class="st5" d="M78,49c-0.2,0.1-0.2,0.1-0.2,0.3c0,0.2-0.2,0.4,0,0.2s0.3-0.3,0.4-0.4C78.3,49,78.2,48.9,78,49z"/>
			<path class="st5" d="M76.9,49.5c0.2,0.1,0.3,0.1,0.4,0c0.1,0,0.2-0.3,0.2-0.1c0,0.2,0,0.3-0.1,0.3c-0.2,0-0.3,0-0.4,0
				c-0.1,0-0.2-0.2-0.2-0.2L76.9,49.5z"/>
		</g>
		<path d="M98.5,48.4c0,0-1.2,0.1-1-0.2c0.2-0.3,0.3-0.4,0.6-0.5c0.3-0.1,0.7-0.4,1-0.3c0.3,0.1,0.3,0.3,0.6,0.6
			c0.3,0.3,0.8,0.7,1.9,0.9c1.1,0.2,2.5-0.2,3.1,0.2c0.7,0.5,0.4,0.8,1.3,1.1c0.9,0.3,1.7,0.1,2.4,0.3c0.7,0.2,1.3,0.3,0.6,0.6
			c-0.7,0.3-1.1,0.4-1.9,0.1c-0.8-0.3-1.3-0.3-1.3-0.3s-0.1,0.3,0.4,0.6c0.6,0.4,0.6,0.4,0.6,0.8c-0.1,0.5,0.1,0.7-0.2,0.8
			c-0.3,0.1-0.6,0-0.4-0.3c0.2-0.3,0.2-0.7-0.1-0.9c-0.3-0.1-0.6-0.1-1-0.4c-0.3-0.2-0.3-0.4-0.5-0.3c-0.2,0-0.2,0.3-0.5,0.4
			c-0.3,0.1-0.6,0.3-1.2,0c-0.6-0.3-1-0.7-0.6-0.6c0.4,0.1,0.5,0.3,0.8,0.2c0.3-0.1,0.4-0.3,0.3-0.3c-0.1,0,0.6-0.1,0.4-0.4
			c-0.2-0.3-0.7-0.6-1.5-0.6c-0.7,0-0.9,0.3-1.3,0.3c-0.1,0-0.2,0-0.2,0c-0.6,0-0.9-0.1-1.5,0c-0.6,0.1-0.8,0.3-1.3,0.4
			c-0.4,0-0.8-0.3-0.6-0.3c0.2-0.1,0.3,0.1,0.6,0c0.3-0.1,0.8-0.2,0.8-0.4c-0.1-0.2-1-0.1-1.3-0.1c-0.3,0-0.7-0.1-0.7-0.4
			c0-0.3,0.2-0.2,0.4-0.1c0.3,0.1,0.6,0.1,1,0.1c0.4-0.1,0.5,0,0.4-0.2C99,48.9,98.9,48.4,98.5,48.4z"/>
		<path class="st3" d="M101.5,50.3c0,0,0.5,0.2,1.1,0.4c0.6,0.2,0.7,0.2,1,0.2c0.3-0.1,0.8-0.2,0.4-0.6c-0.4-0.3-0.3-0.5-1.2-0.5
			c-0.8,0-1,0.1-1.4,0.2c-0.4,0.1-0.6,0.1-0.6,0.1S101.2,50.3,101.5,50.3z"/>
		<path class="st8" d="M69.4,37.3l-8.9-5l-6.3,7.5l0,0l4.3,14.7c0.4-0.1,0.8-0.2,1.3-0.3c3.1-0.8,7.2-1.1,10.6-1.3L69.4,37.3
			L69.4,37.3z M92.5,32.3l-8.9,5l-0.1,0l-0.8,15.6c3.4,0.2,7.4,0.5,10.5,1.3c0.5,0.1,1.1,0.3,1.6,0.4l3.9-14.8L92.5,32.3z"/>
		<path class="st5" d="M86,41.1l-0.8-0.5c0,0-0.4,0.2-0.1,0.6c0.3,0.5,0.7,0.8,0.6,0.8c-0.1,0-0.3,0.7-0.7,1.2
			c-0.4,0.5-0.4,0.9,0,0.9c0.5,0,0.9-0.2,1-0.2c0.1,0,0.3,0.4,0.4,0.8c0.1,0.4-0.3,0.4-0.4,1.1c-0.1,0.8,0.3,1.2,0.3,1.8
			c-0.1,0.5-1.2,2.5-1.2,2.5l1,0.1l1.1-2.2c0,0,0.4,0.1,0.6,0.2c0.1,0.2,0.2,0.5,0,1.4c-0.2,0.9-0.5,1.4-0.5,1.4s0.4,0.3,0.6,0.3
			c0.3,0,0.4-0.2,0.4-0.2s-0.4-0.8,0.4-1.6c0.8-0.8,1.1-1.2,1.1-1.2l1.8,0.1l-0.9,1.8h0.9l1.3-1.9c0,0,0.4-0.3,0.7,0.1
			c0.3,0.4,0.4,0.8,0.2,1.3c-0.2,0.5-0.8,1.2-0.8,1.2l1,0.2c0,0,0.9-1.4,1.1-2c0.2-0.7,0-2.1,0.3-2.7c0.2-0.6,0.5-1,0.5-1.2
			c0-0.2,0.1-0.4,0.1-0.9c0-0.4-0.1-0.9-0.1-0.9s-0.5,0.4-1.1,0.6c-0.6,0.2-3,0.2-4,0.1c-1-0.1-1,0.1-1.5-0.4c-0.5-0.4-0.7-1-0.7-1
			s0.4,0,0.9-0.4c0.5-0.4,0.6-0.6,0.6-0.6s-1,0.2-1.3,0.1c-0.2-0.1-0.3-0.4-0.4-0.5c-0.1-0.1-0.7-0.6-1.1-0.7
			c-0.4-0.1-0.6,0-0.8,0.1C86.2,40.9,86,41.1,86,41.1z"/>
		<path class="st1" d="M87,40.5c0-0.1,0.9-1.3,2.6-1c1.7,0.3,1.6,0.7,2.7,0.7c1,0,1.4-0.4,1.4-0.4s-0.3,0.9-1.4,0.9
			c-1.1,0-2-0.8-3.1-0.5c-1,0.3-1.6,0.9-1.6,0.9S86.7,41,87,40.5z"/>
		<path class="st1" d="M87.8,41.1c0,0,0.6-1,2-0.7c1.4,0.3,1.3,0.9,2.8,1c1.5,0.1,2.3-0.2,2.3-0.2s-0.4,1.2-2.7,0.9
			c-2.3-0.3-2.5-0.8-3.2-0.7c-0.7,0.1-0.5,0.4-0.5,0.4S87.6,41.5,87.8,41.1z"/>
		<path class="st1" d="M84.5,50.8c0-0.1,0.5-0.8,0.5-0.8l1.1,0.1c0,0,0,0.7-0.4,0.8C85.2,51,84.5,50.8,84.5,50.8z"/>
		<path class="st1" d="M86.6,51.6c0-0.1,0.5-0.7,0.5-0.7s0.4,0.3,0.7,0.2c0.3-0.1,0.4-0.1,0.4-0.1c-0.1,0,0,0.4-0.5,0.6
			C87.2,51.9,86.7,51.8,86.6,51.6z"/>
		<path class="st1" d="M90,50.7l0.5-0.5c0,0,0.6,0.1,0.6,0.1c0.1,0,0.5-0.1,0.4,0c-0.1,0.1-0.3,0.6-0.4,0.6c-0.1,0-1.1,0-1.1,0
			L90,50.7z"/>
		<path class="st1" d="M92.3,51.4l0.6-0.5l1.1,0.3c0,0,0,0.3-0.4,0.5c-0.4,0.2-1.2,0.1-1.2,0.1S92,51.5,92.3,51.4z"/>
		<path class="st9" d="M86.6,42.2c0,0,0.4-0.2,0.5-0.2c0.1,0,0.6,0.1,0.4,0.2c-0.2,0.1-0.2,0.3-0.4,0.3
			C86.8,42.3,86.6,42.2,86.6,42.2z"/>
		<path class="st1" d="M54.2,39.8c0,0,3.7-1.9,7.7-2.3c4-0.4,7.5-0.2,7.5-0.2l0.2,3.8c0,0-4.3-0.1-7.7,0.4c-3.4,0.5-6.7,1.8-6.7,1.8
			L54.2,39.8z"/>
		<path class="st1" d="M56.2,46.7c0,0,3-1.4,7.2-1.6c4.2-0.2,6.5-0.2,6.5-0.2l0.4,4.2c0,0-3.2-0.1-6.2,0.3c-3,0.4-6.6,1.6-6.6,1.6
			L56.2,46.7z"/>
		<path class="st1" d="M77.3,124.2c-15.4,0-23-7.4-26.6-13.6c-3.8-6.5-4.1-12.8-4.2-13.6v0v0v0V62v-0.8v-0.8v-0.8h0.8h0.7h0.8h55.7
			h0.8h0.8h0.8v0.8v0.8V62v36.2c0,0.4,0.2,10.4-7.2,18C94.4,121.5,86.9,124.2,77.3,124.2L77.3,124.2z"/>
		<path class="st3" d="M77.3,123.5c-15.1,0-22.4-7.2-26-13.2c-3.7-6.3-4-12.5-4-13.2l0,0v0V62v-0.8v-0.8h0.8h0.8h55.7h0.8h0.8v0.8
			V62v36.2c0,0.4,0.2,10.2-7,17.5C94,120.9,86.7,123.5,77.3,123.5L77.3,123.5z"/>
		<path class="st1" d="M77.3,122.7c-14.7,0-21.9-7-25.3-12.8c-3.7-6.3-3.9-12.6-4-12.8v0v0V62v-0.8h0.8h55.7h0.8V62v36.2
			c0,0.4,0.2,9.9-6.8,17C93.6,120.2,86.5,122.7,77.3,122.7L77.3,122.7z"/>
		<path class="st3" d="M104.5,62H48.8V97c0,0,0.7,25,28.5,25c27.8,0,27.2-23.8,27.2-23.8V62z"/>
		<path class="st1" d="M48.8,62v12.3h55.7V62H48.8z M77.3,122c13.8,0,20.6-5.9,24-11.8H53.1C56.8,116.2,63.9,122,77.3,122z M48.8,97
			c0,0,0,0.4,0.1,1h55.6V86.2H48.8V97z"/>
		<path class="st1" d="M59.7,117.1c2.3,1.6,5.2,3,8.6,3.8h2.9V62H59.7V117.1z M82.2,62v59.7c4.5-0.5,8-1.7,10.9-3.3V62H82.2z"/>
		<path class="st3" d="M59.7,98h11.5V86.2H59.7V98z M59.7,117.1c2.3,1.6,5.2,3,8.6,3.8h2.9v-10.8H59.7V117.1z M59.7,74.2h11.5V62
			H59.7V74.2z M82.2,98H93V86.2H82.2V98z M82.2,62v12.3H93V62H82.2z M82.2,121.7c4.5-0.5,8-1.7,10.9-3.3v-8.2H82.2V121.7z"/>
	</g>
</g>
</svg>
