<?xml version="1.0" encoding="UTF-8" standalone="no"?>
<!DOCTYPE svg PUBLIC "-//W3C//DTD SVG 1.1//EN" "http://www.w3.org/Graphics/SVG/1.1/DTD/svg11.dtd">
<svg width="100%" height="100%" viewBox="0 0 48 37" version="1.1" xmlns="http://www.w3.org/2000/svg" xmlns:xlink="http://www.w3.org/1999/xlink" xml:space="preserve" xmlns:serif="http://www.serif.com/" style="fill-rule:evenodd;clip-rule:evenodd;stroke-linejoin:round;stroke-miterlimit:2;">
    <g id="Vector_Smart_Object" transform="matrix(0.946429,0,0,0.946429,-355.051,-1048.4)">
        <path id="Color_Overlay" d="M395.856,1141.88C395.854,1141.83 395.853,1141.78 395.853,1141.72C395.853,1139.38 397.783,1137.45 400.129,1137.45C402.475,1137.45 404.405,1139.38 404.405,1141.72C404.405,1144.07 402.475,1146 400.129,1146C397.827,1146.04 395.898,1144.18 395.856,1141.88ZM399.98,1128.99C396.515,1128.98 393.169,1130.27 390.611,1132.61L385.6,1127.78C393.642,1120.18 406.389,1120.2 414.4,1127.83L409.4,1132.66C406.837,1130.29 403.469,1128.98 399.98,1128.99ZM399.96,1115.93C392.931,1115.9 386.15,1118.56 381.011,1123.36L376,1118.52C389.403,1105.86 410.65,1105.91 424,1118.62L419,1123.45C413.852,1118.6 407.033,1115.9 399.96,1115.93Z" style="fill:rgb(1,58,151);fill-rule:nonzero;"/>
    </g>
</svg>
