<?xml version="1.0" encoding="UTF-8" standalone="no"?>
<!DOCTYPE svg PUBLIC "-//W3C//DTD SVG 1.1//EN" "http://www.w3.org/Graphics/SVG/1.1/DTD/svg11.dtd">
<svg width="100%" height="100%" viewBox="0 0 23 23" version="1.1" xmlns="http://www.w3.org/2000/svg" xmlns:xlink="http://www.w3.org/1999/xlink" xml:space="preserve" xmlns:serif="http://www.serif.com/" style="fill-rule:evenodd;clip-rule:evenodd;stroke-linejoin:round;stroke-miterlimit:2;">
    <g id="Group_30">
        <g id="Rounded_Rectangle_723_copy">
            <path d="M21.382,5.04C21.382,2.833 19.59,1.04 17.382,1.04L5.118,1.04C2.91,1.04 1.118,2.833 1.118,5.04L1.118,17.578C1.118,19.786 2.91,21.578 5.118,21.578L17.382,21.578C19.59,21.578 21.382,19.786 21.382,17.578L21.382,5.04Z" style="fill:rgb(240,106,8);stroke:rgb(240,106,8);stroke-width:1px;"/>
        </g>
        <g id="Vector_Smart_Object_copy_22">
            <path id="Color_Overlay" d="M8.752,14.942L5.452,11.882C5.163,11.622 4.997,11.252 4.997,10.862C4.997,10.472 5.163,10.102 5.452,9.842C6.074,9.282 7.03,9.282 7.652,9.842L9.852,11.882L15.347,6.782C15.969,6.222 16.925,6.222 17.547,6.782C17.837,7.042 18.002,7.412 18.002,7.802C18.002,8.192 17.837,8.562 17.547,8.822L10.953,14.942C10.331,15.502 9.375,15.502 8.753,14.942L8.752,14.942Z" style="fill:white;fill-rule:nonzero;"/>
        </g>
    </g>
</svg>
