<?xml version="1.0" encoding="UTF-8" standalone="no"?>
<!DOCTYPE svg PUBLIC "-//W3C//DTD SVG 1.1//EN" "http://www.w3.org/Graphics/SVG/1.1/DTD/svg11.dtd">
<svg width="100%" height="100%" viewBox="0 0 60 38" version="1.1" xmlns="http://www.w3.org/2000/svg" xmlns:xlink="http://www.w3.org/1999/xlink" xml:space="preserve" xmlns:serif="http://www.serif.com/" style="fill-rule:evenodd;clip-rule:evenodd;stroke-linejoin:round;stroke-miterlimit:2;">
    <g id="Vector_Smart_Object" transform="matrix(1,0,0,1,-324,-1396)">
        <path id="Color_Overlay" d="M356.51,1430.58C356.518,1428.7 358.066,1427.16 359.945,1427.16C359.953,1427.16 359.96,1427.16 359.968,1427.16C363.958,1427.16 367.836,1425.82 370.968,1423.35C370.891,1423.35 370.776,1423.36 370.699,1423.36C363.126,1423.42 356.838,1417.25 356.747,1409.68C356.747,1409.67 356.747,1409.65 356.747,1409.64C356.747,1402.16 362.904,1396 370.386,1396C370.41,1396 370.433,1396 370.457,1396C370.472,1396 370.486,1396 370.501,1396C377.907,1396 384.001,1402.09 384.001,1409.5C384.001,1409.56 384.001,1409.61 384,1409.67L384,1409.75C384,1423.05 373.054,1434 359.752,1434C359.721,1434 359.689,1434 359.658,1434C357.922,1433.99 356.501,1432.55 356.501,1430.82C356.501,1430.74 356.504,1430.66 356.51,1430.58ZM324,1430.58C324.009,1428.7 325.557,1427.16 327.436,1427.16C327.444,1427.16 327.451,1427.16 327.459,1427.16C331.449,1427.16 335.327,1425.82 338.459,1423.35C338.382,1423.35 338.269,1423.36 338.193,1423.36C330.621,1423.42 324.334,1417.25 324.245,1409.68C324.245,1409.68 324.245,1409.68 324.245,1409.67C324.245,1402.19 330.404,1396.03 337.888,1396.03C345.371,1396.03 351.529,1402.19 351.531,1409.67L351.531,1409.74C351.531,1423.05 340.578,1434 327.267,1434C327.234,1434 327.201,1434 327.168,1434C325.422,1433.99 323.992,1432.55 323.992,1430.8C323.992,1430.73 323.995,1430.65 324,1430.58Z" style="fill:rgb(7,74,119);fill-rule:nonzero;"/>
    </g>
</svg>
