<?xml version="1.0" encoding="UTF-8" standalone="no"?>
<!DOCTYPE svg PUBLIC "-//W3C//DTD SVG 1.1//EN" "http://www.w3.org/Graphics/SVG/1.1/DTD/svg11.dtd">
<svg width="100%" height="100%" viewBox="0 0 46 52" version="1.1" xmlns="http://www.w3.org/2000/svg" xmlns:xlink="http://www.w3.org/1999/xlink" xml:space="preserve" xmlns:serif="http://www.serif.com/" style="fill-rule:evenodd;clip-rule:evenodd;stroke-linejoin:round;stroke-miterlimit:2;">
    <g transform="matrix(0.923059,0,0,0.940463,-465.328,-455.796)">
        <g id="Vector_Smart_Object">
            <path id="Color_Overlay" d="M505.122,493.376C513.599,494.47 522.103,491.415 527.945,485.176C533.814,491.375 542.297,494.422 550.769,493.376C550.946,493.376 554.308,531.416 528.122,537.001C501.937,531.416 505.122,493.376 505.122,493.376ZM528.369,533.235C549.389,528.839 548.91,496.244 546.169,496.342C535.199,497.564 528.83,491.108 528.122,490.061C523.34,494.843 516.574,497.425 509.899,496.342C506.139,495.732 508.556,528.939 528.369,533.235Z" style="fill:rgb(1,58,151);fill-rule:nonzero;"/>
        </g>
    </g>
</svg>
