<?xml version="1.0" encoding="UTF-8" standalone="no"?>
<!DOCTYPE svg PUBLIC "-//W3C//DTD SVG 1.1//EN" "http://www.w3.org/Graphics/SVG/1.1/DTD/svg11.dtd">
<svg width="100%" height="100%" viewBox="0 0 24 18" version="1.1" xmlns="http://www.w3.org/2000/svg" xmlns:xlink="http://www.w3.org/1999/xlink" xml:space="preserve" xmlns:serif="http://www.serif.com/" style="fill-rule:evenodd;clip-rule:evenodd;stroke-linejoin:round;stroke-miterlimit:2;">
    <g id="Vector_Smart_Object" transform="matrix(1,0,0,1,-1509,-1120)">
        <g transform="matrix(1.00459,0,0,1.00956,1508.89,1119.83)">
            <rect x="0.063" y="0.031" width="23.953" height="17.984" style="fill:white;"/>
        </g>
        <g transform="matrix(1,0,0,1,1509,1120)">
            <rect x="19.618" y="10.712" width="0.377" height="0.126" style="fill:white;"/>
        </g>
        <g transform="matrix(1,0,0,1,1509,1120)">
            <rect x="8.529" y="2.136" width="0.346" height="0.063" style="fill:white;"/>
        </g>
        <g id="Color_Overlay" transform="matrix(0.821317,0,0,0.75304,272.178,278.213)">
            <path d="M1517.35,1137.78L1515.23,1135.64C1514.93,1135.34 1514.46,1134.86 1514.16,1134.57L1509.22,1129.38C1509.08,1129.24 1509,1129.04 1509,1128.84C1509,1128.64 1509.08,1128.45 1509.22,1128.31L1511.39,1126.36C1511.53,1126.22 1511.72,1126.14 1511.92,1126.14C1512.12,1126.14 1512.31,1126.22 1512.45,1126.36L1517.35,1131.35C1517.49,1131.5 1517.68,1131.58 1517.88,1131.58C1518.08,1131.58 1518.27,1131.5 1518.41,1131.35L1529.59,1120.22C1529.73,1120.08 1529.92,1120 1530.12,1120C1530.32,1120 1530.52,1120.08 1530.65,1120.22L1532.78,1122.36C1533.07,1122.66 1533.07,1123.14 1532.78,1123.43L1518.41,1137.78C1518.12,1138.07 1517.64,1138.07 1517.35,1137.78L1517.35,1137.78Z" style="fill:rgb(240,107,8);fill-rule:nonzero;"/>
        </g>
    </g>
</svg>
