<?xml version="1.0" encoding="UTF-8" standalone="no"?>
<!DOCTYPE svg PUBLIC "-//W3C//DTD SVG 1.1//EN" "http://www.w3.org/Graphics/SVG/1.1/DTD/svg11.dtd">
<svg width="100%" height="100%" viewBox="0 0 32 37" version="1.1" xmlns="http://www.w3.org/2000/svg" xmlns:xlink="http://www.w3.org/1999/xlink" xml:space="preserve" xmlns:serif="http://www.serif.com/" style="fill-rule:evenodd;clip-rule:evenodd;stroke-linejoin:round;stroke-miterlimit:2;">
    <g id="Vector_Smart_Object" transform="matrix(1,0,0,1,-1072,-370)">
        <path id="Color_Overlay" d="M1072.08,375.96C1078.01,376.722 1083.94,374.541 1087.96,370.124C1092,374.512 1097.92,376.688 1103.84,375.96C1103.96,375.96 1106.3,403.028 1088.09,407C1069.87,403.027 1072.08,375.96 1072.08,375.96ZM1088.08,403.772C1102.48,400.672 1100.64,378.072 1100.64,378.072C1093.01,378.941 1088.58,374.348 1088.08,373.603C1084.79,376.988 1080.1,378.644 1075.41,378.072C1070.72,377.5 1073.68,400.667 1088.09,403.772L1088.08,403.772ZM1087.22,401.165L1098.05,389.121C1096.82,394.212 1094.24,400.048 1088.09,401.413C1087.79,401.347 1087.51,401.263 1087.22,401.164L1087.22,401.165ZM1082.55,398.433L1098.55,380.926C1098.55,381.795 1098.55,383.162 1098.42,384.775L1084.76,400.047C1083.93,399.654 1083.18,399.106 1082.55,398.433L1082.55,398.433ZM1077.5,380.058C1081.38,380.594 1085.29,379.202 1087.96,376.333C1090.04,378.594 1092.9,379.972 1095.96,380.182L1080.95,396.447C1076.76,389.99 1077.5,380.057 1077.5,380.057L1077.5,380.058Z" style="fill:rgb(240,106,8);fill-rule:nonzero;"/>
    </g>
</svg>
