<?xml version="1.0" encoding="UTF-8" standalone="no"?>
<!DOCTYPE svg PUBLIC "-//W3C//DTD SVG 1.1//EN" "http://www.w3.org/Graphics/SVG/1.1/DTD/svg11.dtd">
<svg width="100%" height="100%" viewBox="0 0 46 35" version="1.1" xmlns="http://www.w3.org/2000/svg" xmlns:xlink="http://www.w3.org/1999/xlink" xml:space="preserve" xmlns:serif="http://www.serif.com/" style="fill-rule:evenodd;clip-rule:evenodd;stroke-linejoin:round;stroke-miterlimit:2;">
    <g id="Vector_Smart_Object" transform="matrix(1,0,0,1,-377,-1331)">
        <path id="Color_Overlay" d="M420.7,1366C420.28,1366 419.935,1365.65 419.935,1365.24C419.935,1364.82 420.28,1364.47 420.7,1364.47L422.233,1364.47C422.653,1364.47 422.998,1364.82 422.998,1365.24C422.998,1365.65 422.653,1366 422.233,1366L420.7,1366ZM377.766,1366C377.346,1366 377.001,1365.65 377.001,1365.24C377.001,1364.82 377.346,1364.47 377.766,1364.47L380.066,1364.47L380.066,1335.4L396.933,1335.4L396.933,1364.47L398.467,1364.47L398.467,1352.23C398.467,1351.39 399.159,1350.69 400,1350.69C400.841,1350.69 401.533,1351.39 401.533,1352.23L401.533,1364.47L417.633,1364.47C418.053,1364.47 418.398,1364.81 418.398,1365.23C418.398,1365.65 418.053,1366 417.633,1366C417.633,1366 377.766,1366 377.766,1366ZM382.366,1354.53L382.366,1361.41C382.37,1362.25 383.061,1362.94 383.9,1362.94L393.1,1362.94C393.939,1362.94 394.63,1362.25 394.634,1361.41L394.634,1354.53C394.629,1353.69 393.938,1353 393.1,1353L383.9,1353C383.062,1353 382.372,1353.69 382.367,1354.53L382.366,1354.53ZM399.708,1352.29C399.614,1352.33 399.528,1352.38 399.455,1352.45L399.362,1352.57C399.333,1352.61 399.31,1352.66 399.294,1352.71C399.271,1352.75 399.256,1352.8 399.248,1352.84C399.239,1352.89 399.234,1352.95 399.233,1353C399.234,1353.1 399.255,1353.2 399.294,1353.29C399.331,1353.38 399.386,1353.47 399.455,1353.54C399.53,1353.61 399.615,1353.66 399.708,1353.7C399.801,1353.74 399.9,1353.76 400,1353.76C400.051,1353.76 400.102,1353.76 400.153,1353.75C400.201,1353.74 400.247,1353.72 400.291,1353.7C400.34,1353.68 400.387,1353.66 400.43,1353.63L400.544,1353.54C400.613,1353.47 400.668,1353.38 400.705,1353.29C400.745,1353.2 400.765,1353.1 400.766,1353C400.765,1352.95 400.76,1352.89 400.751,1352.84C400.743,1352.8 400.728,1352.75 400.705,1352.71C400.689,1352.66 400.666,1352.61 400.637,1352.57L400.544,1352.45C400.324,1352.24 399.993,1352.17 399.709,1352.29L399.708,1352.29ZM381.6,1338.46L381.6,1349.94C381.603,1350.78 382.294,1351.47 383.134,1351.47L393.867,1351.47C394.706,1351.47 395.397,1350.78 395.4,1349.94L395.4,1338.46C395.397,1337.62 394.706,1336.93 393.866,1336.93L383.134,1336.93C382.294,1336.93 381.603,1337.62 381.6,1338.46ZM400.926,1349.33L404.601,1345.66L404.601,1349.99L403.001,1351.59C402.764,1350.52 401.971,1349.66 400.926,1349.33L400.926,1349.33ZM406.133,1344.13L409.2,1341.07L409.2,1345.39L406.133,1348.45L406.133,1344.13ZM410.733,1339.54L413.799,1336.48L413.799,1340.81L410.733,1343.87L410.733,1339.54ZM415.333,1334.95L418.399,1331.89L418.399,1336.22L415.333,1339.28L415.333,1334.95ZM419.933,1331C419.935,1331 419.938,1331 419.94,1331C420.777,1331 421.466,1331.68 421.466,1332.52C421.466,1332.93 421.304,1333.32 421.016,1333.6L419.933,1334.68L419.933,1331ZM379.3,1333.87C379.3,1333.87 379.299,1333.87 379.299,1333.87C378.879,1333.87 378.534,1333.53 378.533,1333.11L378.533,1331.58L398.466,1331.58L398.466,1333.11C398.465,1333.53 398.119,1333.87 397.699,1333.87L379.3,1333.87Z" style="fill:rgb(1,58,151);fill-rule:nonzero;"/>
    </g>
</svg>
