<svg xmlns="http://www.w3.org/2000/svg" xmlns:xlink="http://www.w3.org/1999/xlink" width="17" height="16" viewBox="0 0 17 16">
  <defs>
    <linearGradient id="linear-gradient" y1="0.5" x2="1" y2="0.5" gradientUnits="objectBoundingBox">
      <stop offset="0" stop-color="#2871cc"/>
      <stop offset="1" stop-color="#003f9a"/>
    </linearGradient>
  </defs>
  <g id="Vector_Smart_Object" data-name="Vector Smart Object" transform="translate(-822 -617)">
    <g id="Vector_Smart_Object-2" data-name="Vector Smart Object" transform="translate(822 617)">
      <path id="Path_39" data-name="Path 39" d="M13.175,11.556a1.335,1.335,0,1,1,1.275-1.333A1.311,1.311,0,0,1,13.175,11.556Zm-9.35,0a1.335,1.335,0,0,1,0-2.667,1.335,1.335,0,0,1,0,2.667ZM1.85,6.222h13.3L13.329,1.778H3.672L1.85,6.222ZM1.7,12.444H15.3V8H1.7Zm12.75,1.778H2.55v.889A.874.874,0,0,1,1.7,16H.85A.874.874,0,0,1,0,15.111V6.222L2.108,1.077A1.7,1.7,0,0,1,3.672,0h9.656A1.7,1.7,0,0,1,14.89,1.077L17,6.222v8.889a.874.874,0,0,1-.85.889H15.3a.874.874,0,0,1-.85-.889Z"/>
    </g>
    <path id="Gradient_Overlay" data-name="Gradient Overlay" d="M837.3,633a.873.873,0,0,1-.85-.888v-.889h-11.9v.889a.873.873,0,0,1-.85.888h-.85a.874.874,0,0,1-.851-.888v-8.889l2.109-5.144A1.7,1.7,0,0,1,825.672,617h9.656a1.7,1.7,0,0,1,1.562,1.077l2.11,5.144v8.889a.873.873,0,0,1-.85.888Zm-13.6-3.555h13.6V625H823.7Zm13.451-6.223-1.822-4.444h-9.657l-1.822,4.444Zm-13.3,0h0Zm10.05,4a1.276,1.276,0,1,1,1.274,1.333A1.311,1.311,0,0,1,833.9,627.223Zm-9.35,0a1.276,1.276,0,1,1,1.274,1.333A1.311,1.311,0,0,1,824.55,627.223Z" fill="url(#linear-gradient)"/>
    <path id="Color_Overlay" data-name="Color Overlay" d="M837.3,633a.873.873,0,0,1-.85-.888v-.889h-11.9v.889a.873.873,0,0,1-.85.888h-.85a.874.874,0,0,1-.851-.888v-8.889l2.109-5.144A1.7,1.7,0,0,1,825.672,617h9.656a1.7,1.7,0,0,1,1.562,1.077l2.11,5.144v8.889a.873.873,0,0,1-.85.888Zm-13.6-3.555h13.6V625H823.7Zm13.451-6.223-1.822-4.444h-9.657l-1.822,4.444Zm-13.3,0h0Zm10.05,4a1.276,1.276,0,1,1,1.274,1.333A1.311,1.311,0,0,1,833.9,627.223Zm-9.35,0a1.276,1.276,0,1,1,1.274,1.333A1.311,1.311,0,0,1,824.55,627.223Z" fill="#f06a08"/>
  </g>
</svg>
