<?xml version="1.0" encoding="UTF-8" standalone="no"?>
<!DOCTYPE svg PUBLIC "-//W3C//DTD SVG 1.1//EN" "http://www.w3.org/Graphics/SVG/1.1/DTD/svg11.dtd">
<svg width="100%" height="100%" viewBox="0 0 38 41" version="1.1" xmlns="http://www.w3.org/2000/svg" xmlns:xlink="http://www.w3.org/1999/xlink" xml:space="preserve" xmlns:serif="http://www.serif.com/" style="fill-rule:evenodd;clip-rule:evenodd;stroke-linejoin:round;stroke-miterlimit:2;">
    <g id="Vector_Smart_Object" transform="matrix(1,0,0,1,-928,-3162)">
        <path id="Color_Overlay" d="M938.572,3196.56L931.559,3195.07L933.459,3192.29L939.089,3192.52L948.47,3177.83L928,3172.86L930.53,3169.15L953.216,3170.19L954.85,3167.74C955.731,3166.42 956.808,3165.23 958.044,3164.23L959.644,3163C960.837,3162.1 961.641,3161.81 962.057,3162.12C962.504,3162.45 962.515,3163.35 962.088,3164.82L961.498,3166.8C960.988,3168.36 960.25,3169.83 959.307,3171.17L957.653,3173.49L966,3195.58L963.47,3199.28L952.3,3180.69L942.056,3194.74L944.095,3200.22L942.2,3203L938.572,3196.56Z" style="fill:rgb(1,58,151);fill-rule:nonzero;"/>
    </g>
</svg>
