<svg xmlns="http://www.w3.org/2000/svg" width="47" height="47" viewBox="0 0 47 47"><g transform="translate(-1431 -1545)"><g transform="translate(1431 1545)"><ellipse cx="0.783" cy="0.783" rx="0.783" ry="0.783" transform="translate(22.717 42.301)"/><path d="M23.5,45.434c-13.528,0-21.933-1.95-21.933-5.09,0-2.569,5.617-4.346,15.408-4.91L18.495,37c-4.919.235-11.445,1.042-11.445,3.344,0,2.608,8.319,3.289,13.317,3.469a.783.783,0,1,0,0-1.566c-7.5-.266-10.967-1.347-11.679-1.9.689-.548,4.066-1.566,11.288-1.887l1.958,1.966a2.285,2.285,0,0,0,1.528.572,2.413,2.413,0,0,0,1.567-.6l1.927-1.934c7.277.29,10.646,1.339,11.343,1.887-.7.556-4.175,1.637-11.68,1.9a.783.783,0,1,0,0,1.566c4.958-.18,13.317-.861,13.317-3.469,0-2.3-6.525-3.132-11.444-3.383l1.52-1.566c9.807.642,15.424,2.381,15.424,4.949C45.433,43.484,37.028,45.434,23.5,45.434ZM10.183,18.024A13.317,13.317,0,1,1,23.5,31.337,13.378,13.378,0,0,1,10.183,18.024Zm21.644,15.96a18.017,18.017,0,1,0-16.654,0C5.1,34.736,0,36.874,0,40.343,0,45.825,12.776,47,23.5,47S47,45.849,47,40.343C47,36.874,41.9,34.736,31.827,33.984Z"/><path d="M25.067,16.067H21.933V12.934h3.133a1.566,1.566,0,1,1,0,3.132Zm0-7.831H19.583a2.361,2.361,0,0,0-2.35,2.349V25.464a2.35,2.35,0,0,0,4.7,0v-4.7h3.133a6.265,6.265,0,1,0,0-12.53Z"/></g><path d="M1431,1585.344c0-3.469,5.1-5.607,15.173-6.359a18.017,18.017,0,1,1,16.654,0c10.074.752,15.173,2.89,15.173,6.359,0,5.505-12.776,6.656-23.5,6.656S1431,1590.826,1431,1585.344Zm1.567,0c0,3.14,8.405,5.09,21.933,5.09s21.933-1.95,21.933-5.09c0-2.569-5.616-4.307-15.423-4.949l-1.52,1.566c4.919.25,11.444,1.081,11.444,3.383,0,2.607-8.357,3.289-13.316,3.469a.783.783,0,0,1,0-1.567c7.5-.266,10.983-1.346,11.679-1.9-.7-.548-4.065-1.6-11.343-1.887l-1.927,1.934a2.41,2.41,0,0,1-1.566.6,2.291,2.291,0,0,1-1.528-.572l-1.958-1.966c-7.222.321-10.6,1.339-11.288,1.887.713.556,4.175,1.636,11.68,1.9a.783.783,0,0,1,0,1.567c-5-.181-13.317-.862-13.317-3.469,0-2.3,6.526-3.109,11.444-3.344l-1.519-1.566C1438.183,1581,1432.567,1582.775,1432.567,1585.344Zm8.617-22.319a13.316,13.316,0,1,0,13.316-13.313A13.378,13.378,0,0,0,1441.184,1563.025Zm12.533,25.06a.783.783,0,1,1,.783.783A.783.783,0,0,1,1453.717,1588.085Zm-5.484-17.621v-14.879a2.361,2.361,0,0,1,2.35-2.35h5.484a6.265,6.265,0,1,1,0,12.531h-3.134v4.7a2.35,2.35,0,1,1-4.7,0Zm4.7-9.4h3.134a1.566,1.566,0,1,0,0-3.133h-3.134Z" fill="#00409b"/></g></svg>