<svg xmlns="http://www.w3.org/2000/svg" width="48" height="46.001" viewBox="0 0 48 46.001"><path d="M928.053,1569.286c0-10.814,8.554-19.714,18.947-19.714s18.948,8.9,18.948,19.714S957.394,1589,947,1589,928.053,1580.1,928.053,1569.286Zm4.21,0c0,8.411,6.653,15.333,14.737,15.333s14.737-6.922,14.737-15.333-6.652-15.333-14.737-15.333S932.263,1560.875,932.263,1569.286Zm5.053-.614,2.526-2.628,5.452,5.564,8.863-9.112,2.526,2.628-11.39,11.851ZM923,1555.573a28.739,28.739,0,0,1,4.652-6.418,27.088,27.088,0,0,1,8.695-6.156l1.643,3.965v.109a23.3,23.3,0,0,0-7.369,5.17,25.01,25.01,0,0,0-3.937,5.521Zm40.378-3.373a23.3,23.3,0,0,0-7.368-5.17l1.642-4.031a27.088,27.088,0,0,1,8.695,6.156,28.738,28.738,0,0,1,4.653,6.308l-3.685,2.191A25.02,25.02,0,0,0,963.379,1552.2Z" transform="translate(-923 -1543)" fill="#00409b"/></svg>