<svg xmlns="http://www.w3.org/2000/svg" width="32" height="32" viewBox="0 0 32 32">
  <path id="Color_Overlay" data-name="Color Overlay" d="M1888.309,878.953a15.171,15.171,0,0,1-17.956-17.75,8.58,8.58,0,0,1,7.229-13.2h0a8.551,8.551,0,0,1,4.495,1.273,15.165,15.165,0,0,1,17.946,18.167,8.584,8.584,0,0,1-11.715,11.514Zm1.027-1.9a6.418,6.418,0,0,0,9.488-5.633,6.336,6.336,0,0,0-.73-2.974l-.37-.7.173-.777a13,13,0,0,0-15.382-15.574l-.847.18-.724-.454a6.4,6.4,0,0,0-3.361-.95h0a6.413,6.413,0,0,0-5.4,9.868l.467.73-.164.85a13,13,0,0,0,15.389,15.214l.78-.16Zm-12.058-9.13c0-.037,0-.074,0-.111a1.708,1.708,0,0,1,1.7-1.7h.047c2.317,0,1.426,4.093,5.871,4.093,3.49,0,3.84-1.616,3.84-2.41,0-2.283-6.09-3.077-6.09-3.077s-5.174-.813-5.174-4.856c0-3.84,3.84-5.234,7.424-5.234,5.554,0,6.815,3.281,7.107,4.22a1.728,1.728,0,0,1-1.867,2c-1.534-.17-1.743-2.333-4.73-3.173-.917-.253-3.871.117-3.871,1.841,0,1.534,5,2.287,7.458,3.236,2.573,1,3.743,2.38,3.743,4.727,0,4.76-5.141,5.9-7.267,5.9C1878.737,873.377,1877.278,868.711,1877.278,867.92Z" transform="translate(-1869 -848)" fill="#00aae8"/>
</svg>
