<svg xmlns="http://www.w3.org/2000/svg" width="45" height="44" viewBox="0 0 45 44"><g transform="translate(-1600 -1544)"><g transform="translate(1600 1544)"><path d="M43.958,38.114,30.011,24.134c-1.847-1.851-.955-3.21-.955-3.21l-.008-.009a3.411,3.411,0,0,0-.644-3.9l-5.429-5.441a3.407,3.407,0,0,0-4.826,0l-.829.83-.088.089s-.381.759,1.355.86v0a2.792,2.792,0,0,1,1.578.85l1.922,1.926a2.169,2.169,0,0,1,.689,1.767,4.577,4.577,0,0,1-3.73,3.747,2.479,2.479,0,0,1-1.992-.872L15.6,19.311A4.293,4.293,0,0,1,14.483,17.2h0c-.355-1.614-.842-1.111-.842-1.111l-.919.92a3.426,3.426,0,0,0,0,4.837l5.428,5.439a3.4,3.4,0,0,0,4.091.546l.01.011s1.195-.757,2.8.856L39.527,43.21a2.4,2.4,0,0,0,3.419.069l1.369-1.372C44.778,41.388,45.758,39.917,43.958,38.114Z" fill="#241f20"/><path d="M28.834,36.211a1.985,1.985,0,0,0-2.257-.392l0-.009c-.119.04-.235.088-.356.125-.038.014-.062.03-.107.047a2.545,2.545,0,0,0-1.917,2.148v1.7a1.7,1.7,0,0,1-1.772,1.736h-.689c-1.478.03-1.743-.876-1.781-1.36V38.249c0-1.8-2-2.293-2-2.293l.006-.008a14.632,14.632,0,0,1-3.072-1.326c-.04-.018-.072-.028-.116-.05a2.529,2.529,0,0,0-2.828.334l-1.377,1.38c-.962.96-1.673.513-1.934.275l-.111-.113,0-.006h0L7.383,35.309l0,0c-.885-.886.266-2.1.42-2.258L9.142,31.7v0c1.035-1.037.222-2.652.222-2.652l.013,0a14.67,14.67,0,0,1-1.248-2.99c-.01-.028-.021-.045-.032-.074a2.635,2.635,0,0,0-2.435-1.857l-1.3.006c-1.528,0-1.8-.993-1.843-1.516l0-1.054a1.593,1.593,0,0,1,1.712-1.681h0L5.9,19.87A2.227,2.227,0,0,0,8.033,18.26c.008-.021.018-.033.025-.054a14.5,14.5,0,0,1,1.448-3.5v0a2.563,2.563,0,0,0-.491-2.963L7.878,10.6l0,0a1.535,1.535,0,0,1-.085-2.325l.593-.594a1.739,1.739,0,0,1,2.575,0l0,0,1.293,1.3a2.29,2.29,0,0,0,2.666.348l.013,0a14.572,14.572,0,0,1,2.934-1.245c.028-.011.042-.025.073-.038,1.656-.652,1.965-1.675,2.011-2.2V3.9a1.528,1.528,0,0,1,1.617-1.6H22.5a1.661,1.661,0,0,1,1.694,1.833V5.6a2.508,2.508,0,0,0,1.751,2.368l.007,0a14.27,14.27,0,0,1,2.763,1.1l.009-.008s1.992,1.239,3.5-.267l1.006-1.008c.047-.047,1.408-1.368,2.426-.348l0,0,.834.833a1.837,1.837,0,0,1-.262,2.51L35.1,11.911a2.717,2.717,0,0,0-.321,3.035c.015.032.015.051.028.082a14.614,14.614,0,0,1,1.233,3.03l.014-.011s.365,1.834,2,1.83l1.584-.007h.114c.046,0,1.935-.031,1.939,1.757l0,.751v.187c-.016.443-.226,1.548-1.982,1.555l-1.519,0a2.312,2.312,0,0,0-2.038,1.607,1.828,1.828,0,0,0,.508,1.977l.215.212.01.009c1.252,1.345,2.146-.539,2.146-.539a2.291,2.291,0,0,1,1.843-1.166h2.317a1.276,1.276,0,0,0,1.275-1.278V19.051a1.277,1.277,0,0,0-1.275-1.278h-2.21a2.261,2.261,0,0,1-2.171-1.612l-.015,0a17.582,17.582,0,0,0-.9-2.167l0-.006a2.289,2.289,0,0,1,.572-2.444l1.41-1.416a1.281,1.281,0,0,0,0-1.808L35.715,4.158a1.275,1.275,0,0,0-1.8,0L32.886,5.184a2.691,2.691,0,0,1-3.1.834l0,0a18.313,18.313,0,0,0-1.768-.741c-.028-.013-.048-.025-.077-.038a2.654,2.654,0,0,1-1.53-2.479V1.278A1.277,1.277,0,0,0,25.133,0H19.011a1.277,1.277,0,0,0-1.275,1.278V3.125a2.029,2.029,0,0,1-1.561,2.131l.009.009a18.081,18.081,0,0,0-1.975.828c-.011,0-.018,0-.029.006a1.852,1.852,0,0,1-2.156-.162l-.044-.044-.006-.008h0L10.249,4.154a1.277,1.277,0,0,0-1.8,0L4.282,8.318a1.279,1.279,0,0,0,0,1.807l1.382,1.386a2.345,2.345,0,0,1,.6,2.458v0a17.622,17.622,0,0,0-.889,2.11c-.018.038-.035.067-.052.11a2.33,2.33,0,0,1-2.041,1.582H1.275A1.277,1.277,0,0,0,0,19.051v5.894a1.276,1.276,0,0,0,1.275,1.278H3.565a1.712,1.712,0,0,1,1.636,1.2s.009-.022.015-.033a17.789,17.789,0,0,0,.944,2.4l-.008,0s.809,1.374-.1,2.283v0l-1.78,1.783a1.28,1.28,0,0,0,0,1.806l4.159,4.168a1.271,1.271,0,0,0,1.8,0l1.6-1.6,0,0,.071-.07A2.182,2.182,0,0,1,14.39,38a.269.269,0,0,0,.039.015,18.13,18.13,0,0,0,1.749.724l-.007.006a2.229,2.229,0,0,1,1.566,2.044v1.934A1.277,1.277,0,0,0,19.012,44h6.122a1.277,1.277,0,0,0,1.275-1.278V40.6a1.98,1.98,0,0,1,1.333-1.782c.042-.018.069-.033.1-.047.424-.148.831-.329,1.241-.5.99-.551.072-1.674.072-1.674Z" fill="#241f20"/></g><path d="M1639.526,1587.21l-14.474-14.508c-1.608-1.613-2.8-.855-2.8-.855l-.01-.012a3.4,3.4,0,0,1-4.091-.545l-5.429-5.44a3.426,3.426,0,0,1,0-4.836l.919-.922s.486-.5.841,1.111h0a4.3,4.3,0,0,0,1.113,2.107l1.456,1.463a2.48,2.48,0,0,0,1.993.872,4.58,4.58,0,0,0,3.73-3.747,2.17,2.17,0,0,0-.689-1.767l-1.921-1.927a2.79,2.79,0,0,0-1.579-.849v0c-1.736-.1-1.355-.859-1.355-.859l.089-.089.829-.831a3.41,3.41,0,0,1,4.827,0l5.429,5.441a3.409,3.409,0,0,1,.644,3.9l.009.009s-.892,1.361.955,3.211l13.947,13.98c1.8,1.8.82,3.274.357,3.793l-1.37,1.372a2.2,2.2,0,0,1-1.584.721A2.946,2.946,0,0,1,1639.526,1587.21Zm-20.515.788a1.278,1.278,0,0,1-1.275-1.278v-1.934a2.227,2.227,0,0,0-1.566-2.044l.007-.007a17.636,17.636,0,0,1-1.749-.725.3.3,0,0,1-.04-.014,2.178,2.178,0,0,0-2.478.165l-.071.069,0,.005-1.6,1.6a1.272,1.272,0,0,1-1.8,0l-4.159-4.169a1.278,1.278,0,0,1,0-1.805l1.779-1.784h0c.907-.908.1-2.283.1-2.283l.007,0a17.913,17.913,0,0,1-.943-2.4c-.006.011-.015.031-.015.031a1.711,1.711,0,0,0-1.635-1.2h-2.29a1.276,1.276,0,0,1-1.275-1.279v-5.895a1.277,1.277,0,0,1,1.275-1.277h2.011a2.332,2.332,0,0,0,2.041-1.581c.017-.044.034-.073.052-.112a17.651,17.651,0,0,1,.888-2.109v0a2.347,2.347,0,0,0-.6-2.458l-1.382-1.385a1.282,1.282,0,0,1,0-1.808l4.163-4.165a1.275,1.275,0,0,1,1.8,0l1.725,1.731.006.008.044.043a1.852,1.852,0,0,0,2.155.164c.012,0,.018,0,.029-.007a18.166,18.166,0,0,1,1.976-.828l-.009-.01a2.027,2.027,0,0,0,1.561-2.129v-1.849a1.277,1.277,0,0,1,1.276-1.277h6.122a1.276,1.276,0,0,1,1.275,1.277v1.487a2.655,2.655,0,0,0,1.53,2.48c.03.012.049.023.077.036a18.757,18.757,0,0,1,1.768.742l0,0a2.692,2.692,0,0,0,3.1-.834l1.025-1.026a1.276,1.276,0,0,1,1.8,0l4.159,4.167a1.281,1.281,0,0,1,0,1.808l-1.41,1.417a2.288,2.288,0,0,0-.571,2.444l0,.006a17.681,17.681,0,0,1,.9,2.166l.014,0a2.261,2.261,0,0,0,2.171,1.611h2.21a1.278,1.278,0,0,1,1.276,1.277v5.895a1.277,1.277,0,0,1-1.276,1.279h-2.317a2.288,2.288,0,0,0-1.842,1.165s-.894,1.885-2.146.54l-.01-.009-.216-.212a1.828,1.828,0,0,1-.508-1.977,2.311,2.311,0,0,1,2.039-1.607l1.519,0c1.755-.006,1.966-1.112,1.982-1.556v-.186l-.005-.751c0-1.789-1.893-1.758-1.939-1.758h-.113l-1.585.007c-1.632,0-2-1.83-2-1.83l-.014.012a14.571,14.571,0,0,0-1.233-3.029c-.014-.031-.014-.051-.028-.082a2.716,2.716,0,0,1,.321-3.035l1.127-1.13a1.837,1.837,0,0,0,.262-2.51l-.833-.833,0,0c-1.018-1.021-2.38.3-2.426.347l-1.005,1.007c-1.5,1.507-3.5.268-3.5.268l-.009.007a14.329,14.329,0,0,0-2.763-1.1l-.007,0a2.509,2.509,0,0,1-1.75-2.368v-1.461a1.662,1.662,0,0,0-1.694-1.832h-.929a1.529,1.529,0,0,0-1.617,1.6v1.936c-.046.528-.355,1.552-2.011,2.2-.031.012-.046.026-.074.036a14.68,14.68,0,0,0-2.934,1.246l-.013,0a2.29,2.29,0,0,1-2.666-.347l-1.293-1.3,0,0a1.74,1.74,0,0,0-2.575,0l-.592.594a1.535,1.535,0,0,0,.085,2.325l0,0,1.138,1.139a2.56,2.56,0,0,1,.491,2.962v0a14.474,14.474,0,0,0-1.448,3.5c-.007.02-.018.031-.026.053a2.228,2.228,0,0,1-2.136,1.61l-1.672.005h0a1.593,1.593,0,0,0-1.712,1.682l0,1.055c.041.522.316,1.516,1.843,1.515l1.305-.005a2.635,2.635,0,0,1,2.434,1.857c.011.029.023.048.032.075a14.665,14.665,0,0,0,1.247,2.991h-.014s.814,1.616-.221,2.653v0l-1.344,1.344c-.153.154-1.3,1.373-.419,2.259l0,0,1.131,1.133,0,.006.111.112c.261.237.973.686,1.934-.275l1.377-1.379a2.529,2.529,0,0,1,2.828-.335c.044.022.076.031.116.05a14.62,14.62,0,0,0,3.072,1.326l-.006.009s2,.5,2,2.293v1.954c.039.485.3,1.391,1.781,1.361h.689a1.7,1.7,0,0,0,1.772-1.736v-1.7a2.544,2.544,0,0,1,1.917-2.147c.044-.018.068-.033.106-.048.121-.037.238-.085.356-.125l0,.009a1.985,1.985,0,0,1,2.256.391l.323.384s.918,1.122-.072,1.673c-.41.177-.817.357-1.241.506-.033.014-.059.03-.1.047a1.978,1.978,0,0,0-1.332,1.781v2.12a1.277,1.277,0,0,1-1.275,1.278Z" fill="#00409b"/></g></svg>