<?xml version="1.0" encoding="UTF-8" standalone="no"?>
<!DOCTYPE svg PUBLIC "-//W3C//DTD SVG 1.1//EN" "http://www.w3.org/Graphics/SVG/1.1/DTD/svg11.dtd">
<svg width="100%" height="100%" viewBox="0 0 452 512" version="1.1" xmlns="http://www.w3.org/2000/svg" xmlns:xlink="http://www.w3.org/1999/xlink" xml:space="preserve" xmlns:serif="http://www.serif.com/" style="fill-rule:evenodd;clip-rule:evenodd;stroke-linejoin:round;stroke-miterlimit:2;">
    <g transform="matrix(1,0,0,1,0,-253.908)">
        <path d="M285.001,313.908L105.001,313.908C96.717,313.908 90.001,320.624 90.001,328.908L90.001,437C90.001,445.284 96.717,452 105.001,452L285.001,452C293.285,452 300.001,445.284 300.001,437L300.001,328.908C300.001,320.624 293.285,313.908 285.001,313.908ZM270.001,422L120.001,422L120.001,343.908L270.001,343.908L270.001,422Z" style="fill-rule:nonzero;"/>
    </g>
    <path d="M445.185,95.309C438.633,90.237 429.213,91.435 424.141,97.984L383.141,150.926C381.105,153.555 380,156.785 380,160.111L380,329.255L360,329.255L360,45C360,20.187 339.814,0 315,0L75,0C50.187,0 30,20.187 30,45L30,422L15,422C6.716,422 0,428.716 0,437L0,497C0,505.284 6.716,512 15,512L374.999,512C383.283,512 389.999,505.284 389.999,497L389.999,437C389.999,428.716 383.283,422 374.999,422L359.999,422L359.999,359.254L394.999,359.254C403.283,359.254 409.999,352.538 409.999,344.254L409.999,209.49L419.619,209.49C427.903,209.49 434.619,202.774 434.619,194.49L434.619,133.448L447.858,116.353C452.932,109.803 451.735,100.381 445.185,95.309ZM60.001,45C60.001,36.729 66.73,30 75.001,30L315.001,30C323.272,30 330.001,36.729 330.001,45L330.001,422L60.001,422L60.001,45ZM360,452L360,482L30,482L30,452L360,452Z" style="fill-rule:nonzero;"/>
    <g transform="matrix(1,0,0,1,0,-21.844)">
        <path d="M144.094,251.922L105.001,251.922C96.717,251.922 90.001,258.638 90.001,266.922C90.001,275.206 96.717,281.922 105.001,281.922L144.094,281.922C152.378,281.922 159.094,275.206 159.094,266.922C159.094,258.638 152.378,251.922 144.094,251.922Z" style="fill-rule:nonzero;"/>
    </g>
</svg>
