<svg xmlns="http://www.w3.org/2000/svg" width="48" height="48" viewBox="0 0 48 48"><g transform="translate(-1094 -1542)"><g transform="matrix(-1, 0, 0, -1, 1142, 1590)"><path d="M29.063,10.787l8.15,8.15-2.32,1.657-7.487-7.486Zm4.683,12.638a1.406,1.406,0,0,0,1.812.15L40.2,20.261a1.407,1.407,0,0,0,.177-2.139l-10.5-10.5A1.407,1.407,0,0,0,27.74,7.8l-3.314,4.641a1.406,1.406,0,0,0,.15,1.812Z"/><path d="M2.812,39.652l5.005-1.668a1.407,1.407,0,0,0,.889-.89l1.767-5.3,5.3-1.766a1.406,1.406,0,0,0,.55-2.329l-.994-.994,4.448-4.448,5.966,5.966L8.779,45.188H2.812ZM18.4,15.186,27.339,3.37a1.406,1.406,0,0,1,2.116-.146L44.776,18.545a1.4,1.4,0,0,1-.146,2.116L32.814,29.6a1.412,1.412,0,0,1-1.843-.127L18.525,17.029A1.412,1.412,0,0,1,18.4,15.186ZM1.406,48H9.361a1.407,1.407,0,0,0,.994-.412L27.731,30.213l1.251,1.251a4.236,4.236,0,0,0,5.529.381L46.327,22.9a4.22,4.22,0,0,0,.438-6.347L31.444,1.235a4.22,4.22,0,0,0-6.347.438L16.155,13.489a4.235,4.235,0,0,0,.381,5.529l1.251,1.251-5.443,5.443a1.406,1.406,0,0,0,0,1.989l.38.38L8.917,29.35a1.406,1.406,0,0,0-.889.889l-1.767,5.3L.962,37.3A1.406,1.406,0,0,0,0,38.638v7.955A1.406,1.406,0,0,0,1.406,48Z"/></g><path d="M1110.556,1588.766l-15.321-15.322a4.219,4.219,0,0,1,.437-6.347l11.817-8.942a4.236,4.236,0,0,1,5.529.381l1.251,1.251,17.375-17.375a1.4,1.4,0,0,1,.994-.411h7.955a1.406,1.406,0,0,1,1.407,1.406v7.955a1.408,1.408,0,0,1-.962,1.335l-5.3,1.766-1.767,5.3a1.406,1.406,0,0,1-.889.889l-3.808,1.27.38.38a1.407,1.407,0,0,1,0,1.989l-5.443,5.442,1.251,1.251a4.235,4.235,0,0,1,.381,5.529l-8.941,11.816a4.221,4.221,0,0,1-6.348.438Zm-1.37-28.367-11.816,8.942a1.405,1.405,0,0,0-.147,2.116l15.322,15.321a1.407,1.407,0,0,0,2.116-.146l8.942-11.817a1.411,1.411,0,0,0-.128-1.842l-12.445-12.446a1.413,1.413,0,0,0-1.843-.127Zm7.071,1.378,5.966,5.966,4.449-4.448-.995-.995a1.406,1.406,0,0,1,.55-2.328l5.3-1.767,1.767-5.3a1.407,1.407,0,0,1,.889-.89l5-1.668v-5.535h-5.966Zm-4.135,20.6-10.5-10.5a1.408,1.408,0,0,1,.177-2.139l4.64-3.314a1.4,1.4,0,0,1,1.812.15l9.171,9.17a1.406,1.406,0,0,1,.15,1.812l-3.315,4.64a1.406,1.406,0,0,1-2.138.177Zm-7.335-11.312,8.149,8.149,1.658-2.32-7.487-7.486Z" fill="#00409b"/></g></svg>