<?xml version="1.0" encoding="UTF-8" standalone="no"?>
<!DOCTYPE svg PUBLIC "-//W3C//DTD SVG 1.1//EN" "http://www.w3.org/Graphics/SVG/1.1/DTD/svg11.dtd">
<svg width="100%" height="100%" viewBox="0 0 512 512" version="1.1" xmlns="http://www.w3.org/2000/svg" xmlns:xlink="http://www.w3.org/1999/xlink" xml:space="preserve" xmlns:serif="http://www.serif.com/" style="fill-rule:evenodd;clip-rule:evenodd;stroke-linejoin:round;stroke-miterlimit:2;">
    <g id="viber__x2C__social__x2C__media__x2C__icons_x2C_">
        <g>
            <path d="M425.681,86.344C382.233,42.91 322.187,16.066 256.029,16.066C189.736,16.066 129.685,42.91 86.244,86.343C42.929,129.79 15.962,189.837 15.962,255.997C15.962,322.294 42.929,382.208 86.244,425.656C129.684,469.094 189.736,495.932 256.029,495.932C322.187,495.932 382.234,469.093 425.681,425.656C468.992,382.208 495.963,322.294 495.963,255.997C495.963,189.838 468.991,129.791 425.681,86.344ZM412.394,412.498C372.406,452.486 317.005,477.2 256.029,477.2C194.915,477.2 139.515,452.486 99.527,412.498C59.538,372.377 34.829,317.113 34.829,255.998C34.829,194.891 59.538,139.623 99.527,99.635C139.515,59.646 194.915,34.8 256.029,34.8C317.005,34.8 372.405,59.647 412.394,99.635C452.383,139.623 477.23,194.891 477.23,255.998C477.229,317.113 452.383,372.377 412.394,412.498Z" style="fill:rgb(253,195,0);fill-rule:nonzero;stroke:rgb(253,195,0);stroke-width:1px;"/>
            <path d="M266.055,159.023C320.121,167.253 343,192.492 353,245.772L353,247.092C353,252.008 351.352,258.391 357.854,258.391C363.569,258.524 363.27,254.275 363.27,250.154C363.005,248.696 362.722,247.499 362.722,246.306C363.384,195.946 318.479,149.191 266.665,147.591C262.549,148.253 255.065,144.932 254.405,153.568C254.268,159.289 261.531,158.484 266.055,159.023Z" style="fill:rgb(253,195,0);fill-rule:nonzero;stroke:rgb(253,195,0);stroke-width:1px;"/>
            <path d="M347.961,304.489C341.185,299.171 333.741,294.391 326.838,289.475C312.623,279.907 299.602,279.121 289.107,294.656C283.13,303.429 274.755,303.827 266.125,299.97C242.078,289.475 223.612,273.136 212.719,249.088C211.122,245.369 210.062,241.787 209.927,238.466C209.527,232.087 212.184,226.513 219.362,221.592C225.338,217.74 231.182,213.089 230.784,204.453C230.254,193.163 202.351,155.563 191.198,151.442C186.677,149.847 182.16,150.118 177.511,151.442C151.604,160.073 140.977,180.808 151.204,205.38C157.05,219.201 163.296,232.086 170.735,244.171C202.488,297.315 249.25,336.11 309.566,361.483C313.683,363.21 318.335,364.009 320.856,364.54C337.73,364.805 357.391,348.73 363.107,333.05C368.686,317.776 356.998,311.933 347.961,304.489Z" style="fill:rgb(253,195,0);fill-rule:nonzero;stroke:rgb(253,195,0);stroke-width:1px;"/>
            <path d="M275.555,173.636C270.241,172.964 263.465,170.707 262.273,177.748C260.946,185.054 268.514,184.528 273.43,185.588C306.912,192.899 318.335,204.847 323.914,237.274C324.174,238.604 324.315,240.327 324.315,241.789C324.712,245.641 325.64,249.09 331.484,248.035C334.409,247.633 335.473,246.043 335.605,243.786C336.003,241.789 335.605,239.13 335.871,237.274C336.004,206.044 308.768,177.748 275.555,173.636Z" style="fill:rgb(253,195,0);fill-rule:nonzero;stroke:rgb(253,195,0);stroke-width:1px;"/>
            <path d="M278.611,199.272C275.157,199.272 271.703,199.669 270.373,203.394C268.381,208.707 272.502,210.165 276.614,210.828C290.303,212.824 297.476,220.798 298.939,234.08C299.071,235.939 299.738,237.401 300.533,238.603C301.73,239.918 303.188,240.457 305.048,240.326C306.245,240.326 307.173,239.919 307.968,239.526C310.235,237.798 310.627,234.609 310.362,231.288C310.627,216.283 293.355,198.87 278.611,199.272Z" style="fill:rgb(253,195,0);fill-rule:nonzero;stroke:rgb(253,195,0);stroke-width:1px;"/>
        </g>
    </g>
</svg>
