<?xml version="1.0" encoding="UTF-8" standalone="no"?>
<!DOCTYPE svg PUBLIC "-//W3C//DTD SVG 1.1//EN" "http://www.w3.org/Graphics/SVG/1.1/DTD/svg11.dtd">
<svg width="100%" height="100%" viewBox="0 0 302 315" version="1.1" xmlns="http://www.w3.org/2000/svg" xmlns:xlink="http://www.w3.org/1999/xlink" xml:space="preserve" xmlns:serif="http://www.serif.com/" style="fill-rule:evenodd;clip-rule:evenodd;stroke-linejoin:round;stroke-miterlimit:2;">
    <g transform="matrix(1,0,0,1,-99.4,-88)">
        <g>
            <g>
                <path d="M400.6,402.8L373.2,402.8C373.2,334.9 317.9,279.6 250,279.6C182.1,279.6 126.8,334.9 126.8,402.8L99.4,402.8C99.4,319.8 166.9,252.2 250,252.2C333.1,252.2 400.6,319.8 400.6,402.8Z" style="fill-rule:nonzero;"/>
            </g>
            <g>
                <path d="M250,279.7C197.2,279.7 154.2,236.7 154.2,183.9C154.2,131.1 197.2,88 250,88C302.8,88 345.8,131 345.8,183.8C345.8,236.6 302.8,279.7 250,279.7ZM250,115.4C212.3,115.4 181.6,146.1 181.6,183.8C181.6,221.5 212.3,252.2 250,252.2C287.7,252.2 318.4,221.5 318.4,183.8C318.4,146.1 287.7,115.4 250,115.4Z" style="fill-rule:nonzero;"/>
            </g>
            <g>
                <path d="M277.4,266L222.6,266L236.3,307L263.7,307L277.4,266Z" style="fill-rule:nonzero;"/>
            </g>
            <g>
                <path d="M222.6,402.8L277.4,402.8L263.7,320.7L236.3,320.7L222.6,402.8Z" style="fill-rule:nonzero;"/>
            </g>
        </g>
    </g>
</svg>
