<svg xmlns="http://www.w3.org/2000/svg" width="40.943" height="46" viewBox="0 0 40.943 46"><g transform="translate(-1264 -1543)"><g transform="translate(1264 1543)"><path d="M20.412,8.625a17.252,17.252,0,1,1,0,34.5,17.252,17.252,0,1,1,0-34.5ZM0,25.875A20.27,20.27,0,0,0,20.412,46,20.27,20.27,0,0,0,40.823,25.875,20.27,20.27,0,0,0,20.412,5.75,20.27,20.27,0,0,0,0,25.875Z"/><rect width="11.664" height="2.875" transform="translate(14.58)"/><rect width="2.916" height="5.75" transform="translate(34.814 6.172) rotate(-45)"/><path d="M20.412,11.5V25.875h14.58A14.48,14.48,0,0,0,20.412,11.5Z"/></g><path d="M1264,1568.875A20.414,20.414,0,1,1,1284.411,1589,20.269,20.269,0,0,1,1264,1568.875Zm2.916,0a17.5,17.5,0,1,0,17.5-17.25A17.373,17.373,0,0,0,1266.916,1568.875Zm17.5,0V1554.5a14.48,14.48,0,0,1,14.58,14.375Zm14.4-19.7,2.062-2.062,4.065,4.065-2.062,2.062Zm-20.235-3.3V1543h11.663v2.875Z" fill="#00409b"/></g></svg>