<?xml version="1.0" encoding="UTF-8" standalone="no"?>
<!DOCTYPE svg PUBLIC "-//W3C//DTD SVG 1.1//EN" "http://www.w3.org/Graphics/SVG/1.1/DTD/svg11.dtd">
<svg width="100%" height="100%" viewBox="0 0 32 33" version="1.1" xmlns="http://www.w3.org/2000/svg" xmlns:xlink="http://www.w3.org/1999/xlink" xml:space="preserve" xmlns:serif="http://www.serif.com/" style="fill-rule:evenodd;clip-rule:evenodd;stroke-linejoin:round;stroke-miterlimit:2;">
    <g id="Vector_Smart_Object" transform="matrix(1,0,0,1,-1870,-702)">
        <path id="Color_Overlay" d="M1872.26,726.526C1870.86,724.029 1870.13,721.213 1870.13,718.351C1870.03,709.501 1877.22,702.128 1886.07,702C1890.32,701.999 1894.39,703.734 1897.34,706.8C1900.35,709.896 1902.02,714.053 1902,718.37C1902.1,727.22 1894.92,734.592 1886.07,734.722L1886.06,734.722C1883.39,734.72 1880.77,734.035 1878.45,732.731L1870,735L1872.26,726.526ZM1879.32,730.06C1881.35,731.297 1883.68,731.953 1886.06,731.954L1886.07,731.954C1893.42,731.847 1899.39,725.718 1899.31,718.362C1899.33,714.774 1897.94,711.319 1895.43,708.747C1892.99,706.201 1889.6,704.76 1886.07,704.761C1878.71,704.865 1872.74,710.993 1872.82,718.351C1872.82,720.902 1873.52,723.406 1874.85,725.584L1875.16,726.098L1873.83,731.114L1878.84,729.765L1879.32,730.06ZM1888.67,725.977C1887.89,725.731 1887.14,725.443 1886.4,725.116C1882.4,723.347 1879.8,719.216 1879.6,718.947C1878.66,717.723 1878.1,716.256 1877.97,714.721C1877.94,713.442 1878.45,712.207 1879.36,711.312C1879.63,710.999 1880.02,710.813 1880.43,710.801C1880.69,710.801 1880.96,710.801 1881.19,710.815L1881.28,710.815C1881.51,710.815 1881.8,710.815 1882.08,711.515C1882.42,712.333 1883.21,714.344 1883.31,714.549C1883.44,714.767 1883.45,715.036 1883.35,715.265C1883.25,715.51 1883.11,715.739 1882.94,715.946C1882.75,716.185 1882.53,716.479 1882.35,716.662C1882.17,716.773 1882.07,716.962 1882.07,717.165C1882.07,717.283 1882.11,717.397 1882.17,717.495C1882.77,718.542 1883.51,719.496 1884.38,720.326C1885.32,721.185 1886.41,721.872 1887.59,722.355C1887.99,722.555 1888.22,722.525 1888.45,722.255C1888.68,721.985 1889.45,721.062 1889.71,720.655C1889.97,720.248 1890.24,720.314 1890.61,720.455C1890.98,720.596 1892.93,721.58 1893.33,721.784C1893.73,721.988 1893.99,722.091 1894.09,722.261C1894.2,722.917 1894.12,723.591 1893.86,724.204C1893.28,725.2 1892.3,725.906 1891.17,726.147C1890.85,726.197 1890.53,726.223 1890.21,726.225C1889.68,726.224 1889.16,726.141 1888.67,725.977Z" style="fill:rgb(60,179,74);fill-rule:nonzero;"/>
    </g>
</svg>
